<svg xmlns="http://www.w3.org/2000/svg" width="1298" height="760" viewBox="150 127 1298 760">
<!-- Plot data obtained via command "pmGenerator -c -n -s CCCpqrCCrpCsp,COp <two hyphens>plot -s -x 400 -o sys/CCCpqrCCrpCsp,COp/plot_data_x400.txt" ; repository at https://github.com/xamidi/pmGenerator -->
<style>
<![CDATA[text{filter:drop-shadow(0px -2px 6px #fff)}.B{font-family:Arial}.C{font-size:17px}.D{stroke-opacity:.6}.G{text-anchor:middle}.H{text-anchor:end}.I{stroke-width:2}.J{stroke-dasharray:4 3}.J1{stroke-dasharray:0 7 4 3}.J2{stroke-dasharray:4 10}.K{font-style:italic}]]>
</style>
<defs>
<linearGradient id="A">
<stop offset="0%" stop-color="#0f0"/>
<stop offset="5%" stop-color="#0f0"/>
<stop offset="28%" stop-color="#ff8000"/>
<stop offset="38%" stop-color="#ff8000"/>
<stop offset="61%" stop-color="red"/>
<stop offset="71%" stop-color="red"/>
<stop offset="95%" stop-color="#400080"/>
</linearGradient>
</defs>
<text x="296" y="161.45" font-weight="bold" class="B C">CCCpqrCCrpCsp,COp: Quantities of most general theorems by their symbolic lengths for minimal condensed detachment proofs</text>
<text x="1310" y="206.45" class="B C">proof length 77</text>
<circle cx="1287" cy="200.5" r="4.5" fill="#0f0"/>
<text x="1310" y="234.45" class="B C">proof length 79</text>
<circle cx="1287" cy="228.5" r="4.5" fill="#ff8000"/>
<text x="1310" y="262.45" class="B C">proof length 81</text>
<circle cx="1287" cy="256.5" r="4.5" fill="red"/>
<text x="1310" y="290.45" class="B C">proof length 83</text>
<circle cx="1287" cy="284.5" r="4.5" fill="#400080"/>
<text x="1310" y="318.45" class="B C">averages</text>
<path fill="none" stroke="url(#A)" d="M1270,312.5L1304,312.5001" class="D I"/>
<text x="1310" y="346.45" class="B C">medians</text>
<path fill="none" stroke="url(#A)" d="M1270,340.5L1304,340.5001" class="D I J"/>
<path fill="#ccc" d="M296 192h1v622h-1zm239 0h1v622h-1zm239 0h1v622h-1zm239 0h1v622h-1zm239 0h1v622h-1z"/>
<path fill="#ebebeb" d="M416 192h1v622h-1zm239 0h1v622h-1zm239 0h1v622h-1zm239 0h1v622h-1z"/>
<path fill="#ccc" d="M296 813h957v1H296zm0-207h957v1H296zm0-207h957v1H296zm0-207h957v1H296z"/>
<path fill="#ebebeb" d="M296 710h957v1H296zm0-207h957v1H296zm0-207h957v1H296z"/>
<g fill="#333">
<path d="M296 192h1v622h-1z"/>
<path d="M296 813h957v1H296z"/>
</g>
<g fill="none" class="I D">
<path stroke="#0f0" d="M509.76 813.5v-621"/>
<path stroke="#ff8000" d="M514.492 813.5v-621"/>
<path stroke="red" d="M520.276 813.5v-621"/>
<path stroke="#400080" d="M525.104 813.5v-621"/>
<g class="J">
<path stroke="#0f0" d="M480.53 813.5v-621"/>
<path stroke="#ff8000" d="M485.31 813.5v-621"/>
</g>
<path class="J1" stroke="red" d="M490.09 813.5v-621"/>
<path class="J2" stroke="#400080" d="M490.09 813.5v-621"/>
</g>
<g fill="#0f0">
<circle cx="298.89" cy="813.5" r="4.5"/>
<circle cx="301.28" cy="813.5" r="4.5"/>
<circle cx="303.67" cy="813.5" r="4.5"/>
<circle cx="306.06" cy="813.5" r="4.5"/>
<circle cx="308.45" cy="813.5" r="4.5"/>
<circle cx="310.84" cy="813.5" r="4.5"/>
<circle cx="313.23" cy="813.5" r="4.5"/>
<circle cx="315.62" cy="813.5" r="4.5"/>
<circle cx="318.01" cy="813.496" r="4.5"/>
<circle cx="320.4" cy="813.5" r="4.5"/>
<circle cx="322.79" cy="813.483" r="4.5"/>
<circle cx="325.18" cy="813.5" r="4.5"/>
<circle cx="327.57" cy="813.459" r="4.5"/>
<circle cx="329.96" cy="813.5" r="4.5"/>
<circle cx="332.35" cy="813.281" r="4.5"/>
<circle cx="334.74" cy="813.5" r="4.5"/>
<circle cx="337.13" cy="812.904" r="4.5"/>
<circle cx="339.52" cy="813.5" r="4.5"/>
<circle cx="341.91" cy="811.931" r="4.5"/>
<circle cx="344.3" cy="813.5" r="4.5"/>
<circle cx="346.69" cy="810.337" r="4.5"/>
<circle cx="349.08" cy="813.5" r="4.5"/>
<circle cx="351.47" cy="807.153" r="4.5"/>
<circle cx="353.86" cy="813.5" r="4.5"/>
<circle cx="356.25" cy="802.314" r="4.5"/>
<circle cx="358.64" cy="813.5" r="4.5"/>
<circle cx="361.03" cy="795.942" r="4.5"/>
<circle cx="363.42" cy="813.5" r="4.5"/>
<circle cx="365.81" cy="786.304" r="4.5"/>
<circle cx="368.2" cy="813.5" r="4.5"/>
<circle cx="370.59" cy="775.3" r="4.5"/>
<circle cx="372.98" cy="813.5" r="4.5"/>
<circle cx="375.37" cy="760.744" r="4.5"/>
<circle cx="377.76" cy="813.5" r="4.5"/>
<circle cx="380.15" cy="744.221" r="4.5"/>
<circle cx="382.54" cy="813.5" r="4.5"/>
<circle cx="384.93" cy="726.436" r="4.5"/>
<circle cx="387.32" cy="813.5" r="4.5"/>
<circle cx="389.71" cy="708.009" r="4.5"/>
<circle cx="392.1" cy="813.5" r="4.5"/>
<circle cx="394.49" cy="694.736" r="4.5"/>
<circle cx="396.88" cy="813.5" r="4.5"/>
<circle cx="399.27" cy="674.905" r="4.5"/>
<circle cx="401.66" cy="813.5" r="4.5"/>
<circle cx="404.05" cy="660.08" r="4.5"/>
<circle cx="406.44" cy="813.5" r="4.5"/>
<circle cx="408.83" cy="647.536" r="4.5"/>
<circle cx="411.22" cy="813.5" r="4.5"/>
<circle cx="413.61" cy="631.704" r="4.5"/>
<circle cx="416" cy="813.5" r="4.5"/>
<circle cx="418.39" cy="627.759" r="4.5"/>
<circle cx="420.78" cy="813.5" r="4.5"/>
<circle cx="423.17" cy="615.736" r="4.5"/>
<circle cx="425.56" cy="813.5" r="4.5"/>
<circle cx="427.95" cy="615.351" r="4.5"/>
<circle cx="430.34" cy="813.5" r="4.5"/>
<circle cx="432.73" cy="610.015" r="4.5"/>
<circle cx="435.12" cy="813.5" r="4.5"/>
<circle cx="437.51" cy="611.365" r="4.5"/>
<circle cx="439.9" cy="813.5" r="4.5"/>
<circle cx="442.29" cy="613.877" r="4.5"/>
<circle cx="444.68" cy="813.5" r="4.5"/>
<circle cx="447.07" cy="617.09" r="4.5"/>
<circle cx="449.46" cy="813.5" r="4.5"/>
<circle cx="451.85" cy="616.473" r="4.5"/>
<circle cx="454.24" cy="813.5" r="4.5"/>
<circle cx="456.63" cy="627.188" r="4.5"/>
<circle cx="459.02" cy="813.5" r="4.5"/>
<circle cx="461.41" cy="629.986" r="4.5"/>
<circle cx="463.8" cy="813.5" r="4.5"/>
<circle cx="466.19" cy="641.814" r="4.5"/>
<circle cx="468.58" cy="813.5" r="4.5"/>
<circle cx="470.97" cy="638.564" r="4.5"/>
<circle cx="473.36" cy="813.5" r="4.5"/>
<circle cx="475.75" cy="658.739" r="4.5"/>
<circle cx="478.14" cy="813.5" r="4.5"/>
<circle cx="480.53" cy="656.528" r="4.5"/>
<circle cx="482.92" cy="813.5" r="4.5"/>
<circle cx="485.31" cy="671.999" r="4.5"/>
<circle cx="487.7" cy="813.5" r="4.5"/>
<circle cx="490.09" cy="666.869" r="4.5"/>
<circle cx="492.48" cy="813.5" r="4.5"/>
<circle cx="494.87" cy="689.188" r="4.5"/>
<circle cx="497.26" cy="813.5" r="4.5"/>
<circle cx="499.65" cy="682.258" r="4.5"/>
<circle cx="502.04" cy="813.5" r="4.5"/>
<circle cx="504.43" cy="699.451" r="4.5"/>
<circle cx="506.82" cy="813.5" r="4.5"/>
<circle cx="509.21" cy="693.158" r="4.5"/>
<circle cx="511.6" cy="813.5" r="4.5"/>
<circle cx="513.99" cy="708.485" r="4.5"/>
<circle cx="516.38" cy="813.5" r="4.5"/>
<circle cx="518.77" cy="702.95" r="4.5"/>
<circle cx="521.16" cy="813.5" r="4.5"/>
<circle cx="523.55" cy="718.802" r="4.5"/>
<circle cx="525.94" cy="813.5" r="4.5"/>
<circle cx="528.33" cy="706.013" r="4.5"/>
<circle cx="530.72" cy="813.5" r="4.5"/>
<circle cx="533.11" cy="725.711" r="4.5"/>
<circle cx="535.5" cy="813.5" r="4.5"/>
<circle cx="537.89" cy="709.309" r="4.5"/>
<circle cx="540.28" cy="813.5" r="4.5"/>
<circle cx="542.67" cy="729.553" r="4.5"/>
<circle cx="545.06" cy="813.5" r="4.5"/>
<circle cx="547.45" cy="715.767" r="4.5"/>
<circle cx="549.84" cy="813.5" r="4.5"/>
<circle cx="552.23" cy="737.241" r="4.5"/>
<circle cx="554.62" cy="813.5" r="4.5"/>
<circle cx="557.01" cy="721.969" r="4.5"/>
<circle cx="559.4" cy="813.5" r="4.5"/>
<circle cx="561.79" cy="738.678" r="4.5"/>
<circle cx="564.18" cy="813.5" r="4.5"/>
<circle cx="566.57" cy="724.701" r="4.5"/>
<circle cx="568.96" cy="813.5" r="4.5"/>
<circle cx="571.35" cy="745.484" r="4.5"/>
<circle cx="573.74" cy="813.5" r="4.5"/>
<circle cx="576.13" cy="731.921" r="4.5"/>
<circle cx="578.52" cy="813.5" r="4.5"/>
<circle cx="580.91" cy="752.911" r="4.5"/>
<circle cx="583.3" cy="813.5" r="4.5"/>
<circle cx="585.69" cy="735.32" r="4.5"/>
<circle cx="588.08" cy="813.5" r="4.5"/>
<circle cx="590.47" cy="756.972" r="4.5"/>
<circle cx="592.86" cy="813.5" r="4.5"/>
<circle cx="595.25" cy="744.047" r="4.5"/>
<circle cx="597.64" cy="813.5" r="4.5"/>
<circle cx="600.03" cy="761.406" r="4.5"/>
<circle cx="602.42" cy="813.5" r="4.5"/>
<circle cx="604.81" cy="748.858" r="4.5"/>
<circle cx="607.2" cy="813.5" r="4.5"/>
<circle cx="609.59" cy="767.604" r="4.5"/>
<circle cx="611.98" cy="813.5" r="4.5"/>
<circle cx="614.37" cy="752.613" r="4.5"/>
<circle cx="616.76" cy="813.5" r="4.5"/>
<circle cx="619.15" cy="771.939" r="4.5"/>
<circle cx="621.54" cy="813.5" r="4.5"/>
<circle cx="623.93" cy="759.461" r="4.5"/>
<circle cx="626.32" cy="813.5" r="4.5"/>
<circle cx="628.71" cy="774.791" r="4.5"/>
<circle cx="631.1" cy="813.5" r="4.5"/>
<circle cx="633.49" cy="763.377" r="4.5"/>
<circle cx="635.88" cy="813.5" r="4.5"/>
<circle cx="638.27" cy="780.566" r="4.5"/>
<circle cx="640.66" cy="813.5" r="4.5"/>
<circle cx="643.05" cy="766.321" r="4.5"/>
<circle cx="645.44" cy="813.5" r="4.5"/>
<circle cx="647.83" cy="783.154" r="4.5"/>
<circle cx="650.22" cy="813.5" r="4.5"/>
<circle cx="652.61" cy="774.017" r="4.5"/>
<circle cx="655" cy="813.5" r="4.5"/>
<circle cx="657.39" cy="786.507" r="4.5"/>
<circle cx="659.78" cy="813.5" r="4.5"/>
<circle cx="662.17" cy="774.716" r="4.5"/>
<circle cx="664.56" cy="813.5" r="4.5"/>
<circle cx="666.95" cy="790.026" r="4.5"/>
<circle cx="669.34" cy="813.5" r="4.5"/>
<circle cx="671.73" cy="779.991" r="4.5"/>
<circle cx="674.12" cy="813.5" r="4.5"/>
<circle cx="676.51" cy="791.475" r="4.5"/>
<circle cx="678.9" cy="813.5" r="4.5"/>
<circle cx="681.29" cy="782.454" r="4.5"/>
<circle cx="683.68" cy="813.5" r="4.5"/>
<circle cx="686.07" cy="795.416" r="4.5"/>
<circle cx="688.46" cy="813.5" r="4.5"/>
<circle cx="690.85" cy="784.603" r="4.5"/>
<circle cx="693.24" cy="813.5" r="4.5"/>
<circle cx="695.63" cy="796.592" r="4.5"/>
<circle cx="698.02" cy="813.5" r="4.5"/>
<circle cx="700.41" cy="787.944" r="4.5"/>
<circle cx="702.8" cy="813.5" r="4.5"/>
<circle cx="705.19" cy="798.762" r="4.5"/>
<circle cx="707.58" cy="813.5" r="4.5"/>
<circle cx="709.97" cy="789.31" r="4.5"/>
<circle cx="712.36" cy="813.5" r="4.5"/>
<circle cx="714.75" cy="800.861" r="4.5"/>
<circle cx="717.14" cy="813.5" r="4.5"/>
<circle cx="719.53" cy="791.955" r="4.5"/>
<circle cx="721.92" cy="813.5" r="4.5"/>
<circle cx="724.31" cy="800.798" r="4.5"/>
<circle cx="726.7" cy="813.5" r="4.5"/>
<circle cx="729.09" cy="794.568" r="4.5"/>
<circle cx="731.48" cy="813.5" r="4.5"/>
<circle cx="733.87" cy="802.492" r="4.5"/>
<circle cx="736.26" cy="813.5" r="4.5"/>
<circle cx="738.65" cy="794.112" r="4.5"/>
<circle cx="741.04" cy="813.5" r="4.5"/>
<circle cx="743.43" cy="803.601" r="4.5"/>
<circle cx="745.82" cy="813.5" r="4.5"/>
<circle cx="748.21" cy="797.072" r="4.5"/>
<circle cx="750.6" cy="813.5" r="4.5"/>
<circle cx="752.99" cy="804.288" r="4.5"/>
<circle cx="755.38" cy="813.5" r="4.5"/>
<circle cx="757.77" cy="797.043" r="4.5"/>
<circle cx="760.16" cy="813.5" r="4.5"/>
<circle cx="762.55" cy="805.564" r="4.5"/>
<circle cx="764.94" cy="813.5" r="4.5"/>
<circle cx="767.33" cy="799.188" r="4.5"/>
<circle cx="769.72" cy="813.5" r="4.5"/>
<circle cx="772.11" cy="805.605" r="4.5"/>
<circle cx="774.5" cy="813.5" r="4.5"/>
<circle cx="776.89" cy="800.016" r="4.5"/>
<circle cx="779.28" cy="813.5" r="4.5"/>
<circle cx="781.67" cy="806.296" r="4.5"/>
<circle cx="784.06" cy="813.5" r="4.5"/>
<circle cx="786.45" cy="800.629" r="4.5"/>
<circle cx="788.84" cy="813.5" r="4.5"/>
<circle cx="791.23" cy="806.922" r="4.5"/>
<circle cx="793.62" cy="813.5" r="4.5"/>
<circle cx="796.01" cy="801.105" r="4.5"/>
<circle cx="798.4" cy="813.5" r="4.5"/>
<circle cx="800.79" cy="807.538" r="4.5"/>
<circle cx="803.18" cy="813.5" r="4.5"/>
<circle cx="805.57" cy="802.877" r="4.5"/>
<circle cx="807.96" cy="813.5" r="4.5"/>
<circle cx="810.35" cy="807.737" r="4.5"/>
<circle cx="812.74" cy="813.5" r="4.5"/>
<circle cx="815.13" cy="803.038" r="4.5"/>
<circle cx="817.52" cy="813.5" r="4.5"/>
<circle cx="819.91" cy="808.47" r="4.5"/>
<circle cx="822.3" cy="813.5" r="4.5"/>
<circle cx="824.69" cy="804.106" r="4.5"/>
<circle cx="827.08" cy="813.5" r="4.5"/>
<circle cx="829.47" cy="808.826" r="4.5"/>
<circle cx="831.86" cy="813.5" r="4.5"/>
<circle cx="834.25" cy="804.392" r="4.5"/>
<circle cx="836.64" cy="813.5" r="4.5"/>
<circle cx="839.03" cy="809.426" r="4.5"/>
<circle cx="841.42" cy="813.5" r="4.5"/>
<circle cx="843.81" cy="805.365" r="4.5"/>
<circle cx="846.2" cy="813.5" r="4.5"/>
<circle cx="848.59" cy="809.774" r="4.5"/>
<circle cx="850.98" cy="813.5" r="4.5"/>
<circle cx="853.37" cy="805.692" r="4.5"/>
<circle cx="855.76" cy="813.5" r="4.5"/>
<circle cx="858.15" cy="810.246" r="4.5"/>
<circle cx="860.54" cy="813.5" r="4.5"/>
<circle cx="862.93" cy="806.893" r="4.5"/>
<circle cx="865.32" cy="813.5" r="4.5"/>
<circle cx="867.71" cy="810.511" r="4.5"/>
<circle cx="870.1" cy="813.5" r="4.5"/>
<circle cx="872.49" cy="807.174" r="4.5"/>
<circle cx="874.88" cy="813.5" r="4.5"/>
<circle cx="877.27" cy="810.751" r="4.5"/>
<circle cx="879.66" cy="813.5" r="4.5"/>
<circle cx="882.05" cy="808.01" r="4.5"/>
<circle cx="884.44" cy="813.5" r="4.5"/>
<circle cx="886.83" cy="811.049" r="4.5"/>
<circle cx="889.22" cy="813.5" r="4.5"/>
<circle cx="891.61" cy="808.01" r="4.5"/>
<circle cx="894" cy="813.5" r="4.5"/>
<circle cx="896.39" cy="811.438" r="4.5"/>
<circle cx="898.78" cy="813.5" r="4.5"/>
<circle cx="901.17" cy="808.834" r="4.5"/>
<circle cx="903.56" cy="813.5" r="4.5"/>
<circle cx="905.95" cy="811.492" r="4.5"/>
<circle cx="908.34" cy="813.5" r="4.5"/>
<circle cx="910.73" cy="809.327" r="4.5"/>
<circle cx="913.12" cy="813.5" r="4.5"/>
<circle cx="915.51" cy="811.877" r="4.5"/>
<circle cx="917.9" cy="813.5" r="4.5"/>
<circle cx="920.29" cy="809.699" r="4.5"/>
<circle cx="922.68" cy="813.5" r="4.5"/>
<circle cx="925.07" cy="812.059" r="4.5"/>
<circle cx="927.46" cy="813.5" r="4.5"/>
<circle cx="929.85" cy="809.733" r="4.5"/>
<circle cx="932.24" cy="813.5" r="4.5"/>
<circle cx="934.63" cy="812.196" r="4.5"/>
<circle cx="937.02" cy="813.5" r="4.5"/>
<circle cx="939.41" cy="810.594" r="4.5"/>
<circle cx="941.8" cy="813.5" r="4.5"/>
<circle cx="944.19" cy="812.266" r="4.5"/>
<circle cx="946.58" cy="813.5" r="4.5"/>
<circle cx="948.97" cy="810.606" r="4.5"/>
<circle cx="951.36" cy="813.5" r="4.5"/>
<circle cx="953.75" cy="812.469" r="4.5"/>
<circle cx="956.14" cy="813.5" r="4.5"/>
<circle cx="958.53" cy="811.231" r="4.5"/>
<circle cx="960.92" cy="813.5" r="4.5"/>
<circle cx="963.31" cy="812.66" r="4.5"/>
<circle cx="965.7" cy="813.5" r="4.5"/>
<circle cx="968.09" cy="811.269" r="4.5"/>
<circle cx="970.48" cy="813.5" r="4.5"/>
<circle cx="972.87" cy="812.788" r="4.5"/>
<circle cx="975.26" cy="813.5" r="4.5"/>
<circle cx="977.65" cy="811.562" r="4.5"/>
<circle cx="980.04" cy="813.5" r="4.5"/>
<circle cx="982.43" cy="812.734" r="4.5"/>
<circle cx="984.82" cy="813.5" r="4.5"/>
<circle cx="987.21" cy="811.712" r="4.5"/>
<circle cx="989.6" cy="813.5" r="4.5"/>
<circle cx="991.99" cy="812.925" r="4.5"/>
<circle cx="994.38" cy="813.5" r="4.5"/>
<circle cx="996.77" cy="811.993" r="4.5"/>
<circle cx="999.16" cy="813.5" r="4.5"/>
<circle cx="1001.55" cy="812.978" r="4.5"/>
<circle cx="1003.94" cy="813.5" r="4.5"/>
<circle cx="1006.33" cy="812.059" r="4.5"/>
<circle cx="1008.72" cy="813.5" r="4.5"/>
<circle cx="1011.11" cy="812.954" r="4.5"/>
<circle cx="1013.5" cy="813.5" r="4.5"/>
<circle cx="1015.89" cy="812.378" r="4.5"/>
<circle cx="1018.28" cy="813.5" r="4.5"/>
<circle cx="1020.67" cy="813.028" r="4.5"/>
<circle cx="1023.06" cy="813.5" r="4.5"/>
<circle cx="1025.45" cy="812.357" r="4.5"/>
<circle cx="1027.84" cy="813.5" r="4.5"/>
<circle cx="1030.23" cy="813.119" r="4.5"/>
<circle cx="1032.62" cy="813.5" r="4.5"/>
<circle cx="1035.01" cy="812.635" r="4.5"/>
<circle cx="1037.4" cy="813.5" r="4.5"/>
<circle cx="1039.79" cy="813.132" r="4.5"/>
<circle cx="1042.18" cy="813.5" r="4.5"/>
<circle cx="1044.57" cy="812.56" r="4.5"/>
<circle cx="1046.96" cy="813.5" r="4.5"/>
<circle cx="1049.35" cy="813.223" r="4.5"/>
<circle cx="1051.74" cy="813.5" r="4.5"/>
<circle cx="1054.13" cy="812.697" r="4.5"/>
<circle cx="1056.52" cy="813.5" r="4.5"/>
<circle cx="1058.91" cy="813.289" r="4.5"/>
<circle cx="1061.3" cy="813.5" r="4.5"/>
<circle cx="1063.69" cy="812.742" r="4.5"/>
<circle cx="1066.08" cy="813.5" r="4.5"/>
<circle cx="1068.47" cy="813.276" r="4.5"/>
<circle cx="1070.86" cy="813.5" r="4.5"/>
<circle cx="1073.25" cy="812.929" r="4.5"/>
<circle cx="1075.64" cy="813.5" r="4.5"/>
<circle cx="1078.03" cy="813.256" r="4.5"/>
<circle cx="1080.42" cy="813.5" r="4.5"/>
<circle cx="1082.81" cy="812.825" r="4.5"/>
<circle cx="1085.2" cy="813.5" r="4.5"/>
<circle cx="1087.59" cy="813.339" r="4.5"/>
<circle cx="1089.98" cy="813.5" r="4.5"/>
<circle cx="1092.37" cy="812.987" r="4.5"/>
<circle cx="1094.76" cy="813.5" r="4.5"/>
<circle cx="1097.15" cy="813.305" r="4.5"/>
<circle cx="1099.54" cy="813.5" r="4.5"/>
<circle cx="1101.93" cy="813.069" r="4.5"/>
<circle cx="1104.32" cy="813.5" r="4.5"/>
<circle cx="1106.71" cy="813.334" r="4.5"/>
<circle cx="1109.1" cy="813.5" r="4.5"/>
<circle cx="1111.49" cy="813.053" r="4.5"/>
<circle cx="1113.88" cy="813.5" r="4.5"/>
<circle cx="1116.27" cy="813.38" r="4.5"/>
<circle cx="1118.66" cy="813.5" r="4.5"/>
<circle cx="1121.05" cy="813.016" r="4.5"/>
<circle cx="1123.44" cy="813.5" r="4.5"/>
<circle cx="1125.83" cy="813.347" r="4.5"/>
<circle cx="1128.22" cy="813.5" r="4.5"/>
<circle cx="1130.61" cy="813.194" r="4.5"/>
<circle cx="1133" cy="813.5" r="4.5"/>
<circle cx="1135.39" cy="813.322" r="4.5"/>
<circle cx="1137.78" cy="813.5" r="4.5"/>
<circle cx="1140.17" cy="813.127" r="4.5"/>
<circle cx="1142.56" cy="813.5" r="4.5"/>
<circle cx="1144.95" cy="813.384" r="4.5"/>
<circle cx="1147.34" cy="813.5" r="4.5"/>
<circle cx="1149.73" cy="813.156" r="4.5"/>
<circle cx="1152.12" cy="813.5" r="4.5"/>
<circle cx="1154.51" cy="813.392" r="4.5"/>
<circle cx="1156.9" cy="813.5" r="4.5"/>
<circle cx="1159.29" cy="813.181" r="4.5"/>
<circle cx="1161.68" cy="813.5" r="4.5"/>
<circle cx="1164.07" cy="813.413" r="4.5"/>
<circle cx="1166.46" cy="813.5" r="4.5"/>
<circle cx="1168.85" cy="813.189" r="4.5"/>
<circle cx="1171.24" cy="813.5" r="4.5"/>
<circle cx="1173.63" cy="813.392" r="4.5"/>
<circle cx="1176.02" cy="813.5" r="4.5"/>
<circle cx="1178.41" cy="813.189" r="4.5"/>
<circle cx="1180.8" cy="813.5" r="4.5"/>
<circle cx="1183.19" cy="813.413" r="4.5"/>
<circle cx="1185.58" cy="813.5" r="4.5"/>
<circle cx="1187.97" cy="813.264" r="4.5"/>
<circle cx="1190.36" cy="813.5" r="4.5"/>
<circle cx="1192.75" cy="813.425" r="4.5"/>
<circle cx="1195.14" cy="813.5" r="4.5"/>
<circle cx="1197.53" cy="813.227" r="4.5"/>
<circle cx="1199.92" cy="813.5" r="4.5"/>
<circle cx="1202.31" cy="813.454" r="4.5"/>
<circle cx="1204.7" cy="813.5" r="4.5"/>
<circle cx="1207.09" cy="813.272" r="4.5"/>
<circle cx="1209.48" cy="813.5" r="4.5"/>
<circle cx="1211.87" cy="813.438" r="4.5"/>
<circle cx="1214.26" cy="813.5" r="4.5"/>
<circle cx="1216.65" cy="813.289" r="4.5"/>
<circle cx="1219.04" cy="813.5" r="4.5"/>
<circle cx="1221.43" cy="813.454" r="4.5"/>
<circle cx="1223.82" cy="813.5" r="4.5"/>
<circle cx="1226.21" cy="813.33" r="4.5"/>
<circle cx="1228.6" cy="813.5" r="4.5"/>
<circle cx="1230.99" cy="813.463" r="4.5"/>
<circle cx="1233.38" cy="813.5" r="4.5"/>
<circle cx="1235.77" cy="813.318" r="4.5"/>
<circle cx="1238.16" cy="813.5" r="4.5"/>
<circle cx="1240.55" cy="813.471" r="4.5"/>
<circle cx="1242.94" cy="813.5" r="4.5"/>
<circle cx="1245.33" cy="813.368" r="4.5"/>
<circle cx="1247.72" cy="813.5" r="4.5"/>
<circle cx="1250.11" cy="813.454" r="4.5"/>
<circle cx="1252.5" cy="813.5" r="4.5"/>
</g>
<g fill="#ff8000">
<circle cx="298.89" cy="813.5" r="4.5"/>
<circle cx="301.28" cy="813.5" r="4.5"/>
<circle cx="303.67" cy="813.5" r="4.5"/>
<circle cx="306.06" cy="813.5" r="4.5"/>
<circle cx="308.45" cy="813.5" r="4.5"/>
<circle cx="310.84" cy="813.5" r="4.5"/>
<circle cx="313.23" cy="813.5" r="4.5"/>
<circle cx="315.62" cy="813.5" r="4.5"/>
<circle cx="318.01" cy="813.5" r="4.5"/>
<circle cx="320.4" cy="813.5" r="4.5"/>
<circle cx="322.79" cy="813.488" r="4.5"/>
<circle cx="325.18" cy="813.5" r="4.5"/>
<circle cx="327.57" cy="813.417" r="4.5"/>
<circle cx="329.96" cy="813.5" r="4.5"/>
<circle cx="332.35" cy="813.289" r="4.5"/>
<circle cx="334.74" cy="813.5" r="4.5"/>
<circle cx="337.13" cy="812.784" r="4.5"/>
<circle cx="339.52" cy="813.5" r="4.5"/>
<circle cx="341.91" cy="811.819" r="4.5"/>
<circle cx="344.3" cy="813.5" r="4.5"/>
<circle cx="346.69" cy="810.151" r="4.5"/>
<circle cx="349.08" cy="813.5" r="4.5"/>
<circle cx="351.47" cy="806.628" r="4.5"/>
<circle cx="353.86" cy="813.5" r="4.5"/>
<circle cx="356.25" cy="800.997" r="4.5"/>
<circle cx="358.64" cy="813.5" r="4.5"/>
<circle cx="361.03" cy="792.581" r="4.5"/>
<circle cx="363.42" cy="813.5" r="4.5"/>
<circle cx="365.81" cy="780.939" r="4.5"/>
<circle cx="368.2" cy="813.5" r="4.5"/>
<circle cx="370.59" cy="766.379" r="4.5"/>
<circle cx="372.98" cy="813.5" r="4.5"/>
<circle cx="375.37" cy="746.921" r="4.5"/>
<circle cx="377.76" cy="813.5" r="4.5"/>
<circle cx="380.15" cy="726.258" r="4.5"/>
<circle cx="382.54" cy="813.5" r="4.5"/>
<circle cx="384.93" cy="705.032" r="4.5"/>
<circle cx="387.32" cy="813.5" r="4.5"/>
<circle cx="389.71" cy="678.996" r="4.5"/>
<circle cx="392.1" cy="813.5" r="4.5"/>
<circle cx="394.49" cy="652.466" r="4.5"/>
<circle cx="396.88" cy="813.5" r="4.5"/>
<circle cx="399.27" cy="625.892" r="4.5"/>
<circle cx="401.66" cy="813.5" r="4.5"/>
<circle cx="404.05" cy="605.084" r="4.5"/>
<circle cx="406.44" cy="813.5" r="4.5"/>
<circle cx="408.83" cy="583.796" r="4.5"/>
<circle cx="411.22" cy="813.5" r="4.5"/>
<circle cx="413.61" cy="566.437" r="4.5"/>
<circle cx="416" cy="813.5" r="4.5"/>
<circle cx="418.39" cy="554.075" r="4.5"/>
<circle cx="420.78" cy="813.5" r="4.5"/>
<circle cx="423.17" cy="544.864" r="4.5"/>
<circle cx="425.56" cy="813.5" r="4.5"/>
<circle cx="427.95" cy="537.3" r="4.5"/>
<circle cx="430.34" cy="813.5" r="4.5"/>
<circle cx="432.73" cy="528.415" r="4.5"/>
<circle cx="435.12" cy="813.5" r="4.5"/>
<circle cx="437.51" cy="532.961" r="4.5"/>
<circle cx="439.9" cy="813.5" r="4.5"/>
<circle cx="442.29" cy="529.07" r="4.5"/>
<circle cx="444.68" cy="813.5" r="4.5"/>
<circle cx="447.07" cy="536.902" r="4.5"/>
<circle cx="449.46" cy="813.5" r="4.5"/>
<circle cx="451.85" cy="534.24" r="4.5"/>
<circle cx="454.24" cy="813.5" r="4.5"/>
<circle cx="456.63" cy="550.502" r="4.5"/>
<circle cx="459.02" cy="813.5" r="4.5"/>
<circle cx="461.41" cy="550.747" r="4.5"/>
<circle cx="463.8" cy="813.5" r="4.5"/>
<circle cx="466.19" cy="565.39" r="4.5"/>
<circle cx="468.58" cy="813.5" r="4.5"/>
<circle cx="470.97" cy="570.784" r="4.5"/>
<circle cx="473.36" cy="813.5" r="4.5"/>
<circle cx="475.75" cy="585.461" r="4.5"/>
<circle cx="478.14" cy="813.5" r="4.5"/>
<circle cx="480.53" cy="587.949" r="4.5"/>
<circle cx="482.92" cy="813.5" r="4.5"/>
<circle cx="485.31" cy="611.443" r="4.5"/>
<circle cx="487.7" cy="813.5" r="4.5"/>
<circle cx="490.09" cy="601.358" r="4.5"/>
<circle cx="492.48" cy="813.5" r="4.5"/>
<circle cx="494.87" cy="633.352" r="4.5"/>
<circle cx="497.26" cy="813.5" r="4.5"/>
<circle cx="499.65" cy="620.427" r="4.5"/>
<circle cx="502.04" cy="813.5" r="4.5"/>
<circle cx="504.43" cy="643.276" r="4.5"/>
<circle cx="506.82" cy="813.5" r="4.5"/>
<circle cx="509.21" cy="639.123" r="4.5"/>
<circle cx="511.6" cy="813.5" r="4.5"/>
<circle cx="513.99" cy="658.254" r="4.5"/>
<circle cx="516.38" cy="813.5" r="4.5"/>
<circle cx="518.77" cy="646.488" r="4.5"/>
<circle cx="521.16" cy="813.5" r="4.5"/>
<circle cx="523.55" cy="670.96" r="4.5"/>
<circle cx="525.94" cy="813.5" r="4.5"/>
<circle cx="528.33" cy="657.48" r="4.5"/>
<circle cx="530.72" cy="813.5" r="4.5"/>
<circle cx="533.11" cy="686.787" r="4.5"/>
<circle cx="535.5" cy="813.5" r="4.5"/>
<circle cx="537.89" cy="661.425" r="4.5"/>
<circle cx="540.28" cy="813.5" r="4.5"/>
<circle cx="542.67" cy="690.737" r="4.5"/>
<circle cx="545.06" cy="813.5" r="4.5"/>
<circle cx="547.45" cy="673.229" r="4.5"/>
<circle cx="549.84" cy="813.5" r="4.5"/>
<circle cx="552.23" cy="700.834" r="4.5"/>
<circle cx="554.62" cy="813.5" r="4.5"/>
<circle cx="557.01" cy="683.218" r="4.5"/>
<circle cx="559.4" cy="813.5" r="4.5"/>
<circle cx="561.79" cy="707.288" r="4.5"/>
<circle cx="564.18" cy="813.5" r="4.5"/>
<circle cx="566.57" cy="684.999" r="4.5"/>
<circle cx="568.96" cy="813.5" r="4.5"/>
<circle cx="571.35" cy="716.222" r="4.5"/>
<circle cx="573.74" cy="813.5" r="4.5"/>
<circle cx="576.13" cy="696.007" r="4.5"/>
<circle cx="578.52" cy="813.5" r="4.5"/>
<circle cx="580.91" cy="721.356" r="4.5"/>
<circle cx="583.3" cy="813.5" r="4.5"/>
<circle cx="585.69" cy="701.215" r="4.5"/>
<circle cx="588.08" cy="813.5" r="4.5"/>
<circle cx="590.47" cy="729.756" r="4.5"/>
<circle cx="592.86" cy="813.5" r="4.5"/>
<circle cx="595.25" cy="708.712" r="4.5"/>
<circle cx="597.64" cy="813.5" r="4.5"/>
<circle cx="600.03" cy="737.883" r="4.5"/>
<circle cx="602.42" cy="813.5" r="4.5"/>
<circle cx="604.81" cy="716.574" r="4.5"/>
<circle cx="607.2" cy="813.5" r="4.5"/>
<circle cx="609.59" cy="743.824" r="4.5"/>
<circle cx="611.98" cy="813.5" r="4.5"/>
<circle cx="614.37" cy="725.571" r="4.5"/>
<circle cx="616.76" cy="813.5" r="4.5"/>
<circle cx="619.15" cy="750.013" r="4.5"/>
<circle cx="621.54" cy="813.5" r="4.5"/>
<circle cx="623.93" cy="731.959" r="4.5"/>
<circle cx="626.32" cy="813.5" r="4.5"/>
<circle cx="628.71" cy="758.492" r="4.5"/>
<circle cx="631.1" cy="813.5" r="4.5"/>
<circle cx="633.49" cy="738.876" r="4.5"/>
<circle cx="635.88" cy="813.5" r="4.5"/>
<circle cx="638.27" cy="764.586" r="4.5"/>
<circle cx="640.66" cy="813.5" r="4.5"/>
<circle cx="643.05" cy="745.567" r="4.5"/>
<circle cx="645.44" cy="813.5" r="4.5"/>
<circle cx="647.83" cy="768.428" r="4.5"/>
<circle cx="650.22" cy="813.5" r="4.5"/>
<circle cx="652.61" cy="754.691" r="4.5"/>
<circle cx="655" cy="813.5" r="4.5"/>
<circle cx="657.39" cy="774.286" r="4.5"/>
<circle cx="659.78" cy="813.5" r="4.5"/>
<circle cx="662.17" cy="757.589" r="4.5"/>
<circle cx="664.56" cy="813.5" r="4.5"/>
<circle cx="666.95" cy="778.662" r="4.5"/>
<circle cx="669.34" cy="813.5" r="4.5"/>
<circle cx="671.73" cy="763.497" r="4.5"/>
<circle cx="674.12" cy="813.5" r="4.5"/>
<circle cx="676.51" cy="782.512" r="4.5"/>
<circle cx="678.9" cy="813.5" r="4.5"/>
<circle cx="681.29" cy="768.742" r="4.5"/>
<circle cx="683.68" cy="813.5" r="4.5"/>
<circle cx="686.07" cy="786.217" r="4.5"/>
<circle cx="688.46" cy="813.5" r="4.5"/>
<circle cx="690.85" cy="772.572" r="4.5"/>
<circle cx="693.24" cy="813.5" r="4.5"/>
<circle cx="695.63" cy="788.254" r="4.5"/>
<circle cx="698.02" cy="813.5" r="4.5"/>
<circle cx="700.41" cy="775.805" r="4.5"/>
<circle cx="702.8" cy="813.5" r="4.5"/>
<circle cx="705.19" cy="791.136" r="4.5"/>
<circle cx="707.58" cy="813.5" r="4.5"/>
<circle cx="709.97" cy="779.502" r="4.5"/>
<circle cx="712.36" cy="813.5" r="4.5"/>
<circle cx="714.75" cy="792.858" r="4.5"/>
<circle cx="717.14" cy="813.5" r="4.5"/>
<circle cx="719.53" cy="781.713" r="4.5"/>
<circle cx="721.92" cy="813.5" r="4.5"/>
<circle cx="724.31" cy="794.692" r="4.5"/>
<circle cx="726.7" cy="813.5" r="4.5"/>
<circle cx="729.09" cy="785.319" r="4.5"/>
<circle cx="731.48" cy="813.5" r="4.5"/>
<circle cx="733.87" cy="796.642" r="4.5"/>
<circle cx="736.26" cy="813.5" r="4.5"/>
<circle cx="738.65" cy="784.913" r="4.5"/>
<circle cx="741.04" cy="813.5" r="4.5"/>
<circle cx="743.43" cy="797.408" r="4.5"/>
<circle cx="745.82" cy="813.5" r="4.5"/>
<circle cx="748.21" cy="788.801" r="4.5"/>
<circle cx="750.6" cy="813.5" r="4.5"/>
<circle cx="752.99" cy="799.018" r="4.5"/>
<circle cx="755.38" cy="813.5" r="4.5"/>
<circle cx="757.77" cy="788.846" r="4.5"/>
<circle cx="760.16" cy="813.5" r="4.5"/>
<circle cx="762.55" cy="799.999" r="4.5"/>
<circle cx="764.94" cy="813.5" r="4.5"/>
<circle cx="767.33" cy="790.97" r="4.5"/>
<circle cx="769.72" cy="813.5" r="4.5"/>
<circle cx="772.11" cy="800.674" r="4.5"/>
<circle cx="774.5" cy="813.5" r="4.5"/>
<circle cx="776.89" cy="792.1" r="4.5"/>
<circle cx="779.28" cy="813.5" r="4.5"/>
<circle cx="781.67" cy="802.773" r="4.5"/>
<circle cx="784.06" cy="813.5" r="4.5"/>
<circle cx="786.45" cy="793.632" r="4.5"/>
<circle cx="788.84" cy="813.5" r="4.5"/>
<circle cx="791.23" cy="802.852" r="4.5"/>
<circle cx="793.62" cy="813.5" r="4.5"/>
<circle cx="796.01" cy="795.354" r="4.5"/>
<circle cx="798.4" cy="813.5" r="4.5"/>
<circle cx="800.79" cy="803.605" r="4.5"/>
<circle cx="803.18" cy="813.5" r="4.5"/>
<circle cx="805.57" cy="796.973" r="4.5"/>
<circle cx="807.96" cy="813.5" r="4.5"/>
<circle cx="810.35" cy="804.893" r="4.5"/>
<circle cx="812.74" cy="813.5" r="4.5"/>
<circle cx="815.13" cy="796.692" r="4.5"/>
<circle cx="817.52" cy="813.5" r="4.5"/>
<circle cx="819.91" cy="805.282" r="4.5"/>
<circle cx="822.3" cy="813.5" r="4.5"/>
<circle cx="824.69" cy="799.457" r="4.5"/>
<circle cx="827.08" cy="813.5" r="4.5"/>
<circle cx="829.47" cy="806.073" r="4.5"/>
<circle cx="831.86" cy="813.5" r="4.5"/>
<circle cx="834.25" cy="799.275" r="4.5"/>
<circle cx="836.64" cy="813.5" r="4.5"/>
<circle cx="839.03" cy="807.323" r="4.5"/>
<circle cx="841.42" cy="813.5" r="4.5"/>
<circle cx="843.81" cy="800.919" r="4.5"/>
<circle cx="846.2" cy="813.5" r="4.5"/>
<circle cx="848.59" cy="807.158" r="4.5"/>
<circle cx="850.98" cy="813.5" r="4.5"/>
<circle cx="853.37" cy="802.144" r="4.5"/>
<circle cx="855.76" cy="813.5" r="4.5"/>
<circle cx="858.15" cy="808.275" r="4.5"/>
<circle cx="860.54" cy="813.5" r="4.5"/>
<circle cx="862.93" cy="802.889" r="4.5"/>
<circle cx="865.32" cy="813.5" r="4.5"/>
<circle cx="867.71" cy="808.71" r="4.5"/>
<circle cx="870.1" cy="813.5" r="4.5"/>
<circle cx="872.49" cy="803.477" r="4.5"/>
<circle cx="874.88" cy="813.5" r="4.5"/>
<circle cx="877.27" cy="808.88" r="4.5"/>
<circle cx="879.66" cy="813.5" r="4.5"/>
<circle cx="882.05" cy="805.017" r="4.5"/>
<circle cx="884.44" cy="813.5" r="4.5"/>
<circle cx="886.83" cy="809.505" r="4.5"/>
<circle cx="889.22" cy="813.5" r="4.5"/>
<circle cx="891.61" cy="804.806" r="4.5"/>
<circle cx="894" cy="813.5" r="4.5"/>
<circle cx="896.39" cy="809.911" r="4.5"/>
<circle cx="898.78" cy="813.5" r="4.5"/>
<circle cx="901.17" cy="806.296" r="4.5"/>
<circle cx="903.56" cy="813.5" r="4.5"/>
<circle cx="905.95" cy="809.836" r="4.5"/>
<circle cx="908.34" cy="813.5" r="4.5"/>
<circle cx="910.73" cy="806.549" r="4.5"/>
<circle cx="913.12" cy="813.5" r="4.5"/>
<circle cx="915.51" cy="810.726" r="4.5"/>
<circle cx="917.9" cy="813.5" r="4.5"/>
<circle cx="920.29" cy="807.137" r="4.5"/>
<circle cx="922.68" cy="813.5" r="4.5"/>
<circle cx="925.07" cy="810.999" r="4.5"/>
<circle cx="927.46" cy="813.5" r="4.5"/>
<circle cx="929.85" cy="807.592" r="4.5"/>
<circle cx="932.24" cy="813.5" r="4.5"/>
<circle cx="934.63" cy="810.975" r="4.5"/>
<circle cx="937.02" cy="813.5" r="4.5"/>
<circle cx="939.41" cy="808.52" r="4.5"/>
<circle cx="941.8" cy="813.5" r="4.5"/>
<circle cx="944.19" cy="811.248" r="4.5"/>
<circle cx="946.58" cy="813.5" r="4.5"/>
<circle cx="948.97" cy="808.234" r="4.5"/>
<circle cx="951.36" cy="813.5" r="4.5"/>
<circle cx="953.75" cy="811.649" r="4.5"/>
<circle cx="956.14" cy="813.5" r="4.5"/>
<circle cx="958.53" cy="809.149" r="4.5"/>
<circle cx="960.92" cy="813.5" r="4.5"/>
<circle cx="963.31" cy="811.683" r="4.5"/>
<circle cx="965.7" cy="813.5" r="4.5"/>
<circle cx="968.09" cy="809.451" r="4.5"/>
<circle cx="970.48" cy="813.5" r="4.5"/>
<circle cx="972.87" cy="812.059" r="4.5"/>
<circle cx="975.26" cy="813.5" r="4.5"/>
<circle cx="977.65" cy="809.886" r="4.5"/>
<circle cx="980.04" cy="813.5" r="4.5"/>
<circle cx="982.43" cy="812.063" r="4.5"/>
<circle cx="984.82" cy="813.5" r="4.5"/>
<circle cx="987.21" cy="810.089" r="4.5"/>
<circle cx="989.6" cy="813.5" r="4.5"/>
<circle cx="991.99" cy="812.117" r="4.5"/>
<circle cx="994.38" cy="813.5" r="4.5"/>
<circle cx="996.77" cy="810.78" r="4.5"/>
<circle cx="999.16" cy="813.5" r="4.5"/>
<circle cx="1001.55" cy="812.25" r="4.5"/>
<circle cx="1003.94" cy="813.5" r="4.5"/>
<circle cx="1006.33" cy="810.465" r="4.5"/>
<circle cx="1008.72" cy="813.5" r="4.5"/>
<circle cx="1011.11" cy="812.502" r="4.5"/>
<circle cx="1013.5" cy="813.5" r="4.5"/>
<circle cx="1015.89" cy="811.024" r="4.5"/>
<circle cx="1018.28" cy="813.5" r="4.5"/>
<circle cx="1020.67" cy="812.626" r="4.5"/>
<circle cx="1023.06" cy="813.5" r="4.5"/>
<circle cx="1025.45" cy="811.327" r="4.5"/>
<circle cx="1027.84" cy="813.5" r="4.5"/>
<circle cx="1030.23" cy="812.689" r="4.5"/>
<circle cx="1032.62" cy="813.5" r="4.5"/>
<circle cx="1035.01" cy="811.434" r="4.5"/>
<circle cx="1037.4" cy="813.5" r="4.5"/>
<circle cx="1039.79" cy="812.788" r="4.5"/>
<circle cx="1042.18" cy="813.5" r="4.5"/>
<circle cx="1044.57" cy="811.273" r="4.5"/>
<circle cx="1046.96" cy="813.5" r="4.5"/>
<circle cx="1049.35" cy="813.045" r="4.5"/>
<circle cx="1051.74" cy="813.5" r="4.5"/>
<circle cx="1054.13" cy="811.877" r="4.5"/>
<circle cx="1056.52" cy="813.5" r="4.5"/>
<circle cx="1058.91" cy="812.962" r="4.5"/>
<circle cx="1061.3" cy="813.5" r="4.5"/>
<circle cx="1063.69" cy="812.047" r="4.5"/>
<circle cx="1066.08" cy="813.5" r="4.5"/>
<circle cx="1068.47" cy="813.086" r="4.5"/>
<circle cx="1070.86" cy="813.5" r="4.5"/>
<circle cx="1073.25" cy="812.229" r="4.5"/>
<circle cx="1075.64" cy="813.5" r="4.5"/>
<circle cx="1078.03" cy="813.14" r="4.5"/>
<circle cx="1080.42" cy="813.5" r="4.5"/>
<circle cx="1082.81" cy="812.196" r="4.5"/>
<circle cx="1085.2" cy="813.5" r="4.5"/>
<circle cx="1087.59" cy="813.103" r="4.5"/>
<circle cx="1089.98" cy="813.5" r="4.5"/>
<circle cx="1092.37" cy="812.527" r="4.5"/>
<circle cx="1094.76" cy="813.5" r="4.5"/>
<circle cx="1097.15" cy="813.09" r="4.5"/>
<circle cx="1099.54" cy="813.5" r="4.5"/>
<circle cx="1101.93" cy="812.527" r="4.5"/>
<circle cx="1104.32" cy="813.5" r="4.5"/>
<circle cx="1106.71" cy="813.223" r="4.5"/>
<circle cx="1109.1" cy="813.5" r="4.5"/>
<circle cx="1111.49" cy="812.767" r="4.5"/>
<circle cx="1113.88" cy="813.5" r="4.5"/>
<circle cx="1116.27" cy="813.268" r="4.5"/>
<circle cx="1118.66" cy="813.5" r="4.5"/>
<circle cx="1121.05" cy="812.759" r="4.5"/>
<circle cx="1123.44" cy="813.5" r="4.5"/>
<circle cx="1125.83" cy="813.289" r="4.5"/>
<circle cx="1128.22" cy="813.5" r="4.5"/>
<circle cx="1130.61" cy="812.759" r="4.5"/>
<circle cx="1133" cy="813.5" r="4.5"/>
<circle cx="1135.39" cy="813.264" r="4.5"/>
<circle cx="1137.78" cy="813.5" r="4.5"/>
<circle cx="1140.17" cy="812.73" r="4.5"/>
<circle cx="1142.56" cy="813.5" r="4.5"/>
<circle cx="1144.95" cy="813.33" r="4.5"/>
<circle cx="1147.34" cy="813.5" r="4.5"/>
<circle cx="1149.73" cy="812.954" r="4.5"/>
<circle cx="1152.12" cy="813.5" r="4.5"/>
<circle cx="1154.51" cy="813.297" r="4.5"/>
<circle cx="1156.9" cy="813.5" r="4.5"/>
<circle cx="1159.29" cy="812.925" r="4.5"/>
<circle cx="1161.68" cy="813.5" r="4.5"/>
<circle cx="1164.07" cy="813.372" r="4.5"/>
<circle cx="1166.46" cy="813.5" r="4.5"/>
<circle cx="1168.85" cy="813.024" r="4.5"/>
<circle cx="1171.24" cy="813.5" r="4.5"/>
<circle cx="1173.63" cy="813.388" r="4.5"/>
<circle cx="1176.02" cy="813.5" r="4.5"/>
<circle cx="1178.41" cy="813.065" r="4.5"/>
<circle cx="1180.8" cy="813.5" r="4.5"/>
<circle cx="1183.19" cy="813.351" r="4.5"/>
<circle cx="1185.58" cy="813.5" r="4.5"/>
<circle cx="1187.97" cy="813.169" r="4.5"/>
<circle cx="1190.36" cy="813.5" r="4.5"/>
<circle cx="1192.75" cy="813.38" r="4.5"/>
<circle cx="1195.14" cy="813.5" r="4.5"/>
<circle cx="1197.53" cy="813.057" r="4.5"/>
<circle cx="1199.92" cy="813.5" r="4.5"/>
<circle cx="1202.31" cy="813.43" r="4.5"/>
<circle cx="1204.7" cy="813.5" r="4.5"/>
<circle cx="1207.09" cy="813.181" r="4.5"/>
<circle cx="1209.48" cy="813.5" r="4.5"/>
<circle cx="1211.87" cy="813.38" r="4.5"/>
<circle cx="1214.26" cy="813.5" r="4.5"/>
<circle cx="1216.65" cy="813.243" r="4.5"/>
<circle cx="1219.04" cy="813.5" r="4.5"/>
<circle cx="1221.43" cy="813.413" r="4.5"/>
<circle cx="1223.82" cy="813.5" r="4.5"/>
<circle cx="1226.21" cy="813.218" r="4.5"/>
<circle cx="1228.6" cy="813.5" r="4.5"/>
<circle cx="1230.99" cy="813.442" r="4.5"/>
<circle cx="1233.38" cy="813.5" r="4.5"/>
<circle cx="1235.77" cy="813.173" r="4.5"/>
<circle cx="1238.16" cy="813.5" r="4.5"/>
<circle cx="1240.55" cy="813.425" r="4.5"/>
<circle cx="1242.94" cy="813.5" r="4.5"/>
<circle cx="1245.33" cy="813.281" r="4.5"/>
<circle cx="1247.72" cy="813.5" r="4.5"/>
<circle cx="1250.11" cy="813.417" r="4.5"/>
<circle cx="1252.5" cy="813.5" r="4.5"/>
</g>
<g fill="red">
<circle cx="298.89" cy="813.5" r="4.5"/>
<circle cx="301.28" cy="813.5" r="4.5"/>
<circle cx="303.67" cy="813.5" r="4.5"/>
<circle cx="306.06" cy="813.5" r="4.5"/>
<circle cx="308.45" cy="813.5" r="4.5"/>
<circle cx="310.84" cy="813.5" r="4.5"/>
<circle cx="313.23" cy="813.5" r="4.5"/>
<circle cx="315.62" cy="813.5" r="4.5"/>
<circle cx="318.01" cy="813.5" r="4.5"/>
<circle cx="320.4" cy="813.5" r="4.5"/>
<circle cx="322.79" cy="813.479" r="4.5"/>
<circle cx="325.18" cy="813.5" r="4.5"/>
<circle cx="327.57" cy="813.442" r="4.5"/>
<circle cx="329.96" cy="813.5" r="4.5"/>
<circle cx="332.35" cy="813.272" r="4.5"/>
<circle cx="334.74" cy="813.5" r="4.5"/>
<circle cx="337.13" cy="812.817" r="4.5"/>
<circle cx="339.52" cy="813.5" r="4.5"/>
<circle cx="341.91" cy="811.827" r="4.5"/>
<circle cx="344.3" cy="813.5" r="4.5"/>
<circle cx="346.69" cy="809.654" r="4.5"/>
<circle cx="349.08" cy="813.5" r="4.5"/>
<circle cx="351.47" cy="805.725" r="4.5"/>
<circle cx="353.86" cy="813.5" r="4.5"/>
<circle cx="356.25" cy="799.523" r="4.5"/>
<circle cx="358.64" cy="813.5" r="4.5"/>
<circle cx="361.03" cy="789.571" r="4.5"/>
<circle cx="363.42" cy="813.5" r="4.5"/>
<circle cx="365.81" cy="775.159" r="4.5"/>
<circle cx="368.2" cy="813.5" r="4.5"/>
<circle cx="370.59" cy="756.327" r="4.5"/>
<circle cx="372.98" cy="813.5" r="4.5"/>
<circle cx="375.37" cy="732.095" r="4.5"/>
<circle cx="377.76" cy="813.5" r="4.5"/>
<circle cx="380.15" cy="706.146" r="4.5"/>
<circle cx="382.54" cy="813.5" r="4.5"/>
<circle cx="384.93" cy="671.192" r="4.5"/>
<circle cx="387.32" cy="813.5" r="4.5"/>
<circle cx="389.71" cy="635.944" r="4.5"/>
<circle cx="392.1" cy="813.5" r="4.5"/>
<circle cx="394.49" cy="601.88" r="4.5"/>
<circle cx="396.88" cy="813.5" r="4.5"/>
<circle cx="399.27" cy="568.205" r="4.5"/>
<circle cx="401.66" cy="813.5" r="4.5"/>
<circle cx="404.05" cy="536.944" r="4.5"/>
<circle cx="406.44" cy="813.5" r="4.5"/>
<circle cx="408.83" cy="505.012" r="4.5"/>
<circle cx="411.22" cy="813.5" r="4.5"/>
<circle cx="413.61" cy="478.334" r="4.5"/>
<circle cx="416" cy="813.5" r="4.5"/>
<circle cx="418.39" cy="457.236" r="4.5"/>
<circle cx="420.78" cy="813.5" r="4.5"/>
<circle cx="423.17" cy="437.282" r="4.5"/>
<circle cx="425.56" cy="813.5" r="4.5"/>
<circle cx="427.95" cy="423.748" r="4.5"/>
<circle cx="430.34" cy="813.5" r="4.5"/>
<circle cx="432.73" cy="420.105" r="4.5"/>
<circle cx="435.12" cy="813.5" r="4.5"/>
<circle cx="437.51" cy="415.269" r="4.5"/>
<circle cx="439.9" cy="813.5" r="4.5"/>
<circle cx="442.29" cy="412.106" r="4.5"/>
<circle cx="444.68" cy="813.5" r="4.5"/>
<circle cx="447.07" cy="421.123" r="4.5"/>
<circle cx="449.46" cy="813.5" r="4.5"/>
<circle cx="451.85" cy="419.297" r="4.5"/>
<circle cx="454.24" cy="813.5" r="4.5"/>
<circle cx="456.63" cy="439.749" r="4.5"/>
<circle cx="459.02" cy="813.5" r="4.5"/>
<circle cx="461.41" cy="438.234" r="4.5"/>
<circle cx="463.8" cy="813.5" r="4.5"/>
<circle cx="466.19" cy="459.65" r="4.5"/>
<circle cx="468.58" cy="813.5" r="4.5"/>
<circle cx="470.97" cy="460.234" r="4.5"/>
<circle cx="473.36" cy="813.5" r="4.5"/>
<circle cx="475.75" cy="492.07" r="4.5"/>
<circle cx="478.14" cy="813.5" r="4.5"/>
<circle cx="480.53" cy="486.738" r="4.5"/>
<circle cx="482.92" cy="813.5" r="4.5"/>
<circle cx="485.31" cy="514.733" r="4.5"/>
<circle cx="487.7" cy="813.5" r="4.5"/>
<circle cx="490.09" cy="513.594" r="4.5"/>
<circle cx="492.48" cy="813.5" r="4.5"/>
<circle cx="494.87" cy="548.499" r="4.5"/>
<circle cx="497.26" cy="813.5" r="4.5"/>
<circle cx="499.65" cy="537.221" r="4.5"/>
<circle cx="502.04" cy="813.5" r="4.5"/>
<circle cx="504.43" cy="568.967" r="4.5"/>
<circle cx="506.82" cy="813.5" r="4.5"/>
<circle cx="509.21" cy="562.426" r="4.5"/>
<circle cx="511.6" cy="813.5" r="4.5"/>
<circle cx="513.99" cy="594.047" r="4.5"/>
<circle cx="516.38" cy="813.5" r="4.5"/>
<circle cx="518.77" cy="576.121" r="4.5"/>
<circle cx="521.16" cy="813.5" r="4.5"/>
<circle cx="523.55" cy="612.329" r="4.5"/>
<circle cx="525.94" cy="813.5" r="4.5"/>
<circle cx="528.33" cy="589.414" r="4.5"/>
<circle cx="530.72" cy="813.5" r="4.5"/>
<circle cx="533.11" cy="631.468" r="4.5"/>
<circle cx="535.5" cy="813.5" r="4.5"/>
<circle cx="537.89" cy="602.228" r="4.5"/>
<circle cx="540.28" cy="813.5" r="4.5"/>
<circle cx="542.67" cy="638.308" r="4.5"/>
<circle cx="545.06" cy="813.5" r="4.5"/>
<circle cx="547.45" cy="612.78" r="4.5"/>
<circle cx="549.84" cy="813.5" r="4.5"/>
<circle cx="552.23" cy="646.343" r="4.5"/>
<circle cx="554.62" cy="813.5" r="4.5"/>
<circle cx="557.01" cy="619.669" r="4.5"/>
<circle cx="559.4" cy="813.5" r="4.5"/>
<circle cx="561.79" cy="658.598" r="4.5"/>
<circle cx="564.18" cy="813.5" r="4.5"/>
<circle cx="566.57" cy="632.226" r="4.5"/>
<circle cx="568.96" cy="813.5" r="4.5"/>
<circle cx="571.35" cy="669.685" r="4.5"/>
<circle cx="573.74" cy="813.5" r="4.5"/>
<circle cx="576.13" cy="637.997" r="4.5"/>
<circle cx="578.52" cy="813.5" r="4.5"/>
<circle cx="580.91" cy="679.459" r="4.5"/>
<circle cx="583.3" cy="813.5" r="4.5"/>
<circle cx="585.69" cy="649.159" r="4.5"/>
<circle cx="588.08" cy="813.5" r="4.5"/>
<circle cx="590.47" cy="689.11" r="4.5"/>
<circle cx="592.86" cy="813.5" r="4.5"/>
<circle cx="595.25" cy="661.827" r="4.5"/>
<circle cx="597.64" cy="813.5" r="4.5"/>
<circle cx="600.03" cy="697.493" r="4.5"/>
<circle cx="602.42" cy="813.5" r="4.5"/>
<circle cx="604.81" cy="671.891" r="4.5"/>
<circle cx="607.2" cy="813.5" r="4.5"/>
<circle cx="609.59" cy="710.956" r="4.5"/>
<circle cx="611.98" cy="813.5" r="4.5"/>
<circle cx="614.37" cy="681.455" r="4.5"/>
<circle cx="616.76" cy="813.5" r="4.5"/>
<circle cx="619.15" cy="719.994" r="4.5"/>
<circle cx="621.54" cy="813.5" r="4.5"/>
<circle cx="623.93" cy="691.9" r="4.5"/>
<circle cx="626.32" cy="813.5" r="4.5"/>
<circle cx="628.71" cy="726.502" r="4.5"/>
<circle cx="631.1" cy="813.5" r="4.5"/>
<circle cx="633.49" cy="704.966" r="4.5"/>
<circle cx="635.88" cy="813.5" r="4.5"/>
<circle cx="638.27" cy="737.067" r="4.5"/>
<circle cx="640.66" cy="813.5" r="4.5"/>
<circle cx="643.05" cy="709.586" r="4.5"/>
<circle cx="645.44" cy="813.5" r="4.5"/>
<circle cx="647.83" cy="743.695" r="4.5"/>
<circle cx="650.22" cy="813.5" r="4.5"/>
<circle cx="652.61" cy="722.292" r="4.5"/>
<circle cx="655" cy="813.5" r="4.5"/>
<circle cx="657.39" cy="749.653" r="4.5"/>
<circle cx="659.78" cy="813.5" r="4.5"/>
<circle cx="662.17" cy="727.413" r="4.5"/>
<circle cx="664.56" cy="813.5" r="4.5"/>
<circle cx="666.95" cy="758.016" r="4.5"/>
<circle cx="669.34" cy="813.5" r="4.5"/>
<circle cx="671.73" cy="734.823" r="4.5"/>
<circle cx="674.12" cy="813.5" r="4.5"/>
<circle cx="676.51" cy="761.907" r="4.5"/>
<circle cx="678.9" cy="813.5" r="4.5"/>
<circle cx="681.29" cy="744.557" r="4.5"/>
<circle cx="683.68" cy="813.5" r="4.5"/>
<circle cx="686.07" cy="768.436" r="4.5"/>
<circle cx="688.46" cy="813.5" r="4.5"/>
<circle cx="690.85" cy="747.07" r="4.5"/>
<circle cx="693.24" cy="813.5" r="4.5"/>
<circle cx="695.63" cy="773.127" r="4.5"/>
<circle cx="698.02" cy="813.5" r="4.5"/>
<circle cx="700.41" cy="753.631" r="4.5"/>
<circle cx="702.8" cy="813.5" r="4.5"/>
<circle cx="705.19" cy="776.041" r="4.5"/>
<circle cx="707.58" cy="813.5" r="4.5"/>
<circle cx="709.97" cy="760.367" r="4.5"/>
<circle cx="712.36" cy="813.5" r="4.5"/>
<circle cx="714.75" cy="781.005" r="4.5"/>
<circle cx="717.14" cy="813.5" r="4.5"/>
<circle cx="719.53" cy="760.876" r="4.5"/>
<circle cx="721.92" cy="813.5" r="4.5"/>
<circle cx="724.31" cy="783.332" r="4.5"/>
<circle cx="726.7" cy="813.5" r="4.5"/>
<circle cx="729.09" cy="769.082" r="4.5"/>
<circle cx="731.48" cy="813.5" r="4.5"/>
<circle cx="733.87" cy="786.88" r="4.5"/>
<circle cx="736.26" cy="813.5" r="4.5"/>
<circle cx="738.65" cy="768.767" r="4.5"/>
<circle cx="741.04" cy="813.5" r="4.5"/>
<circle cx="743.43" cy="789.728" r="4.5"/>
<circle cx="745.82" cy="813.5" r="4.5"/>
<circle cx="748.21" cy="775.222" r="4.5"/>
<circle cx="750.6" cy="813.5" r="4.5"/>
<circle cx="752.99" cy="789.935" r="4.5"/>
<circle cx="755.38" cy="813.5" r="4.5"/>
<circle cx="757.77" cy="777.263" r="4.5"/>
<circle cx="760.16" cy="813.5" r="4.5"/>
<circle cx="762.55" cy="793.284" r="4.5"/>
<circle cx="764.94" cy="813.5" r="4.5"/>
<circle cx="767.33" cy="778.409" r="4.5"/>
<circle cx="769.72" cy="813.5" r="4.5"/>
<circle cx="772.11" cy="794.398" r="4.5"/>
<circle cx="774.5" cy="813.5" r="4.5"/>
<circle cx="776.89" cy="781.063" r="4.5"/>
<circle cx="779.28" cy="813.5" r="4.5"/>
<circle cx="781.67" cy="795.975" r="4.5"/>
<circle cx="784.06" cy="813.5" r="4.5"/>
<circle cx="786.45" cy="783.514" r="4.5"/>
<circle cx="788.84" cy="813.5" r="4.5"/>
<circle cx="791.23" cy="797.714" r="4.5"/>
<circle cx="793.62" cy="813.5" r="4.5"/>
<circle cx="796.01" cy="784.64" r="4.5"/>
<circle cx="798.4" cy="813.5" r="4.5"/>
<circle cx="800.79" cy="798.211" r="4.5"/>
<circle cx="803.18" cy="813.5" r="4.5"/>
<circle cx="805.57" cy="788.308" r="4.5"/>
<circle cx="807.96" cy="813.5" r="4.5"/>
<circle cx="810.35" cy="799.118" r="4.5"/>
<circle cx="812.74" cy="813.5" r="4.5"/>
<circle cx="815.13" cy="787.791" r="4.5"/>
<circle cx="817.52" cy="813.5" r="4.5"/>
<circle cx="819.91" cy="800.939" r="4.5"/>
<circle cx="822.3" cy="813.5" r="4.5"/>
<circle cx="824.69" cy="790.589" r="4.5"/>
<circle cx="827.08" cy="813.5" r="4.5"/>
<circle cx="829.47" cy="801.589" r="4.5"/>
<circle cx="831.86" cy="813.5" r="4.5"/>
<circle cx="834.25" cy="791.914" r="4.5"/>
<circle cx="836.64" cy="813.5" r="4.5"/>
<circle cx="839.03" cy="802.715" r="4.5"/>
<circle cx="841.42" cy="813.5" r="4.5"/>
<circle cx="843.81" cy="793.587" r="4.5"/>
<circle cx="846.2" cy="813.5" r="4.5"/>
<circle cx="848.59" cy="803.523" r="4.5"/>
<circle cx="850.98" cy="813.5" r="4.5"/>
<circle cx="853.37" cy="794.009" r="4.5"/>
<circle cx="855.76" cy="813.5" r="4.5"/>
<circle cx="858.15" cy="804.33" r="4.5"/>
<circle cx="860.54" cy="813.5" r="4.5"/>
<circle cx="862.93" cy="796.857" r="4.5"/>
<circle cx="865.32" cy="813.5" r="4.5"/>
<circle cx="867.71" cy="804.98" r="4.5"/>
<circle cx="870.1" cy="813.5" r="4.5"/>
<circle cx="872.49" cy="797.184" r="4.5"/>
<circle cx="874.88" cy="813.5" r="4.5"/>
<circle cx="877.27" cy="806.218" r="4.5"/>
<circle cx="879.66" cy="813.5" r="4.5"/>
<circle cx="882.05" cy="798.989" r="4.5"/>
<circle cx="884.44" cy="813.5" r="4.5"/>
<circle cx="886.83" cy="806.702" r="4.5"/>
<circle cx="889.22" cy="813.5" r="4.5"/>
<circle cx="891.61" cy="799.457" r="4.5"/>
<circle cx="894" cy="813.5" r="4.5"/>
<circle cx="896.39" cy="807.497" r="4.5"/>
<circle cx="898.78" cy="813.5" r="4.5"/>
<circle cx="901.17" cy="801.366" r="4.5"/>
<circle cx="903.56" cy="813.5" r="4.5"/>
<circle cx="905.95" cy="807.729" r="4.5"/>
<circle cx="908.34" cy="813.5" r="4.5"/>
<circle cx="910.73" cy="801.581" r="4.5"/>
<circle cx="913.12" cy="813.5" r="4.5"/>
<circle cx="915.51" cy="808.495" r="4.5"/>
<circle cx="917.9" cy="813.5" r="4.5"/>
<circle cx="920.29" cy="803.067" r="4.5"/>
<circle cx="922.68" cy="813.5" r="4.5"/>
<circle cx="925.07" cy="809.145" r="4.5"/>
<circle cx="927.46" cy="813.5" r="4.5"/>
<circle cx="929.85" cy="803.485" r="4.5"/>
<circle cx="932.24" cy="813.5" r="4.5"/>
<circle cx="934.63" cy="809.435" r="4.5"/>
<circle cx="937.02" cy="813.5" r="4.5"/>
<circle cx="939.41" cy="805.05" r="4.5"/>
<circle cx="941.8" cy="813.5" r="4.5"/>
<circle cx="944.19" cy="809.629" r="4.5"/>
<circle cx="946.58" cy="813.5" r="4.5"/>
<circle cx="948.97" cy="805.025" r="4.5"/>
<circle cx="951.36" cy="813.5" r="4.5"/>
<circle cx="953.75" cy="810.449" r="4.5"/>
<circle cx="956.14" cy="813.5" r="4.5"/>
<circle cx="958.53" cy="806.516" r="4.5"/>
<circle cx="960.92" cy="813.5" r="4.5"/>
<circle cx="963.31" cy="810.515" r="4.5"/>
<circle cx="965.7" cy="813.5" r="4.5"/>
<circle cx="968.09" cy="806.913" r="4.5"/>
<circle cx="970.48" cy="813.5" r="4.5"/>
<circle cx="972.87" cy="811.086" r="4.5"/>
<circle cx="975.26" cy="813.5" r="4.5"/>
<circle cx="977.65" cy="807.522" r="4.5"/>
<circle cx="980.04" cy="813.5" r="4.5"/>
<circle cx="982.43" cy="811.177" r="4.5"/>
<circle cx="984.82" cy="813.5" r="4.5"/>
<circle cx="987.21" cy="807.886" r="4.5"/>
<circle cx="989.6" cy="813.5" r="4.5"/>
<circle cx="991.99" cy="811.476" r="4.5"/>
<circle cx="994.38" cy="813.5" r="4.5"/>
<circle cx="996.77" cy="808.809" r="4.5"/>
<circle cx="999.16" cy="813.5" r="4.5"/>
<circle cx="1001.55" cy="811.683" r="4.5"/>
<circle cx="1003.94" cy="813.5" r="4.5"/>
<circle cx="1006.33" cy="808.809" r="4.5"/>
<circle cx="1008.72" cy="813.5" r="4.5"/>
<circle cx="1011.11" cy="811.894" r="4.5"/>
<circle cx="1013.5" cy="813.5" r="4.5"/>
<circle cx="1015.89" cy="809.894" r="4.5"/>
<circle cx="1018.28" cy="813.5" r="4.5"/>
<circle cx="1020.67" cy="812.014" r="4.5"/>
<circle cx="1023.06" cy="813.5" r="4.5"/>
<circle cx="1025.45" cy="809.849" r="4.5"/>
<circle cx="1027.84" cy="813.5" r="4.5"/>
<circle cx="1030.23" cy="812.312" r="4.5"/>
<circle cx="1032.62" cy="813.5" r="4.5"/>
<circle cx="1035.01" cy="810.42" r="4.5"/>
<circle cx="1037.4" cy="813.5" r="4.5"/>
<circle cx="1039.79" cy="812.328" r="4.5"/>
<circle cx="1042.18" cy="813.5" r="4.5"/>
<circle cx="1044.57" cy="810.465" r="4.5"/>
<circle cx="1046.96" cy="813.5" r="4.5"/>
<circle cx="1049.35" cy="812.581" r="4.5"/>
<circle cx="1051.74" cy="813.5" r="4.5"/>
<circle cx="1054.13" cy="811.037" r="4.5"/>
<circle cx="1056.52" cy="813.5" r="4.5"/>
<circle cx="1058.91" cy="812.544" r="4.5"/>
<circle cx="1061.3" cy="813.5" r="4.5"/>
<circle cx="1063.69" cy="811.136" r="4.5"/>
<circle cx="1066.08" cy="813.5" r="4.5"/>
<circle cx="1068.47" cy="812.66" r="4.5"/>
<circle cx="1070.86" cy="813.5" r="4.5"/>
<circle cx="1073.25" cy="811.641" r="4.5"/>
<circle cx="1075.64" cy="813.5" r="4.5"/>
<circle cx="1078.03" cy="812.751" r="4.5"/>
<circle cx="1080.42" cy="813.5" r="4.5"/>
<circle cx="1082.81" cy="811.467" r="4.5"/>
<circle cx="1085.2" cy="813.5" r="4.5"/>
<circle cx="1087.59" cy="812.887" r="4.5"/>
<circle cx="1089.98" cy="813.5" r="4.5"/>
<circle cx="1092.37" cy="811.79" r="4.5"/>
<circle cx="1094.76" cy="813.5" r="4.5"/>
<circle cx="1097.15" cy="812.817" r="4.5"/>
<circle cx="1099.54" cy="813.5" r="4.5"/>
<circle cx="1101.93" cy="811.943" r="4.5"/>
<circle cx="1104.32" cy="813.5" r="4.5"/>
<circle cx="1106.71" cy="812.962" r="4.5"/>
<circle cx="1109.1" cy="813.5" r="4.5"/>
<circle cx="1111.49" cy="812.072" r="4.5"/>
<circle cx="1113.88" cy="813.5" r="4.5"/>
<circle cx="1116.27" cy="813.082" r="4.5"/>
<circle cx="1118.66" cy="813.5" r="4.5"/>
<circle cx="1121.05" cy="811.972" r="4.5"/>
<circle cx="1123.44" cy="813.5" r="4.5"/>
<circle cx="1125.83" cy="813.032" r="4.5"/>
<circle cx="1128.22" cy="813.5" r="4.5"/>
<circle cx="1130.61" cy="812.299" r="4.5"/>
<circle cx="1133" cy="813.5" r="4.5"/>
<circle cx="1135.39" cy="813.016" r="4.5"/>
<circle cx="1137.78" cy="813.5" r="4.5"/>
<circle cx="1140.17" cy="812.258" r="4.5"/>
<circle cx="1142.56" cy="813.5" r="4.5"/>
<circle cx="1144.95" cy="813.173" r="4.5"/>
<circle cx="1147.34" cy="813.5" r="4.5"/>
<circle cx="1149.73" cy="812.54" r="4.5"/>
<circle cx="1152.12" cy="813.5" r="4.5"/>
<circle cx="1154.51" cy="813.136" r="4.5"/>
<circle cx="1156.9" cy="813.5" r="4.5"/>
<circle cx="1159.29" cy="812.473" r="4.5"/>
<circle cx="1161.68" cy="813.5" r="4.5"/>
<circle cx="1164.07" cy="813.127" r="4.5"/>
<circle cx="1166.46" cy="813.5" r="4.5"/>
<circle cx="1168.85" cy="812.568" r="4.5"/>
<circle cx="1171.24" cy="813.5" r="4.5"/>
<circle cx="1173.63" cy="813.181" r="4.5"/>
<circle cx="1176.02" cy="813.5" r="4.5"/>
<circle cx="1178.41" cy="812.568" r="4.5"/>
<circle cx="1180.8" cy="813.5" r="4.5"/>
<circle cx="1183.19" cy="813.177" r="4.5"/>
<circle cx="1185.58" cy="813.5" r="4.5"/>
<circle cx="1187.97" cy="812.775" r="4.5"/>
<circle cx="1190.36" cy="813.5" r="4.5"/>
<circle cx="1192.75" cy="813.198" r="4.5"/>
<circle cx="1195.14" cy="813.5" r="4.5"/>
<circle cx="1197.53" cy="812.66" r="4.5"/>
<circle cx="1199.92" cy="813.5" r="4.5"/>
<circle cx="1202.31" cy="813.252" r="4.5"/>
<circle cx="1204.7" cy="813.5" r="4.5"/>
<circle cx="1207.09" cy="812.751" r="4.5"/>
<circle cx="1209.48" cy="813.5" r="4.5"/>
<circle cx="1211.87" cy="813.231" r="4.5"/>
<circle cx="1214.26" cy="813.5" r="4.5"/>
<circle cx="1216.65" cy="812.842" r="4.5"/>
<circle cx="1219.04" cy="813.5" r="4.5"/>
<circle cx="1221.43" cy="813.272" r="4.5"/>
<circle cx="1223.82" cy="813.5" r="4.5"/>
<circle cx="1226.21" cy="812.871" r="4.5"/>
<circle cx="1228.6" cy="813.5" r="4.5"/>
<circle cx="1230.99" cy="813.289" r="4.5"/>
<circle cx="1233.38" cy="813.5" r="4.5"/>
<circle cx="1235.77" cy="812.804" r="4.5"/>
<circle cx="1238.16" cy="813.5" r="4.5"/>
<circle cx="1240.55" cy="813.314" r="4.5"/>
<circle cx="1242.94" cy="813.5" r="4.5"/>
<circle cx="1245.33" cy="812.978" r="4.5"/>
<circle cx="1247.72" cy="813.5" r="4.5"/>
<circle cx="1250.11" cy="813.322" r="4.5"/>
<circle cx="1252.5" cy="813.5" r="4.5"/>
</g>
<g fill="#400080">
<circle cx="298.89" cy="813.5" r="4.5"/>
<circle cx="301.28" cy="813.5" r="4.5"/>
<circle cx="303.67" cy="813.5" r="4.5"/>
<circle cx="306.06" cy="813.5" r="4.5"/>
<circle cx="308.45" cy="813.5" r="4.5"/>
<circle cx="310.84" cy="813.5" r="4.5"/>
<circle cx="313.23" cy="813.5" r="4.5"/>
<circle cx="315.62" cy="813.5" r="4.5"/>
<circle cx="318.01" cy="813.496" r="4.5"/>
<circle cx="320.4" cy="813.5" r="4.5"/>
<circle cx="322.79" cy="813.479" r="4.5"/>
<circle cx="325.18" cy="813.5" r="4.5"/>
<circle cx="327.57" cy="813.421" r="4.5"/>
<circle cx="329.96" cy="813.5" r="4.5"/>
<circle cx="332.35" cy="813.297" r="4.5"/>
<circle cx="334.74" cy="813.5" r="4.5"/>
<circle cx="337.13" cy="812.742" r="4.5"/>
<circle cx="339.52" cy="813.5" r="4.5"/>
<circle cx="341.91" cy="811.778" r="4.5"/>
<circle cx="344.3" cy="813.5" r="4.5"/>
<circle cx="346.69" cy="809.654" r="4.5"/>
<circle cx="349.08" cy="813.5" r="4.5"/>
<circle cx="351.47" cy="804.897" r="4.5"/>
<circle cx="353.86" cy="813.5" r="4.5"/>
<circle cx="356.25" cy="797.3" r="4.5"/>
<circle cx="358.64" cy="813.5" r="4.5"/>
<circle cx="361.03" cy="785.245" r="4.5"/>
<circle cx="363.42" cy="813.5" r="4.5"/>
<circle cx="365.81" cy="768.817" r="4.5"/>
<circle cx="368.2" cy="813.5" r="4.5"/>
<circle cx="370.59" cy="743.832" r="4.5"/>
<circle cx="372.98" cy="813.5" r="4.5"/>
<circle cx="375.37" cy="713.701" r="4.5"/>
<circle cx="377.76" cy="813.5" r="4.5"/>
<circle cx="380.15" cy="678.292" r="4.5"/>
<circle cx="382.54" cy="813.5" r="4.5"/>
<circle cx="384.93" cy="633.489" r="4.5"/>
<circle cx="387.32" cy="813.5" r="4.5"/>
<circle cx="389.71" cy="592.304" r="4.5"/>
<circle cx="392.1" cy="813.5" r="4.5"/>
<circle cx="394.49" cy="538.534" r="4.5"/>
<circle cx="396.88" cy="813.5" r="4.5"/>
<circle cx="399.27" cy="489.69" r="4.5"/>
<circle cx="401.66" cy="813.5" r="4.5"/>
<circle cx="404.05" cy="438.043" r="4.5"/>
<circle cx="406.44" cy="813.5" r="4.5"/>
<circle cx="408.83" cy="390.135" r="4.5"/>
<circle cx="411.22" cy="813.5" r="4.5"/>
<circle cx="413.61" cy="356.485" r="4.5"/>
<circle cx="416" cy="813.5" r="4.5"/>
<circle cx="418.39" cy="319.478" r="4.5"/>
<circle cx="420.78" cy="813.5" r="4.5"/>
<circle cx="423.17" cy="292.667" r="4.5"/>
<circle cx="425.56" cy="813.5" r="4.5"/>
<circle cx="427.95" cy="276.654" r="4.5"/>
<circle cx="430.34" cy="813.5" r="4.5"/>
<circle cx="432.73" cy="261.137" r="4.5"/>
<circle cx="435.12" cy="813.5" r="4.5"/>
<circle cx="437.51" cy="257.887" r="4.5"/>
<circle cx="439.9" cy="813.5" r="4.5"/>
<circle cx="442.29" cy="246.962" r="4.5"/>
<circle cx="444.68" cy="813.5" r="4.5"/>
<circle cx="447.07" cy="256.637" r="4.5"/>
<circle cx="449.46" cy="813.5" r="4.5"/>
<circle cx="451.85" cy="260.379" r="4.5"/>
<circle cx="454.24" cy="813.5" r="4.5"/>
<circle cx="456.63" cy="278.049" r="4.5"/>
<circle cx="459.02" cy="813.5" r="4.5"/>
<circle cx="461.41" cy="279.399" r="4.5"/>
<circle cx="463.8" cy="813.5" r="4.5"/>
<circle cx="466.19" cy="304.752" r="4.5"/>
<circle cx="468.58" cy="813.5" r="4.5"/>
<circle cx="470.97" cy="314.932" r="4.5"/>
<circle cx="473.36" cy="813.5" r="4.5"/>
<circle cx="475.75" cy="346.798" r="4.5"/>
<circle cx="478.14" cy="813.5" r="4.5"/>
<circle cx="480.53" cy="344.169" r="4.5"/>
<circle cx="482.92" cy="813.5" r="4.5"/>
<circle cx="485.31" cy="391.638" r="4.5"/>
<circle cx="487.7" cy="813.5" r="4.5"/>
<circle cx="490.09" cy="380.866" r="4.5"/>
<circle cx="492.48" cy="813.5" r="4.5"/>
<circle cx="494.87" cy="426.004" r="4.5"/>
<circle cx="497.26" cy="813.5" r="4.5"/>
<circle cx="499.65" cy="420.879" r="4.5"/>
<circle cx="502.04" cy="813.5" r="4.5"/>
<circle cx="504.43" cy="456.843" r="4.5"/>
<circle cx="506.82" cy="813.5" r="4.5"/>
<circle cx="509.21" cy="450.687" r="4.5"/>
<circle cx="511.6" cy="813.5" r="4.5"/>
<circle cx="513.99" cy="489.056" r="4.5"/>
<circle cx="516.38" cy="813.5" r="4.5"/>
<circle cx="518.77" cy="465.413" r="4.5"/>
<circle cx="521.16" cy="813.5" r="4.5"/>
<circle cx="523.55" cy="522.603" r="4.5"/>
<circle cx="525.94" cy="813.5" r="4.5"/>
<circle cx="528.33" cy="482.776" r="4.5"/>
<circle cx="530.72" cy="813.5" r="4.5"/>
<circle cx="533.11" cy="538.881" r="4.5"/>
<circle cx="535.5" cy="813.5" r="4.5"/>
<circle cx="537.89" cy="501.572" r="4.5"/>
<circle cx="540.28" cy="813.5" r="4.5"/>
<circle cx="542.67" cy="559.221" r="4.5"/>
<circle cx="545.06" cy="813.5" r="4.5"/>
<circle cx="547.45" cy="525.472" r="4.5"/>
<circle cx="549.84" cy="813.5" r="4.5"/>
<circle cx="552.23" cy="568.122" r="4.5"/>
<circle cx="554.62" cy="813.5" r="4.5"/>
<circle cx="557.01" cy="534.837" r="4.5"/>
<circle cx="559.4" cy="813.5" r="4.5"/>
<circle cx="561.79" cy="588.089" r="4.5"/>
<circle cx="564.18" cy="813.5" r="4.5"/>
<circle cx="566.57" cy="548.685" r="4.5"/>
<circle cx="568.96" cy="813.5" r="4.5"/>
<circle cx="571.35" cy="607.162" r="4.5"/>
<circle cx="573.74" cy="813.5" r="4.5"/>
<circle cx="576.13" cy="561.37" r="4.5"/>
<circle cx="578.52" cy="813.5" r="4.5"/>
<circle cx="580.91" cy="613.65" r="4.5"/>
<circle cx="583.3" cy="813.5" r="4.5"/>
<circle cx="585.69" cy="577.226" r="4.5"/>
<circle cx="588.08" cy="813.5" r="4.5"/>
<circle cx="590.47" cy="631.336" r="4.5"/>
<circle cx="592.86" cy="813.5" r="4.5"/>
<circle cx="595.25" cy="587.874" r="4.5"/>
<circle cx="597.64" cy="813.5" r="4.5"/>
<circle cx="600.03" cy="645.466" r="4.5"/>
<circle cx="602.42" cy="813.5" r="4.5"/>
<circle cx="604.81" cy="605.03" r="4.5"/>
<circle cx="607.2" cy="813.5" r="4.5"/>
<circle cx="609.59" cy="656.888" r="4.5"/>
<circle cx="611.98" cy="813.5" r="4.5"/>
<circle cx="614.37" cy="620.133" r="4.5"/>
<circle cx="616.76" cy="813.5" r="4.5"/>
<circle cx="619.15" cy="672.309" r="4.5"/>
<circle cx="621.54" cy="813.5" r="4.5"/>
<circle cx="623.93" cy="632.044" r="4.5"/>
<circle cx="626.32" cy="813.5" r="4.5"/>
<circle cx="628.71" cy="686.282" r="4.5"/>
<circle cx="631.1" cy="813.5" r="4.5"/>
<circle cx="633.49" cy="648.608" r="4.5"/>
<circle cx="635.88" cy="813.5" r="4.5"/>
<circle cx="638.27" cy="697.617" r="4.5"/>
<circle cx="640.66" cy="813.5" r="4.5"/>
<circle cx="643.05" cy="661.152" r="4.5"/>
<circle cx="645.44" cy="813.5" r="4.5"/>
<circle cx="647.83" cy="707.976" r="4.5"/>
<circle cx="650.22" cy="813.5" r="4.5"/>
<circle cx="652.61" cy="676.412" r="4.5"/>
<circle cx="655" cy="813.5" r="4.5"/>
<circle cx="657.39" cy="720.362" r="4.5"/>
<circle cx="659.78" cy="813.5" r="4.5"/>
<circle cx="662.17" cy="685.636" r="4.5"/>
<circle cx="664.56" cy="813.5" r="4.5"/>
<circle cx="666.95" cy="731.271" r="4.5"/>
<circle cx="669.34" cy="813.5" r="4.5"/>
<circle cx="671.73" cy="698.954" r="4.5"/>
<circle cx="674.12" cy="813.5" r="4.5"/>
<circle cx="676.51" cy="738.471" r="4.5"/>
<circle cx="678.9" cy="813.5" r="4.5"/>
<circle cx="681.29" cy="710.733" r="4.5"/>
<circle cx="683.68" cy="813.5" r="4.5"/>
<circle cx="686.07" cy="746.25" r="4.5"/>
<circle cx="688.46" cy="813.5" r="4.5"/>
<circle cx="690.85" cy="718.052" r="4.5"/>
<circle cx="693.24" cy="813.5" r="4.5"/>
<circle cx="695.63" cy="753.578" r="4.5"/>
<circle cx="698.02" cy="813.5" r="4.5"/>
<circle cx="700.41" cy="725.301" r="4.5"/>
<circle cx="702.8" cy="813.5" r="4.5"/>
<circle cx="705.19" cy="759.879" r="4.5"/>
<circle cx="707.58" cy="813.5" r="4.5"/>
<circle cx="709.97" cy="736.558" r="4.5"/>
<circle cx="712.36" cy="813.5" r="4.5"/>
<circle cx="714.75" cy="764.569" r="4.5"/>
<circle cx="717.14" cy="813.5" r="4.5"/>
<circle cx="719.53" cy="738.396" r="4.5"/>
<circle cx="721.92" cy="813.5" r="4.5"/>
<circle cx="724.31" cy="768.511" r="4.5"/>
<circle cx="726.7" cy="813.5" r="4.5"/>
<circle cx="729.09" cy="747.682" r="4.5"/>
<circle cx="731.48" cy="813.5" r="4.5"/>
<circle cx="733.87" cy="773.056" r="4.5"/>
<circle cx="736.26" cy="813.5" r="4.5"/>
<circle cx="738.65" cy="749.872" r="4.5"/>
<circle cx="741.04" cy="813.5" r="4.5"/>
<circle cx="743.43" cy="775.863" r="4.5"/>
<circle cx="745.82" cy="813.5" r="4.5"/>
<circle cx="748.21" cy="756.19" r="4.5"/>
<circle cx="750.6" cy="813.5" r="4.5"/>
<circle cx="752.99" cy="778.103" r="4.5"/>
<circle cx="755.38" cy="813.5" r="4.5"/>
<circle cx="757.77" cy="758.972" r="4.5"/>
<circle cx="760.16" cy="813.5" r="4.5"/>
<circle cx="762.55" cy="782.061" r="4.5"/>
<circle cx="764.94" cy="813.5" r="4.5"/>
<circle cx="767.33" cy="762.015" r="4.5"/>
<circle cx="769.72" cy="813.5" r="4.5"/>
<circle cx="772.11" cy="783.423" r="4.5"/>
<circle cx="774.5" cy="813.5" r="4.5"/>
<circle cx="776.89" cy="764.636" r="4.5"/>
<circle cx="779.28" cy="813.5" r="4.5"/>
<circle cx="781.67" cy="785.824" r="4.5"/>
<circle cx="784.06" cy="813.5" r="4.5"/>
<circle cx="786.45" cy="768.531" r="4.5"/>
<circle cx="788.84" cy="813.5" r="4.5"/>
<circle cx="791.23" cy="787.348" r="4.5"/>
<circle cx="793.62" cy="813.5" r="4.5"/>
<circle cx="796.01" cy="769.645" r="4.5"/>
<circle cx="798.4" cy="813.5" r="4.5"/>
<circle cx="800.79" cy="789.31" r="4.5"/>
<circle cx="803.18" cy="813.5" r="4.5"/>
<circle cx="805.57" cy="774.249" r="4.5"/>
<circle cx="807.96" cy="813.5" r="4.5"/>
<circle cx="810.35" cy="792.349" r="4.5"/>
<circle cx="812.74" cy="813.5" r="4.5"/>
<circle cx="815.13" cy="774.195" r="4.5"/>
<circle cx="817.52" cy="813.5" r="4.5"/>
<circle cx="819.91" cy="793.351" r="4.5"/>
<circle cx="822.3" cy="813.5" r="4.5"/>
<circle cx="824.69" cy="779.374" r="4.5"/>
<circle cx="827.08" cy="813.5" r="4.5"/>
<circle cx="829.47" cy="794.133" r="4.5"/>
<circle cx="831.86" cy="813.5" r="4.5"/>
<circle cx="834.25" cy="779.925" r="4.5"/>
<circle cx="836.64" cy="813.5" r="4.5"/>
<circle cx="839.03" cy="797.027" r="4.5"/>
<circle cx="841.42" cy="813.5" r="4.5"/>
<circle cx="843.81" cy="782.562" r="4.5"/>
<circle cx="846.2" cy="813.5" r="4.5"/>
<circle cx="848.59" cy="797.35" r="4.5"/>
<circle cx="850.98" cy="813.5" r="4.5"/>
<circle cx="853.37" cy="784.988" r="4.5"/>
<circle cx="855.76" cy="813.5" r="4.5"/>
<circle cx="858.15" cy="799.097" r="4.5"/>
<circle cx="860.54" cy="813.5" r="4.5"/>
<circle cx="862.93" cy="787.476" r="4.5"/>
<circle cx="865.32" cy="813.5" r="4.5"/>
<circle cx="867.71" cy="800.902" r="4.5"/>
<circle cx="870.1" cy="813.5" r="4.5"/>
<circle cx="872.49" cy="788.246" r="4.5"/>
<circle cx="874.88" cy="813.5" r="4.5"/>
<circle cx="877.27" cy="801.494" r="4.5"/>
<circle cx="879.66" cy="813.5" r="4.5"/>
<circle cx="882.05" cy="791.682" r="4.5"/>
<circle cx="884.44" cy="813.5" r="4.5"/>
<circle cx="886.83" cy="802.599" r="4.5"/>
<circle cx="889.22" cy="813.5" r="4.5"/>
<circle cx="891.61" cy="791.351" r="4.5"/>
<circle cx="894" cy="813.5" r="4.5"/>
<circle cx="896.39" cy="804.019" r="4.5"/>
<circle cx="898.78" cy="813.5" r="4.5"/>
<circle cx="901.17" cy="794.555" r="4.5"/>
<circle cx="903.56" cy="813.5" r="4.5"/>
<circle cx="905.95" cy="804.293" r="4.5"/>
<circle cx="908.34" cy="813.5" r="4.5"/>
<circle cx="910.73" cy="795.566" r="4.5"/>
<circle cx="913.12" cy="813.5" r="4.5"/>
<circle cx="915.51" cy="805.671" r="4.5"/>
<circle cx="917.9" cy="813.5" r="4.5"/>
<circle cx="920.29" cy="797.333" r="4.5"/>
<circle cx="922.68" cy="813.5" r="4.5"/>
<circle cx="925.07" cy="806.172" r="4.5"/>
<circle cx="927.46" cy="813.5" r="4.5"/>
<circle cx="929.85" cy="798.265" r="4.5"/>
<circle cx="932.24" cy="813.5" r="4.5"/>
<circle cx="934.63" cy="806.665" r="4.5"/>
<circle cx="937.02" cy="813.5" r="4.5"/>
<circle cx="939.41" cy="800.248" r="4.5"/>
<circle cx="941.8" cy="813.5" r="4.5"/>
<circle cx="944.19" cy="807.265" r="4.5"/>
<circle cx="946.58" cy="813.5" r="4.5"/>
<circle cx="948.97" cy="800.153" r="4.5"/>
<circle cx="951.36" cy="813.5" r="4.5"/>
<circle cx="953.75" cy="808.151" r="4.5"/>
<circle cx="956.14" cy="813.5" r="4.5"/>
<circle cx="958.53" cy="802.293" r="4.5"/>
<circle cx="960.92" cy="813.5" r="4.5"/>
<circle cx="963.31" cy="808.101" r="4.5"/>
<circle cx="965.7" cy="813.5" r="4.5"/>
<circle cx="968.09" cy="802.347" r="4.5"/>
<circle cx="970.48" cy="813.5" r="4.5"/>
<circle cx="972.87" cy="808.76" r="4.5"/>
<circle cx="975.26" cy="813.5" r="4.5"/>
<circle cx="977.65" cy="803.523" r="4.5"/>
<circle cx="980.04" cy="813.5" r="4.5"/>
<circle cx="982.43" cy="809.319" r="4.5"/>
<circle cx="984.82" cy="813.5" r="4.5"/>
<circle cx="987.21" cy="804.09" r="4.5"/>
<circle cx="989.6" cy="813.5" r="4.5"/>
<circle cx="991.99" cy="809.72" r="4.5"/>
<circle cx="994.38" cy="813.5" r="4.5"/>
<circle cx="996.77" cy="805.266" r="4.5"/>
<circle cx="999.16" cy="813.5" r="4.5"/>
<circle cx="1001.55" cy="810.002" r="4.5"/>
<circle cx="1003.94" cy="813.5" r="4.5"/>
<circle cx="1006.33" cy="804.976" r="4.5"/>
<circle cx="1008.72" cy="813.5" r="4.5"/>
<circle cx="1011.11" cy="810.602" r="4.5"/>
<circle cx="1013.5" cy="813.5" r="4.5"/>
<circle cx="1015.89" cy="806.876" r="4.5"/>
<circle cx="1018.28" cy="813.5" r="4.5"/>
<circle cx="1020.67" cy="810.412" r="4.5"/>
<circle cx="1023.06" cy="813.5" r="4.5"/>
<circle cx="1025.45" cy="807.025" r="4.5"/>
<circle cx="1027.84" cy="813.5" r="4.5"/>
<circle cx="1030.23" cy="810.892" r="4.5"/>
<circle cx="1032.62" cy="813.5" r="4.5"/>
<circle cx="1035.01" cy="807.53" r="4.5"/>
<circle cx="1037.4" cy="813.5" r="4.5"/>
<circle cx="1039.79" cy="811.293" r="4.5"/>
<circle cx="1042.18" cy="813.5" r="4.5"/>
<circle cx="1044.57" cy="807.584" r="4.5"/>
<circle cx="1046.96" cy="813.5" r="4.5"/>
<circle cx="1049.35" cy="811.327" r="4.5"/>
<circle cx="1051.74" cy="813.5" r="4.5"/>
<circle cx="1054.13" cy="808.756" r="4.5"/>
<circle cx="1056.52" cy="813.5" r="4.5"/>
<circle cx="1058.91" cy="811.26" r="4.5"/>
<circle cx="1061.3" cy="813.5" r="4.5"/>
<circle cx="1063.69" cy="808.826" r="4.5"/>
<circle cx="1066.08" cy="813.5" r="4.5"/>
<circle cx="1068.47" cy="811.815" r="4.5"/>
<circle cx="1070.86" cy="813.5" r="4.5"/>
<circle cx="1073.25" cy="809.327" r="4.5"/>
<circle cx="1075.64" cy="813.5" r="4.5"/>
<circle cx="1078.03" cy="812.051" r="4.5"/>
<circle cx="1080.42" cy="813.5" r="4.5"/>
<circle cx="1082.81" cy="809.521" r="4.5"/>
<circle cx="1085.2" cy="813.5" r="4.5"/>
<circle cx="1087.59" cy="812.15" r="4.5"/>
<circle cx="1089.98" cy="813.5" r="4.5"/>
<circle cx="1092.37" cy="809.985" r="4.5"/>
<circle cx="1094.76" cy="813.5" r="4.5"/>
<circle cx="1097.15" cy="812.175" r="4.5"/>
<circle cx="1099.54" cy="813.5" r="4.5"/>
<circle cx="1101.93" cy="809.791" r="4.5"/>
<circle cx="1104.32" cy="813.5" r="4.5"/>
<circle cx="1106.71" cy="812.477" r="4.5"/>
<circle cx="1109.1" cy="813.5" r="4.5"/>
<circle cx="1111.49" cy="810.61" r="4.5"/>
<circle cx="1113.88" cy="813.5" r="4.5"/>
<circle cx="1116.27" cy="812.527" r="4.5"/>
<circle cx="1118.66" cy="813.5" r="4.5"/>
<circle cx="1121.05" cy="810.648" r="4.5"/>
<circle cx="1123.44" cy="813.5" r="4.5"/>
<circle cx="1125.83" cy="812.722" r="4.5"/>
<circle cx="1128.22" cy="813.5" r="4.5"/>
<circle cx="1130.61" cy="811.016" r="4.5"/>
<circle cx="1133" cy="813.5" r="4.5"/>
<circle cx="1135.39" cy="812.771" r="4.5"/>
<circle cx="1137.78" cy="813.5" r="4.5"/>
<circle cx="1140.17" cy="811.169" r="4.5"/>
<circle cx="1142.56" cy="813.5" r="4.5"/>
<circle cx="1144.95" cy="812.722" r="4.5"/>
<circle cx="1147.34" cy="813.5" r="4.5"/>
<circle cx="1149.73" cy="811.753" r="4.5"/>
<circle cx="1152.12" cy="813.5" r="4.5"/>
<circle cx="1154.51" cy="812.722" r="4.5"/>
<circle cx="1156.9" cy="813.5" r="4.5"/>
<circle cx="1159.29" cy="811.546" r="4.5"/>
<circle cx="1161.68" cy="813.5" r="4.5"/>
<circle cx="1164.07" cy="812.916" r="4.5"/>
<circle cx="1166.46" cy="813.5" r="4.5"/>
<circle cx="1168.85" cy="811.832" r="4.5"/>
<circle cx="1171.24" cy="813.5" r="4.5"/>
<circle cx="1173.63" cy="812.912" r="4.5"/>
<circle cx="1176.02" cy="813.5" r="4.5"/>
<circle cx="1178.41" cy="811.989" r="4.5"/>
<circle cx="1180.8" cy="813.5" r="4.5"/>
<circle cx="1183.19" cy="813.007" r="4.5"/>
<circle cx="1185.58" cy="813.5" r="4.5"/>
<circle cx="1187.97" cy="812.076" r="4.5"/>
<circle cx="1190.36" cy="813.5" r="4.5"/>
<circle cx="1192.75" cy="813.065" r="4.5"/>
<circle cx="1195.14" cy="813.5" r="4.5"/>
<circle cx="1197.53" cy="811.877" r="4.5"/>
<circle cx="1199.92" cy="813.5" r="4.5"/>
<circle cx="1202.31" cy="813.148" r="4.5"/>
<circle cx="1204.7" cy="813.5" r="4.5"/>
<circle cx="1207.09" cy="812.341" r="4.5"/>
<circle cx="1209.48" cy="813.5" r="4.5"/>
<circle cx="1211.87" cy="813.061" r="4.5"/>
<circle cx="1214.26" cy="813.5" r="4.5"/>
<circle cx="1216.65" cy="812.469" r="4.5"/>
<circle cx="1219.04" cy="813.5" r="4.5"/>
<circle cx="1221.43" cy="813.181" r="4.5"/>
<circle cx="1223.82" cy="813.5" r="4.5"/>
<circle cx="1226.21" cy="812.577" r="4.5"/>
<circle cx="1228.6" cy="813.5" r="4.5"/>
<circle cx="1230.99" cy="813.252" r="4.5"/>
<circle cx="1233.38" cy="813.5" r="4.5"/>
<circle cx="1235.77" cy="812.511" r="4.5"/>
<circle cx="1238.16" cy="813.5" r="4.5"/>
<circle cx="1240.55" cy="813.202" r="4.5"/>
<circle cx="1242.94" cy="813.5" r="4.5"/>
<circle cx="1245.33" cy="812.647" r="4.5"/>
<circle cx="1247.72" cy="813.5" r="4.5"/>
<circle cx="1250.11" cy="813.177" r="4.5"/>
<circle cx="1252.5" cy="813.5" r="4.5"/>
</g>
<text x="296.5" y="839.45" class="B C G">0</text>
<text x="535.5" y="839.45" class="B C G">100</text>
<text x="774.5" y="839.45" class="B C G">200</text>
<text x="1013.5" y="839.45" class="B C G">300</text>
<text x="1252.5" y="839.45" class="B C G">400</text>
<text x="279" y="819.45" class="B C H">0</text>
<text x="279" y="612.45" class="B C H">50,000</text>
<text x="279" y="405.45" class="B C H">100,000</text>
<text x="279" y="198.45" class="B C H">150,000</text>
<text x="774.5" y="880.279" class="B C G K">symbolic theorem length</text>
<text x="-503" y="181.45" transform="rotate(270)" class="B C G K">number of most general theorems</text>
</svg>
