<svg xmlns="http://www.w3.org/2000/svg" width="1298" height="760" viewBox="150 127 1298 760">
<!-- Plot data obtained via command "pmGenerator -c -n -s CCCpqrCCrpCsp <two hyphens>plot -s -x 400 -o sys/CCCpqrCCrpCsp/plot_data_x400.txt" ; repository at https://github.com/xamidi/pmGenerator -->
<style>
<![CDATA[text{filter:drop-shadow(0px -2px 6px #fff)}.B{font-family:Arial}.C{font-size:17px}.D{stroke-opacity:1}.G{text-anchor:middle}.H{text-anchor:end}.I{stroke-width:2}.J{stroke-dasharray:4 3}.K{font-style:italic}]]>
</style>
<defs>
<linearGradient id="A">
<stop offset="0%" stop-color="#e1e1e1"/><!-- relative luminance: 0.7529422168 (instead of #c0c0c0) -->
<stop offset="5%" stop-color="#e1e1e1"/>
<stop offset="28%" stop-color="#bcbcbc"/><!-- relative luminance: 0.502886458 (instead of #808080) -->
<stop offset="38%" stop-color="#bcbcbc"/>
<stop offset="61%" stop-color="#898989"/><!-- relative luminance: 0.2501582847 (instead of #404040) -->
<stop offset="71%" stop-color="#898989"/>
<stop offset="95%" stop-color="#000"/>
</linearGradient>
</defs>
<text x="296" y="161.45" font-weight="bold" class="B C">CCCpqrCCrpCsp: Quantities of most general theorems by their symbolic lengths for minimal condensed detachment proofs</text>
<text x="1310" y="206.45" class="B C">proof length 77</text>
<circle cx="1287" cy="200.5" r="4.5" fill="#e1e1e1"/>
<text x="1310" y="234.45" class="B C">proof length 79</text>
<circle cx="1287" cy="228.5" r="4.5" fill="#bcbcbc"/>
<text x="1310" y="262.45" class="B C">proof length 81</text>
<circle cx="1287" cy="256.5" r="4.5" fill="#898989"/>
<text x="1310" y="290.45" class="B C">proof length 83</text>
<circle cx="1287" cy="284.5" r="4.5" fill="#000"/>
<text x="1310" y="318.45" class="B C">averages</text>
<path fill="none" stroke="url(#A)" d="M1270,312.5L1304,312.5001" class="D I"/>
<text x="1310" y="346.45" class="B C">medians</text>
<path fill="none" stroke="url(#A)" d="M1270,340.5L1304,340.5001" class="D I J"/>
<path fill="#ccc" d="M296 192h1v622h-1zm239 0h1v622h-1zm239 0h1v622h-1zm239 0h1v622h-1zm239 0h1v622h-1z"/>
<path fill="#ebebeb" d="M416 192h1v622h-1zm239 0h1v622h-1zm239 0h1v622h-1zm239 0h1v622h-1z"/>
<path fill="#ccc" d="M296 813h957v1H296zm0-207h957v1H296zm0-207h957v1H296zm0-207h957v1H296z"/>
<path fill="#ebebeb" d="M296 710h957v1H296zm0-207h957v1H296zm0-207h957v1H296z"/>
<g fill="#333">
<path d="M296 192h1v622h-1z"/>
<path d="M296 813h957v1H296z"/>
</g>
<g fill="none" class="I D">
<path stroke="#e1e1e1" d="M511.887 813.5v-621"/>
<path stroke="#bcbcbc" d="M517.049 813.5v-621"/>
<path stroke="#898989" d="M522.57 813.5v-621"/>
<path stroke="#000" d="M527.804 813.5v-621"/>
<g class="J">
<path stroke="#e1e1e1" d="M480.53 813.5v-621"/>
<path stroke="#bcbcbc" d="M485.31 813.5v-621"/>
<path stroke="#898989" d="M490.09 813.5v-621"/>
<path stroke="#000" d="M494.87 813.5v-621"/>
</g>
</g>
<g fill="#e1e1e1">
<circle cx="298.89" cy="813.5" r="4.5"/>
<circle cx="301.28" cy="813.5" r="4.5"/>
<circle cx="303.67" cy="813.5" r="4.5"/>
<circle cx="306.06" cy="813.5" r="4.5"/>
<circle cx="308.45" cy="813.5" r="4.5"/>
<circle cx="310.84" cy="813.5" r="4.5"/>
<circle cx="313.23" cy="813.5" r="4.5"/>
<circle cx="315.62" cy="813.5" r="4.5"/>
<circle cx="318.01" cy="813.496" r="4.5"/>
<circle cx="320.4" cy="813.5" r="4.5"/>
<circle cx="322.79" cy="813.496" r="4.5"/>
<circle cx="325.18" cy="813.5" r="4.5"/>
<circle cx="327.57" cy="813.492" r="4.5"/>
<circle cx="329.96" cy="813.5" r="4.5"/>
<circle cx="332.35" cy="813.396" r="4.5"/>
<circle cx="334.74" cy="813.5" r="4.5"/>
<circle cx="337.13" cy="813.194" r="4.5"/>
<circle cx="339.52" cy="813.5" r="4.5"/>
<circle cx="341.91" cy="812.614" r="4.5"/>
<circle cx="344.3" cy="813.5" r="4.5"/>
<circle cx="346.69" cy="811.521" r="4.5"/>
<circle cx="349.08" cy="813.5" r="4.5"/>
<circle cx="351.47" cy="809.323" r="4.5"/>
<circle cx="353.86" cy="813.5" r="4.5"/>
<circle cx="356.25" cy="805.762" r="4.5"/>
<circle cx="358.64" cy="813.5" r="4.5"/>
<circle cx="361.03" cy="800.376" r="4.5"/>
<circle cx="363.42" cy="813.5" r="4.5"/>
<circle cx="365.81" cy="792.374" r="4.5"/>
<circle cx="368.2" cy="813.5" r="4.5"/>
<circle cx="370.59" cy="782.226" r="4.5"/>
<circle cx="372.98" cy="813.5" r="4.5"/>
<circle cx="375.37" cy="769.583" r="4.5"/>
<circle cx="377.76" cy="813.5" r="4.5"/>
<circle cx="380.15" cy="753.888" r="4.5"/>
<circle cx="382.54" cy="813.5" r="4.5"/>
<circle cx="384.93" cy="735.974" r="4.5"/>
<circle cx="387.32" cy="813.5" r="4.5"/>
<circle cx="389.71" cy="718.628" r="4.5"/>
<circle cx="392.1" cy="813.5" r="4.5"/>
<circle cx="394.49" cy="705.107" r="4.5"/>
<circle cx="396.88" cy="813.5" r="4.5"/>
<circle cx="399.27" cy="685.355" r="4.5"/>
<circle cx="401.66" cy="813.5" r="4.5"/>
<circle cx="404.05" cy="670.21" r="4.5"/>
<circle cx="406.44" cy="813.5" r="4.5"/>
<circle cx="408.83" cy="657.389" r="4.5"/>
<circle cx="411.22" cy="813.5" r="4.5"/>
<circle cx="413.61" cy="641.996" r="4.5"/>
<circle cx="416" cy="813.5" r="4.5"/>
<circle cx="418.39" cy="636.676" r="4.5"/>
<circle cx="420.78" cy="813.5" r="4.5"/>
<circle cx="423.17" cy="624.488" r="4.5"/>
<circle cx="425.56" cy="813.5" r="4.5"/>
<circle cx="427.95" cy="624.294" r="4.5"/>
<circle cx="430.34" cy="813.5" r="4.5"/>
<circle cx="432.73" cy="618.908" r="4.5"/>
<circle cx="435.12" cy="813.5" r="4.5"/>
<circle cx="437.51" cy="619.52" r="4.5"/>
<circle cx="439.9" cy="813.5" r="4.5"/>
<circle cx="442.29" cy="621.739" r="4.5"/>
<circle cx="444.68" cy="813.5" r="4.5"/>
<circle cx="447.07" cy="623.677" r="4.5"/>
<circle cx="449.46" cy="813.5" r="4.5"/>
<circle cx="451.85" cy="624.327" r="4.5"/>
<circle cx="454.24" cy="813.5" r="4.5"/>
<circle cx="456.63" cy="633.145" r="4.5"/>
<circle cx="459.02" cy="813.5" r="4.5"/>
<circle cx="461.41" cy="636.772" r="4.5"/>
<circle cx="463.8" cy="813.5" r="4.5"/>
<circle cx="466.19" cy="647.627" r="4.5"/>
<circle cx="468.58" cy="813.5" r="4.5"/>
<circle cx="470.97" cy="644.754" r="4.5"/>
<circle cx="473.36" cy="813.5" r="4.5"/>
<circle cx="475.75" cy="663.454" r="4.5"/>
<circle cx="478.14" cy="813.5" r="4.5"/>
<circle cx="480.53" cy="660.949" r="4.5"/>
<circle cx="482.92" cy="813.5" r="4.5"/>
<circle cx="485.31" cy="675.609" r="4.5"/>
<circle cx="487.7" cy="813.5" r="4.5"/>
<circle cx="490.09" cy="671.953" r="4.5"/>
<circle cx="492.48" cy="813.5" r="4.5"/>
<circle cx="494.87" cy="692.931" r="4.5"/>
<circle cx="497.26" cy="813.5" r="4.5"/>
<circle cx="499.65" cy="686.013" r="4.5"/>
<circle cx="502.04" cy="813.5" r="4.5"/>
<circle cx="504.43" cy="702.018" r="4.5"/>
<circle cx="506.82" cy="813.5" r="4.5"/>
<circle cx="509.21" cy="696.355" r="4.5"/>
<circle cx="511.6" cy="813.5" r="4.5"/>
<circle cx="513.99" cy="710.741" r="4.5"/>
<circle cx="516.38" cy="813.5" r="4.5"/>
<circle cx="518.77" cy="706.212" r="4.5"/>
<circle cx="521.16" cy="813.5" r="4.5"/>
<circle cx="523.55" cy="721.224" r="4.5"/>
<circle cx="525.94" cy="813.5" r="4.5"/>
<circle cx="528.33" cy="708.924" r="4.5"/>
<circle cx="530.72" cy="813.5" r="4.5"/>
<circle cx="533.11" cy="727.835" r="4.5"/>
<circle cx="535.5" cy="813.5" r="4.5"/>
<circle cx="537.89" cy="712.07" r="4.5"/>
<circle cx="540.28" cy="813.5" r="4.5"/>
<circle cx="542.67" cy="731.338" r="4.5"/>
<circle cx="545.06" cy="813.5" r="4.5"/>
<circle cx="547.45" cy="718.408" r="4.5"/>
<circle cx="549.84" cy="813.5" r="4.5"/>
<circle cx="552.23" cy="739.112" r="4.5"/>
<circle cx="554.62" cy="813.5" r="4.5"/>
<circle cx="557.01" cy="724.237" r="4.5"/>
<circle cx="559.4" cy="813.5" r="4.5"/>
<circle cx="561.79" cy="740.234" r="4.5"/>
<circle cx="564.18" cy="813.5" r="4.5"/>
<circle cx="566.57" cy="727.024" r="4.5"/>
<circle cx="568.96" cy="813.5" r="4.5"/>
<circle cx="571.35" cy="746.962" r="4.5"/>
<circle cx="573.74" cy="813.5" r="4.5"/>
<circle cx="576.13" cy="733.73" r="4.5"/>
<circle cx="578.52" cy="813.5" r="4.5"/>
<circle cx="580.91" cy="754.298" r="4.5"/>
<circle cx="583.3" cy="813.5" r="4.5"/>
<circle cx="585.69" cy="737.154" r="4.5"/>
<circle cx="588.08" cy="813.5" r="4.5"/>
<circle cx="590.47" cy="758.016" r="4.5"/>
<circle cx="592.86" cy="813.5" r="4.5"/>
<circle cx="595.25" cy="745.832" r="4.5"/>
<circle cx="597.64" cy="813.5" r="4.5"/>
<circle cx="600.03" cy="762.441" r="4.5"/>
<circle cx="602.42" cy="813.5" r="4.5"/>
<circle cx="604.81" cy="750.419" r="4.5"/>
<circle cx="607.2" cy="813.5" r="4.5"/>
<circle cx="609.59" cy="768.622" r="4.5"/>
<circle cx="611.98" cy="813.5" r="4.5"/>
<circle cx="614.37" cy="753.876" r="4.5"/>
<circle cx="616.76" cy="813.5" r="4.5"/>
<circle cx="619.15" cy="772.825" r="4.5"/>
<circle cx="621.54" cy="813.5" r="4.5"/>
<circle cx="623.93" cy="760.669" r="4.5"/>
<circle cx="626.32" cy="813.5" r="4.5"/>
<circle cx="628.71" cy="775.586" r="4.5"/>
<circle cx="631.1" cy="813.5" r="4.5"/>
<circle cx="633.49" cy="764.499" r="4.5"/>
<circle cx="635.88" cy="813.5" r="4.5"/>
<circle cx="638.27" cy="781.2" r="4.5"/>
<circle cx="640.66" cy="813.5" r="4.5"/>
<circle cx="643.05" cy="767.368" r="4.5"/>
<circle cx="645.44" cy="813.5" r="4.5"/>
<circle cx="647.83" cy="783.717" r="4.5"/>
<circle cx="650.22" cy="813.5" r="4.5"/>
<circle cx="652.61" cy="774.832" r="4.5"/>
<circle cx="655" cy="813.5" r="4.5"/>
<circle cx="657.39" cy="787.041" r="4.5"/>
<circle cx="659.78" cy="813.5" r="4.5"/>
<circle cx="662.17" cy="775.557" r="4.5"/>
<circle cx="664.56" cy="813.5" r="4.5"/>
<circle cx="666.95" cy="790.486" r="4.5"/>
<circle cx="669.34" cy="813.5" r="4.5"/>
<circle cx="671.73" cy="780.769" r="4.5"/>
<circle cx="674.12" cy="813.5" r="4.5"/>
<circle cx="676.51" cy="791.881" r="4.5"/>
<circle cx="678.9" cy="813.5" r="4.5"/>
<circle cx="681.29" cy="783.154" r="4.5"/>
<circle cx="683.68" cy="813.5" r="4.5"/>
<circle cx="686.07" cy="795.739" r="4.5"/>
<circle cx="688.46" cy="813.5" r="4.5"/>
<circle cx="690.85" cy="785.187" r="4.5"/>
<circle cx="693.24" cy="813.5" r="4.5"/>
<circle cx="695.63" cy="796.874" r="4.5"/>
<circle cx="698.02" cy="813.5" r="4.5"/>
<circle cx="700.41" cy="788.528" r="4.5"/>
<circle cx="702.8" cy="813.5" r="4.5"/>
<circle cx="705.19" cy="799.06" r="4.5"/>
<circle cx="707.58" cy="813.5" r="4.5"/>
<circle cx="709.97" cy="789.782" r="4.5"/>
<circle cx="712.36" cy="813.5" r="4.5"/>
<circle cx="714.75" cy="801.155" r="4.5"/>
<circle cx="717.14" cy="813.5" r="4.5"/>
<circle cx="719.53" cy="792.44" r="4.5"/>
<circle cx="721.92" cy="813.5" r="4.5"/>
<circle cx="724.31" cy="801.018" r="4.5"/>
<circle cx="726.7" cy="813.5" r="4.5"/>
<circle cx="729.09" cy="795.04" r="4.5"/>
<circle cx="731.48" cy="813.5" r="4.5"/>
<circle cx="733.87" cy="802.699" r="4.5"/>
<circle cx="736.26" cy="813.5" r="4.5"/>
<circle cx="738.65" cy="794.559" r="4.5"/>
<circle cx="741.04" cy="813.5" r="4.5"/>
<circle cx="743.43" cy="803.796" r="4.5"/>
<circle cx="745.82" cy="813.5" r="4.5"/>
<circle cx="748.21" cy="797.424" r="4.5"/>
<circle cx="750.6" cy="813.5" r="4.5"/>
<circle cx="752.99" cy="804.454" r="4.5"/>
<circle cx="755.38" cy="813.5" r="4.5"/>
<circle cx="757.77" cy="797.412" r="4.5"/>
<circle cx="760.16" cy="813.5" r="4.5"/>
<circle cx="762.55" cy="805.696" r="4.5"/>
<circle cx="764.94" cy="813.5" r="4.5"/>
<circle cx="767.33" cy="799.515" r="4.5"/>
<circle cx="769.72" cy="813.5" r="4.5"/>
<circle cx="772.11" cy="805.729" r="4.5"/>
<circle cx="774.5" cy="813.5" r="4.5"/>
<circle cx="776.89" cy="800.327" r="4.5"/>
<circle cx="779.28" cy="813.5" r="4.5"/>
<circle cx="781.67" cy="806.4" r="4.5"/>
<circle cx="784.06" cy="813.5" r="4.5"/>
<circle cx="786.45" cy="800.89" r="4.5"/>
<circle cx="788.84" cy="813.5" r="4.5"/>
<circle cx="791.23" cy="807.046" r="4.5"/>
<circle cx="793.62" cy="813.5" r="4.5"/>
<circle cx="796.01" cy="801.333" r="4.5"/>
<circle cx="798.4" cy="813.5" r="4.5"/>
<circle cx="800.79" cy="807.654" r="4.5"/>
<circle cx="803.18" cy="813.5" r="4.5"/>
<circle cx="805.57" cy="803.067" r="4.5"/>
<circle cx="807.96" cy="813.5" r="4.5"/>
<circle cx="810.35" cy="807.828" r="4.5"/>
<circle cx="812.74" cy="813.5" r="4.5"/>
<circle cx="815.13" cy="803.245" r="4.5"/>
<circle cx="817.52" cy="813.5" r="4.5"/>
<circle cx="819.91" cy="808.561" r="4.5"/>
<circle cx="822.3" cy="813.5" r="4.5"/>
<circle cx="824.69" cy="804.272" r="4.5"/>
<circle cx="827.08" cy="813.5" r="4.5"/>
<circle cx="829.47" cy="808.905" r="4.5"/>
<circle cx="831.86" cy="813.5" r="4.5"/>
<circle cx="834.25" cy="804.562" r="4.5"/>
<circle cx="836.64" cy="813.5" r="4.5"/>
<circle cx="839.03" cy="809.472" r="4.5"/>
<circle cx="841.42" cy="813.5" r="4.5"/>
<circle cx="843.81" cy="805.53" r="4.5"/>
<circle cx="846.2" cy="813.5" r="4.5"/>
<circle cx="848.59" cy="809.82" r="4.5"/>
<circle cx="850.98" cy="813.5" r="4.5"/>
<circle cx="853.37" cy="805.833" r="4.5"/>
<circle cx="855.76" cy="813.5" r="4.5"/>
<circle cx="858.15" cy="810.263" r="4.5"/>
<circle cx="860.54" cy="813.5" r="4.5"/>
<circle cx="862.93" cy="807.025" r="4.5"/>
<circle cx="865.32" cy="813.5" r="4.5"/>
<circle cx="867.71" cy="810.527" r="4.5"/>
<circle cx="870.1" cy="813.5" r="4.5"/>
<circle cx="872.49" cy="807.273" r="4.5"/>
<circle cx="874.88" cy="813.5" r="4.5"/>
<circle cx="877.27" cy="810.768" r="4.5"/>
<circle cx="879.66" cy="813.5" r="4.5"/>
<circle cx="882.05" cy="808.068" r="4.5"/>
<circle cx="884.44" cy="813.5" r="4.5"/>
<circle cx="886.83" cy="811.062" r="4.5"/>
<circle cx="889.22" cy="813.5" r="4.5"/>
<circle cx="891.61" cy="808.081" r="4.5"/>
<circle cx="894" cy="813.5" r="4.5"/>
<circle cx="896.39" cy="811.442" r="4.5"/>
<circle cx="898.78" cy="813.5" r="4.5"/>
<circle cx="901.17" cy="808.876" r="4.5"/>
<circle cx="903.56" cy="813.5" r="4.5"/>
<circle cx="905.95" cy="811.496" r="4.5"/>
<circle cx="908.34" cy="813.5" r="4.5"/>
<circle cx="910.73" cy="809.364" r="4.5"/>
<circle cx="913.12" cy="813.5" r="4.5"/>
<circle cx="915.51" cy="811.877" r="4.5"/>
<circle cx="917.9" cy="813.5" r="4.5"/>
<circle cx="920.29" cy="809.72" r="4.5"/>
<circle cx="922.68" cy="813.5" r="4.5"/>
<circle cx="925.07" cy="812.059" r="4.5"/>
<circle cx="927.46" cy="813.5" r="4.5"/>
<circle cx="929.85" cy="809.749" r="4.5"/>
<circle cx="932.24" cy="813.5" r="4.5"/>
<circle cx="934.63" cy="812.196" r="4.5"/>
<circle cx="937.02" cy="813.5" r="4.5"/>
<circle cx="939.41" cy="810.602" r="4.5"/>
<circle cx="941.8" cy="813.5" r="4.5"/>
<circle cx="944.19" cy="812.266" r="4.5"/>
<circle cx="946.58" cy="813.5" r="4.5"/>
<circle cx="948.97" cy="810.614" r="4.5"/>
<circle cx="951.36" cy="813.5" r="4.5"/>
<circle cx="953.75" cy="812.469" r="4.5"/>
<circle cx="956.14" cy="813.5" r="4.5"/>
<circle cx="958.53" cy="811.231" r="4.5"/>
<circle cx="960.92" cy="813.5" r="4.5"/>
<circle cx="963.31" cy="812.66" r="4.5"/>
<circle cx="965.7" cy="813.5" r="4.5"/>
<circle cx="968.09" cy="811.269" r="4.5"/>
<circle cx="970.48" cy="813.5" r="4.5"/>
<circle cx="972.87" cy="812.788" r="4.5"/>
<circle cx="975.26" cy="813.5" r="4.5"/>
<circle cx="977.65" cy="811.567" r="4.5"/>
<circle cx="980.04" cy="813.5" r="4.5"/>
<circle cx="982.43" cy="812.734" r="4.5"/>
<circle cx="984.82" cy="813.5" r="4.5"/>
<circle cx="987.21" cy="811.716" r="4.5"/>
<circle cx="989.6" cy="813.5" r="4.5"/>
<circle cx="991.99" cy="812.925" r="4.5"/>
<circle cx="994.38" cy="813.5" r="4.5"/>
<circle cx="996.77" cy="811.993" r="4.5"/>
<circle cx="999.16" cy="813.5" r="4.5"/>
<circle cx="1001.55" cy="812.978" r="4.5"/>
<circle cx="1003.94" cy="813.5" r="4.5"/>
<circle cx="1006.33" cy="812.059" r="4.5"/>
<circle cx="1008.72" cy="813.5" r="4.5"/>
<circle cx="1011.11" cy="812.954" r="4.5"/>
<circle cx="1013.5" cy="813.5" r="4.5"/>
<circle cx="1015.89" cy="812.378" r="4.5"/>
<circle cx="1018.28" cy="813.5" r="4.5"/>
<circle cx="1020.67" cy="813.028" r="4.5"/>
<circle cx="1023.06" cy="813.5" r="4.5"/>
<circle cx="1025.45" cy="812.357" r="4.5"/>
<circle cx="1027.84" cy="813.5" r="4.5"/>
<circle cx="1030.23" cy="813.119" r="4.5"/>
<circle cx="1032.62" cy="813.5" r="4.5"/>
<circle cx="1035.01" cy="812.635" r="4.5"/>
<circle cx="1037.4" cy="813.5" r="4.5"/>
<circle cx="1039.79" cy="813.132" r="4.5"/>
<circle cx="1042.18" cy="813.5" r="4.5"/>
<circle cx="1044.57" cy="812.56" r="4.5"/>
<circle cx="1046.96" cy="813.5" r="4.5"/>
<circle cx="1049.35" cy="813.223" r="4.5"/>
<circle cx="1051.74" cy="813.5" r="4.5"/>
<circle cx="1054.13" cy="812.697" r="4.5"/>
<circle cx="1056.52" cy="813.5" r="4.5"/>
<circle cx="1058.91" cy="813.289" r="4.5"/>
<circle cx="1061.3" cy="813.5" r="4.5"/>
<circle cx="1063.69" cy="812.742" r="4.5"/>
<circle cx="1066.08" cy="813.5" r="4.5"/>
<circle cx="1068.47" cy="813.276" r="4.5"/>
<circle cx="1070.86" cy="813.5" r="4.5"/>
<circle cx="1073.25" cy="812.929" r="4.5"/>
<circle cx="1075.64" cy="813.5" r="4.5"/>
<circle cx="1078.03" cy="813.256" r="4.5"/>
<circle cx="1080.42" cy="813.5" r="4.5"/>
<circle cx="1082.81" cy="812.825" r="4.5"/>
<circle cx="1085.2" cy="813.5" r="4.5"/>
<circle cx="1087.59" cy="813.339" r="4.5"/>
<circle cx="1089.98" cy="813.5" r="4.5"/>
<circle cx="1092.37" cy="812.987" r="4.5"/>
<circle cx="1094.76" cy="813.5" r="4.5"/>
<circle cx="1097.15" cy="813.305" r="4.5"/>
<circle cx="1099.54" cy="813.5" r="4.5"/>
<circle cx="1101.93" cy="813.069" r="4.5"/>
<circle cx="1104.32" cy="813.5" r="4.5"/>
<circle cx="1106.71" cy="813.334" r="4.5"/>
<circle cx="1109.1" cy="813.5" r="4.5"/>
<circle cx="1111.49" cy="813.053" r="4.5"/>
<circle cx="1113.88" cy="813.5" r="4.5"/>
<circle cx="1116.27" cy="813.38" r="4.5"/>
<circle cx="1118.66" cy="813.5" r="4.5"/>
<circle cx="1121.05" cy="813.016" r="4.5"/>
<circle cx="1123.44" cy="813.5" r="4.5"/>
<circle cx="1125.83" cy="813.347" r="4.5"/>
<circle cx="1128.22" cy="813.5" r="4.5"/>
<circle cx="1130.61" cy="813.194" r="4.5"/>
<circle cx="1133" cy="813.5" r="4.5"/>
<circle cx="1135.39" cy="813.322" r="4.5"/>
<circle cx="1137.78" cy="813.5" r="4.5"/>
<circle cx="1140.17" cy="813.127" r="4.5"/>
<circle cx="1142.56" cy="813.5" r="4.5"/>
<circle cx="1144.95" cy="813.384" r="4.5"/>
<circle cx="1147.34" cy="813.5" r="4.5"/>
<circle cx="1149.73" cy="813.156" r="4.5"/>
<circle cx="1152.12" cy="813.5" r="4.5"/>
<circle cx="1154.51" cy="813.392" r="4.5"/>
<circle cx="1156.9" cy="813.5" r="4.5"/>
<circle cx="1159.29" cy="813.181" r="4.5"/>
<circle cx="1161.68" cy="813.5" r="4.5"/>
<circle cx="1164.07" cy="813.413" r="4.5"/>
<circle cx="1166.46" cy="813.5" r="4.5"/>
<circle cx="1168.85" cy="813.189" r="4.5"/>
<circle cx="1171.24" cy="813.5" r="4.5"/>
<circle cx="1173.63" cy="813.392" r="4.5"/>
<circle cx="1176.02" cy="813.5" r="4.5"/>
<circle cx="1178.41" cy="813.189" r="4.5"/>
<circle cx="1180.8" cy="813.5" r="4.5"/>
<circle cx="1183.19" cy="813.413" r="4.5"/>
<circle cx="1185.58" cy="813.5" r="4.5"/>
<circle cx="1187.97" cy="813.264" r="4.5"/>
<circle cx="1190.36" cy="813.5" r="4.5"/>
<circle cx="1192.75" cy="813.425" r="4.5"/>
<circle cx="1195.14" cy="813.5" r="4.5"/>
<circle cx="1197.53" cy="813.227" r="4.5"/>
<circle cx="1199.92" cy="813.5" r="4.5"/>
<circle cx="1202.31" cy="813.454" r="4.5"/>
<circle cx="1204.7" cy="813.5" r="4.5"/>
<circle cx="1207.09" cy="813.272" r="4.5"/>
<circle cx="1209.48" cy="813.5" r="4.5"/>
<circle cx="1211.87" cy="813.438" r="4.5"/>
<circle cx="1214.26" cy="813.5" r="4.5"/>
<circle cx="1216.65" cy="813.289" r="4.5"/>
<circle cx="1219.04" cy="813.5" r="4.5"/>
<circle cx="1221.43" cy="813.454" r="4.5"/>
<circle cx="1223.82" cy="813.5" r="4.5"/>
<circle cx="1226.21" cy="813.33" r="4.5"/>
<circle cx="1228.6" cy="813.5" r="4.5"/>
<circle cx="1230.99" cy="813.463" r="4.5"/>
<circle cx="1233.38" cy="813.5" r="4.5"/>
<circle cx="1235.77" cy="813.318" r="4.5"/>
<circle cx="1238.16" cy="813.5" r="4.5"/>
<circle cx="1240.55" cy="813.471" r="4.5"/>
<circle cx="1242.94" cy="813.5" r="4.5"/>
<circle cx="1245.33" cy="813.368" r="4.5"/>
<circle cx="1247.72" cy="813.5" r="4.5"/>
<circle cx="1250.11" cy="813.454" r="4.5"/>
<circle cx="1252.5" cy="813.5" r="4.5"/>
</g>
<g fill="#bcbcbc">
<circle cx="298.89" cy="813.5" r="4.5"/>
<circle cx="301.28" cy="813.5" r="4.5"/>
<circle cx="303.67" cy="813.5" r="4.5"/>
<circle cx="306.06" cy="813.5" r="4.5"/>
<circle cx="308.45" cy="813.5" r="4.5"/>
<circle cx="310.84" cy="813.5" r="4.5"/>
<circle cx="313.23" cy="813.5" r="4.5"/>
<circle cx="315.62" cy="813.5" r="4.5"/>
<circle cx="318.01" cy="813.5" r="4.5"/>
<circle cx="320.4" cy="813.5" r="4.5"/>
<circle cx="322.79" cy="813.496" r="4.5"/>
<circle cx="325.18" cy="813.5" r="4.5"/>
<circle cx="327.57" cy="813.471" r="4.5"/>
<circle cx="329.96" cy="813.5" r="4.5"/>
<circle cx="332.35" cy="813.401" r="4.5"/>
<circle cx="334.74" cy="813.5" r="4.5"/>
<circle cx="337.13" cy="813.14" r="4.5"/>
<circle cx="339.52" cy="813.5" r="4.5"/>
<circle cx="341.91" cy="812.573" r="4.5"/>
<circle cx="344.3" cy="813.5" r="4.5"/>
<circle cx="346.69" cy="811.521" r="4.5"/>
<circle cx="349.08" cy="813.5" r="4.5"/>
<circle cx="351.47" cy="809.058" r="4.5"/>
<circle cx="353.86" cy="813.5" r="4.5"/>
<circle cx="356.25" cy="804.802" r="4.5"/>
<circle cx="358.64" cy="813.5" r="4.5"/>
<circle cx="361.03" cy="798.083" r="4.5"/>
<circle cx="363.42" cy="813.5" r="4.5"/>
<circle cx="365.81" cy="788.321" r="4.5"/>
<circle cx="368.2" cy="813.5" r="4.5"/>
<circle cx="370.59" cy="776.05" r="4.5"/>
<circle cx="372.98" cy="813.5" r="4.5"/>
<circle cx="375.37" cy="758.624" r="4.5"/>
<circle cx="377.76" cy="813.5" r="4.5"/>
<circle cx="380.15" cy="738.45" r="4.5"/>
<circle cx="382.54" cy="813.5" r="4.5"/>
<circle cx="384.93" cy="719.51" r="4.5"/>
<circle cx="387.32" cy="813.5" r="4.5"/>
<circle cx="389.71" cy="694.144" r="4.5"/>
<circle cx="392.1" cy="813.5" r="4.5"/>
<circle cx="394.49" cy="668.128" r="4.5"/>
<circle cx="396.88" cy="813.5" r="4.5"/>
<circle cx="399.27" cy="641.45" r="4.5"/>
<circle cx="401.66" cy="813.5" r="4.5"/>
<circle cx="404.05" cy="620.348" r="4.5"/>
<circle cx="406.44" cy="813.5" r="4.5"/>
<circle cx="408.83" cy="598.771" r="4.5"/>
<circle cx="411.22" cy="813.5" r="4.5"/>
<circle cx="413.61" cy="581.213" r="4.5"/>
<circle cx="416" cy="813.5" r="4.5"/>
<circle cx="418.39" cy="567.456" r="4.5"/>
<circle cx="420.78" cy="813.5" r="4.5"/>
<circle cx="423.17" cy="557.892" r="4.5"/>
<circle cx="425.56" cy="813.5" r="4.5"/>
<circle cx="427.95" cy="549.666" r="4.5"/>
<circle cx="430.34" cy="813.5" r="4.5"/>
<circle cx="432.73" cy="540.778" r="4.5"/>
<circle cx="435.12" cy="813.5" r="4.5"/>
<circle cx="437.51" cy="544.176" r="4.5"/>
<circle cx="439.9" cy="813.5" r="4.5"/>
<circle cx="442.29" cy="541.316" r="4.5"/>
<circle cx="444.68" cy="813.5" r="4.5"/>
<circle cx="447.07" cy="547.004" r="4.5"/>
<circle cx="449.46" cy="813.5" r="4.5"/>
<circle cx="451.85" cy="545.307" r="4.5"/>
<circle cx="454.24" cy="813.5" r="4.5"/>
<circle cx="456.63" cy="559.842" r="4.5"/>
<circle cx="459.02" cy="813.5" r="4.5"/>
<circle cx="461.41" cy="559.772" r="4.5"/>
<circle cx="463.8" cy="813.5" r="4.5"/>
<circle cx="466.19" cy="574.154" r="4.5"/>
<circle cx="468.58" cy="813.5" r="4.5"/>
<circle cx="470.97" cy="579.698" r="4.5"/>
<circle cx="473.36" cy="813.5" r="4.5"/>
<circle cx="475.75" cy="592.78" r="4.5"/>
<circle cx="478.14" cy="813.5" r="4.5"/>
<circle cx="480.53" cy="595.922" r="4.5"/>
<circle cx="482.92" cy="813.5" r="4.5"/>
<circle cx="485.31" cy="617.711" r="4.5"/>
<circle cx="487.7" cy="813.5" r="4.5"/>
<circle cx="490.09" cy="608.458" r="4.5"/>
<circle cx="492.48" cy="813.5" r="4.5"/>
<circle cx="494.87" cy="638.523" r="4.5"/>
<circle cx="497.26" cy="813.5" r="4.5"/>
<circle cx="499.65" cy="626.587" r="4.5"/>
<circle cx="502.04" cy="813.5" r="4.5"/>
<circle cx="504.43" cy="648.765" r="4.5"/>
<circle cx="506.82" cy="813.5" r="4.5"/>
<circle cx="509.21" cy="645.449" r="4.5"/>
<circle cx="511.6" cy="813.5" r="4.5"/>
<circle cx="513.99" cy="662.651" r="4.5"/>
<circle cx="516.38" cy="813.5" r="4.5"/>
<circle cx="518.77" cy="651.626" r="4.5"/>
<circle cx="521.16" cy="813.5" r="4.5"/>
<circle cx="523.55" cy="674.62" r="4.5"/>
<circle cx="525.94" cy="813.5" r="4.5"/>
<circle cx="528.33" cy="662.195" r="4.5"/>
<circle cx="530.72" cy="813.5" r="4.5"/>
<circle cx="533.11" cy="690.625" r="4.5"/>
<circle cx="535.5" cy="813.5" r="4.5"/>
<circle cx="537.89" cy="665.698" r="4.5"/>
<circle cx="540.28" cy="813.5" r="4.5"/>
<circle cx="542.67" cy="693.912" r="4.5"/>
<circle cx="545.06" cy="813.5" r="4.5"/>
<circle cx="547.45" cy="677.398" r="4.5"/>
<circle cx="549.84" cy="813.5" r="4.5"/>
<circle cx="552.23" cy="703.699" r="4.5"/>
<circle cx="554.62" cy="813.5" r="4.5"/>
<circle cx="557.01" cy="686.779" r="4.5"/>
<circle cx="559.4" cy="813.5" r="4.5"/>
<circle cx="561.79" cy="709.814" r="4.5"/>
<circle cx="564.18" cy="813.5" r="4.5"/>
<circle cx="566.57" cy="688.671" r="4.5"/>
<circle cx="568.96" cy="813.5" r="4.5"/>
<circle cx="571.35" cy="718.528" r="4.5"/>
<circle cx="573.74" cy="813.5" r="4.5"/>
<circle cx="576.13" cy="699.079" r="4.5"/>
<circle cx="578.52" cy="813.5" r="4.5"/>
<circle cx="580.91" cy="723.538" r="4.5"/>
<circle cx="583.3" cy="813.5" r="4.5"/>
<circle cx="585.69" cy="704.022" r="4.5"/>
<circle cx="588.08" cy="813.5" r="4.5"/>
<circle cx="590.47" cy="731.329" r="4.5"/>
<circle cx="592.86" cy="813.5" r="4.5"/>
<circle cx="595.25" cy="711.333" r="4.5"/>
<circle cx="597.64" cy="813.5" r="4.5"/>
<circle cx="600.03" cy="739.373" r="4.5"/>
<circle cx="602.42" cy="813.5" r="4.5"/>
<circle cx="604.81" cy="718.719" r="4.5"/>
<circle cx="607.2" cy="813.5" r="4.5"/>
<circle cx="609.59" cy="745.111" r="4.5"/>
<circle cx="611.98" cy="813.5" r="4.5"/>
<circle cx="614.37" cy="727.359" r="4.5"/>
<circle cx="616.76" cy="813.5" r="4.5"/>
<circle cx="619.15" cy="751.069" r="4.5"/>
<circle cx="621.54" cy="813.5" r="4.5"/>
<circle cx="623.93" cy="733.627" r="4.5"/>
<circle cx="626.32" cy="813.5" r="4.5"/>
<circle cx="628.71" cy="759.225" r="4.5"/>
<circle cx="631.1" cy="813.5" r="4.5"/>
<circle cx="633.49" cy="740.263" r="4.5"/>
<circle cx="635.88" cy="813.5" r="4.5"/>
<circle cx="638.27" cy="765.041" r="4.5"/>
<circle cx="640.66" cy="813.5" r="4.5"/>
<circle cx="643.05" cy="746.738" r="4.5"/>
<circle cx="645.44" cy="813.5" r="4.5"/>
<circle cx="647.83" cy="768.821" r="4.5"/>
<circle cx="650.22" cy="813.5" r="4.5"/>
<circle cx="652.61" cy="755.374" r="4.5"/>
<circle cx="655" cy="813.5" r="4.5"/>
<circle cx="657.39" cy="774.733" r="4.5"/>
<circle cx="659.78" cy="813.5" r="4.5"/>
<circle cx="662.17" cy="758.306" r="4.5"/>
<circle cx="664.56" cy="813.5" r="4.5"/>
<circle cx="666.95" cy="778.997" r="4.5"/>
<circle cx="669.34" cy="813.5" r="4.5"/>
<circle cx="671.73" cy="764.155" r="4.5"/>
<circle cx="674.12" cy="813.5" r="4.5"/>
<circle cx="676.51" cy="782.76" r="4.5"/>
<circle cx="678.9" cy="813.5" r="4.5"/>
<circle cx="681.29" cy="769.351" r="4.5"/>
<circle cx="683.68" cy="813.5" r="4.5"/>
<circle cx="686.07" cy="786.412" r="4.5"/>
<circle cx="688.46" cy="813.5" r="4.5"/>
<circle cx="690.85" cy="773.011" r="4.5"/>
<circle cx="693.24" cy="813.5" r="4.5"/>
<circle cx="695.63" cy="788.416" r="4.5"/>
<circle cx="698.02" cy="813.5" r="4.5"/>
<circle cx="700.41" cy="776.252" r="4.5"/>
<circle cx="702.8" cy="813.5" r="4.5"/>
<circle cx="705.19" cy="791.256" r="4.5"/>
<circle cx="707.58" cy="813.5" r="4.5"/>
<circle cx="709.97" cy="779.858" r="4.5"/>
<circle cx="712.36" cy="813.5" r="4.5"/>
<circle cx="714.75" cy="792.982" r="4.5"/>
<circle cx="717.14" cy="813.5" r="4.5"/>
<circle cx="719.53" cy="781.961" r="4.5"/>
<circle cx="721.92" cy="813.5" r="4.5"/>
<circle cx="724.31" cy="794.8" r="4.5"/>
<circle cx="726.7" cy="813.5" r="4.5"/>
<circle cx="729.09" cy="785.605" r="4.5"/>
<circle cx="731.48" cy="813.5" r="4.5"/>
<circle cx="733.87" cy="796.729" r="4.5"/>
<circle cx="736.26" cy="813.5" r="4.5"/>
<circle cx="738.65" cy="785.178" r="4.5"/>
<circle cx="741.04" cy="813.5" r="4.5"/>
<circle cx="743.43" cy="797.47" r="4.5"/>
<circle cx="745.82" cy="813.5" r="4.5"/>
<circle cx="748.21" cy="788.991" r="4.5"/>
<circle cx="750.6" cy="813.5" r="4.5"/>
<circle cx="752.99" cy="799.089" r="4.5"/>
<circle cx="755.38" cy="813.5" r="4.5"/>
<circle cx="757.77" cy="789.086" r="4.5"/>
<circle cx="760.16" cy="813.5" r="4.5"/>
<circle cx="762.55" cy="800.028" r="4.5"/>
<circle cx="764.94" cy="813.5" r="4.5"/>
<circle cx="767.33" cy="791.136" r="4.5"/>
<circle cx="769.72" cy="813.5" r="4.5"/>
<circle cx="772.11" cy="800.703" r="4.5"/>
<circle cx="774.5" cy="813.5" r="4.5"/>
<circle cx="776.89" cy="792.22" r="4.5"/>
<circle cx="779.28" cy="813.5" r="4.5"/>
<circle cx="781.67" cy="802.811" r="4.5"/>
<circle cx="784.06" cy="813.5" r="4.5"/>
<circle cx="786.45" cy="793.74" r="4.5"/>
<circle cx="788.84" cy="813.5" r="4.5"/>
<circle cx="791.23" cy="802.881" r="4.5"/>
<circle cx="793.62" cy="813.5" r="4.5"/>
<circle cx="796.01" cy="795.474" r="4.5"/>
<circle cx="798.4" cy="813.5" r="4.5"/>
<circle cx="800.79" cy="803.634" r="4.5"/>
<circle cx="803.18" cy="813.5" r="4.5"/>
<circle cx="805.57" cy="797.019" r="4.5"/>
<circle cx="807.96" cy="813.5" r="4.5"/>
<circle cx="810.35" cy="804.93" r="4.5"/>
<circle cx="812.74" cy="813.5" r="4.5"/>
<circle cx="815.13" cy="796.75" r="4.5"/>
<circle cx="817.52" cy="813.5" r="4.5"/>
<circle cx="819.91" cy="805.307" r="4.5"/>
<circle cx="822.3" cy="813.5" r="4.5"/>
<circle cx="824.69" cy="799.532" r="4.5"/>
<circle cx="827.08" cy="813.5" r="4.5"/>
<circle cx="829.47" cy="806.085" r="4.5"/>
<circle cx="831.86" cy="813.5" r="4.5"/>
<circle cx="834.25" cy="799.345" r="4.5"/>
<circle cx="836.64" cy="813.5" r="4.5"/>
<circle cx="839.03" cy="807.323" r="4.5"/>
<circle cx="841.42" cy="813.5" r="4.5"/>
<circle cx="843.81" cy="800.96" r="4.5"/>
<circle cx="846.2" cy="813.5" r="4.5"/>
<circle cx="848.59" cy="807.158" r="4.5"/>
<circle cx="850.98" cy="813.5" r="4.5"/>
<circle cx="853.37" cy="802.173" r="4.5"/>
<circle cx="855.76" cy="813.5" r="4.5"/>
<circle cx="858.15" cy="808.275" r="4.5"/>
<circle cx="860.54" cy="813.5" r="4.5"/>
<circle cx="862.93" cy="802.889" r="4.5"/>
<circle cx="865.32" cy="813.5" r="4.5"/>
<circle cx="867.71" cy="808.71" r="4.5"/>
<circle cx="870.1" cy="813.5" r="4.5"/>
<circle cx="872.49" cy="803.481" r="4.5"/>
<circle cx="874.88" cy="813.5" r="4.5"/>
<circle cx="877.27" cy="808.88" r="4.5"/>
<circle cx="879.66" cy="813.5" r="4.5"/>
<circle cx="882.05" cy="805.017" r="4.5"/>
<circle cx="884.44" cy="813.5" r="4.5"/>
<circle cx="886.83" cy="809.505" r="4.5"/>
<circle cx="889.22" cy="813.5" r="4.5"/>
<circle cx="891.61" cy="804.806" r="4.5"/>
<circle cx="894" cy="813.5" r="4.5"/>
<circle cx="896.39" cy="809.911" r="4.5"/>
<circle cx="898.78" cy="813.5" r="4.5"/>
<circle cx="901.17" cy="806.296" r="4.5"/>
<circle cx="903.56" cy="813.5" r="4.5"/>
<circle cx="905.95" cy="809.836" r="4.5"/>
<circle cx="908.34" cy="813.5" r="4.5"/>
<circle cx="910.73" cy="806.549" r="4.5"/>
<circle cx="913.12" cy="813.5" r="4.5"/>
<circle cx="915.51" cy="810.726" r="4.5"/>
<circle cx="917.9" cy="813.5" r="4.5"/>
<circle cx="920.29" cy="807.137" r="4.5"/>
<circle cx="922.68" cy="813.5" r="4.5"/>
<circle cx="925.07" cy="810.999" r="4.5"/>
<circle cx="927.46" cy="813.5" r="4.5"/>
<circle cx="929.85" cy="807.592" r="4.5"/>
<circle cx="932.24" cy="813.5" r="4.5"/>
<circle cx="934.63" cy="810.975" r="4.5"/>
<circle cx="937.02" cy="813.5" r="4.5"/>
<circle cx="939.41" cy="808.52" r="4.5"/>
<circle cx="941.8" cy="813.5" r="4.5"/>
<circle cx="944.19" cy="811.248" r="4.5"/>
<circle cx="946.58" cy="813.5" r="4.5"/>
<circle cx="948.97" cy="808.234" r="4.5"/>
<circle cx="951.36" cy="813.5" r="4.5"/>
<circle cx="953.75" cy="811.649" r="4.5"/>
<circle cx="956.14" cy="813.5" r="4.5"/>
<circle cx="958.53" cy="809.149" r="4.5"/>
<circle cx="960.92" cy="813.5" r="4.5"/>
<circle cx="963.31" cy="811.683" r="4.5"/>
<circle cx="965.7" cy="813.5" r="4.5"/>
<circle cx="968.09" cy="809.451" r="4.5"/>
<circle cx="970.48" cy="813.5" r="4.5"/>
<circle cx="972.87" cy="812.059" r="4.5"/>
<circle cx="975.26" cy="813.5" r="4.5"/>
<circle cx="977.65" cy="809.886" r="4.5"/>
<circle cx="980.04" cy="813.5" r="4.5"/>
<circle cx="982.43" cy="812.063" r="4.5"/>
<circle cx="984.82" cy="813.5" r="4.5"/>
<circle cx="987.21" cy="810.089" r="4.5"/>
<circle cx="989.6" cy="813.5" r="4.5"/>
<circle cx="991.99" cy="812.117" r="4.5"/>
<circle cx="994.38" cy="813.5" r="4.5"/>
<circle cx="996.77" cy="810.78" r="4.5"/>
<circle cx="999.16" cy="813.5" r="4.5"/>
<circle cx="1001.55" cy="812.25" r="4.5"/>
<circle cx="1003.94" cy="813.5" r="4.5"/>
<circle cx="1006.33" cy="810.465" r="4.5"/>
<circle cx="1008.72" cy="813.5" r="4.5"/>
<circle cx="1011.11" cy="812.502" r="4.5"/>
<circle cx="1013.5" cy="813.5" r="4.5"/>
<circle cx="1015.89" cy="811.024" r="4.5"/>
<circle cx="1018.28" cy="813.5" r="4.5"/>
<circle cx="1020.67" cy="812.626" r="4.5"/>
<circle cx="1023.06" cy="813.5" r="4.5"/>
<circle cx="1025.45" cy="811.327" r="4.5"/>
<circle cx="1027.84" cy="813.5" r="4.5"/>
<circle cx="1030.23" cy="812.689" r="4.5"/>
<circle cx="1032.62" cy="813.5" r="4.5"/>
<circle cx="1035.01" cy="811.434" r="4.5"/>
<circle cx="1037.4" cy="813.5" r="4.5"/>
<circle cx="1039.79" cy="812.788" r="4.5"/>
<circle cx="1042.18" cy="813.5" r="4.5"/>
<circle cx="1044.57" cy="811.273" r="4.5"/>
<circle cx="1046.96" cy="813.5" r="4.5"/>
<circle cx="1049.35" cy="813.045" r="4.5"/>
<circle cx="1051.74" cy="813.5" r="4.5"/>
<circle cx="1054.13" cy="811.877" r="4.5"/>
<circle cx="1056.52" cy="813.5" r="4.5"/>
<circle cx="1058.91" cy="812.962" r="4.5"/>
<circle cx="1061.3" cy="813.5" r="4.5"/>
<circle cx="1063.69" cy="812.047" r="4.5"/>
<circle cx="1066.08" cy="813.5" r="4.5"/>
<circle cx="1068.47" cy="813.09" r="4.5"/>
<circle cx="1070.86" cy="813.5" r="4.5"/>
<circle cx="1073.25" cy="812.229" r="4.5"/>
<circle cx="1075.64" cy="813.5" r="4.5"/>
<circle cx="1078.03" cy="813.144" r="4.5"/>
<circle cx="1080.42" cy="813.5" r="4.5"/>
<circle cx="1082.81" cy="812.2" r="4.5"/>
<circle cx="1085.2" cy="813.5" r="4.5"/>
<circle cx="1087.59" cy="813.103" r="4.5"/>
<circle cx="1089.98" cy="813.5" r="4.5"/>
<circle cx="1092.37" cy="812.531" r="4.5"/>
<circle cx="1094.76" cy="813.5" r="4.5"/>
<circle cx="1097.15" cy="813.09" r="4.5"/>
<circle cx="1099.54" cy="813.5" r="4.5"/>
<circle cx="1101.93" cy="812.527" r="4.5"/>
<circle cx="1104.32" cy="813.5" r="4.5"/>
<circle cx="1106.71" cy="813.223" r="4.5"/>
<circle cx="1109.1" cy="813.5" r="4.5"/>
<circle cx="1111.49" cy="812.767" r="4.5"/>
<circle cx="1113.88" cy="813.5" r="4.5"/>
<circle cx="1116.27" cy="813.268" r="4.5"/>
<circle cx="1118.66" cy="813.5" r="4.5"/>
<circle cx="1121.05" cy="812.759" r="4.5"/>
<circle cx="1123.44" cy="813.5" r="4.5"/>
<circle cx="1125.83" cy="813.289" r="4.5"/>
<circle cx="1128.22" cy="813.5" r="4.5"/>
<circle cx="1130.61" cy="812.763" r="4.5"/>
<circle cx="1133" cy="813.5" r="4.5"/>
<circle cx="1135.39" cy="813.264" r="4.5"/>
<circle cx="1137.78" cy="813.5" r="4.5"/>
<circle cx="1140.17" cy="812.734" r="4.5"/>
<circle cx="1142.56" cy="813.5" r="4.5"/>
<circle cx="1144.95" cy="813.33" r="4.5"/>
<circle cx="1147.34" cy="813.5" r="4.5"/>
<circle cx="1149.73" cy="812.954" r="4.5"/>
<circle cx="1152.12" cy="813.5" r="4.5"/>
<circle cx="1154.51" cy="813.297" r="4.5"/>
<circle cx="1156.9" cy="813.5" r="4.5"/>
<circle cx="1159.29" cy="812.925" r="4.5"/>
<circle cx="1161.68" cy="813.5" r="4.5"/>
<circle cx="1164.07" cy="813.372" r="4.5"/>
<circle cx="1166.46" cy="813.5" r="4.5"/>
<circle cx="1168.85" cy="813.024" r="4.5"/>
<circle cx="1171.24" cy="813.5" r="4.5"/>
<circle cx="1173.63" cy="813.388" r="4.5"/>
<circle cx="1176.02" cy="813.5" r="4.5"/>
<circle cx="1178.41" cy="813.065" r="4.5"/>
<circle cx="1180.8" cy="813.5" r="4.5"/>
<circle cx="1183.19" cy="813.351" r="4.5"/>
<circle cx="1185.58" cy="813.5" r="4.5"/>
<circle cx="1187.97" cy="813.169" r="4.5"/>
<circle cx="1190.36" cy="813.5" r="4.5"/>
<circle cx="1192.75" cy="813.38" r="4.5"/>
<circle cx="1195.14" cy="813.5" r="4.5"/>
<circle cx="1197.53" cy="813.057" r="4.5"/>
<circle cx="1199.92" cy="813.5" r="4.5"/>
<circle cx="1202.31" cy="813.43" r="4.5"/>
<circle cx="1204.7" cy="813.5" r="4.5"/>
<circle cx="1207.09" cy="813.181" r="4.5"/>
<circle cx="1209.48" cy="813.5" r="4.5"/>
<circle cx="1211.87" cy="813.38" r="4.5"/>
<circle cx="1214.26" cy="813.5" r="4.5"/>
<circle cx="1216.65" cy="813.243" r="4.5"/>
<circle cx="1219.04" cy="813.5" r="4.5"/>
<circle cx="1221.43" cy="813.413" r="4.5"/>
<circle cx="1223.82" cy="813.5" r="4.5"/>
<circle cx="1226.21" cy="813.218" r="4.5"/>
<circle cx="1228.6" cy="813.5" r="4.5"/>
<circle cx="1230.99" cy="813.442" r="4.5"/>
<circle cx="1233.38" cy="813.5" r="4.5"/>
<circle cx="1235.77" cy="813.173" r="4.5"/>
<circle cx="1238.16" cy="813.5" r="4.5"/>
<circle cx="1240.55" cy="813.425" r="4.5"/>
<circle cx="1242.94" cy="813.5" r="4.5"/>
<circle cx="1245.33" cy="813.281" r="4.5"/>
<circle cx="1247.72" cy="813.5" r="4.5"/>
<circle cx="1250.11" cy="813.417" r="4.5"/>
<circle cx="1252.5" cy="813.5" r="4.5"/>
</g>
<g fill="#898989">
<circle cx="298.89" cy="813.5" r="4.5"/>
<circle cx="301.28" cy="813.5" r="4.5"/>
<circle cx="303.67" cy="813.5" r="4.5"/>
<circle cx="306.06" cy="813.5" r="4.5"/>
<circle cx="308.45" cy="813.5" r="4.5"/>
<circle cx="310.84" cy="813.5" r="4.5"/>
<circle cx="313.23" cy="813.5" r="4.5"/>
<circle cx="315.62" cy="813.5" r="4.5"/>
<circle cx="318.01" cy="813.5" r="4.5"/>
<circle cx="320.4" cy="813.5" r="4.5"/>
<circle cx="322.79" cy="813.488" r="4.5"/>
<circle cx="325.18" cy="813.5" r="4.5"/>
<circle cx="327.57" cy="813.471" r="4.5"/>
<circle cx="329.96" cy="813.5" r="4.5"/>
<circle cx="332.35" cy="813.392" r="4.5"/>
<circle cx="334.74" cy="813.5" r="4.5"/>
<circle cx="337.13" cy="813.156" r="4.5"/>
<circle cx="339.52" cy="813.5" r="4.5"/>
<circle cx="341.91" cy="812.531" r="4.5"/>
<circle cx="344.3" cy="813.5" r="4.5"/>
<circle cx="346.69" cy="811.095" r="4.5"/>
<circle cx="349.08" cy="813.5" r="4.5"/>
<circle cx="351.47" cy="808.532" r="4.5"/>
<circle cx="353.86" cy="813.5" r="4.5"/>
<circle cx="356.25" cy="803.754" r="4.5"/>
<circle cx="358.64" cy="813.5" r="4.5"/>
<circle cx="361.03" cy="796.551" r="4.5"/>
<circle cx="363.42" cy="813.5" r="4.5"/>
<circle cx="365.81" cy="784.628" r="4.5"/>
<circle cx="368.2" cy="813.5" r="4.5"/>
<circle cx="370.59" cy="768.515" r="4.5"/>
<circle cx="372.98" cy="813.5" r="4.5"/>
<circle cx="375.37" cy="747.049" r="4.5"/>
<circle cx="377.76" cy="813.5" r="4.5"/>
<circle cx="380.15" cy="723.782" r="4.5"/>
<circle cx="382.54" cy="813.5" r="4.5"/>
<circle cx="384.93" cy="691.146" r="4.5"/>
<circle cx="387.32" cy="813.5" r="4.5"/>
<circle cx="389.71" cy="656.954" r="4.5"/>
<circle cx="392.1" cy="813.5" r="4.5"/>
<circle cx="394.49" cy="624.116" r="4.5"/>
<circle cx="396.88" cy="813.5" r="4.5"/>
<circle cx="399.27" cy="589.621" r="4.5"/>
<circle cx="401.66" cy="813.5" r="4.5"/>
<circle cx="404.05" cy="559.569" r="4.5"/>
<circle cx="406.44" cy="813.5" r="4.5"/>
<circle cx="408.83" cy="525.522" r="4.5"/>
<circle cx="411.22" cy="813.5" r="4.5"/>
<circle cx="413.61" cy="499.237" r="4.5"/>
<circle cx="416" cy="813.5" r="4.5"/>
<circle cx="418.39" cy="477.585" r="4.5"/>
<circle cx="420.78" cy="813.5" r="4.5"/>
<circle cx="423.17" cy="456.86" r="4.5"/>
<circle cx="425.56" cy="813.5" r="4.5"/>
<circle cx="427.95" cy="442.535" r="4.5"/>
<circle cx="430.34" cy="813.5" r="4.5"/>
<circle cx="432.73" cy="438.027" r="4.5"/>
<circle cx="435.12" cy="813.5" r="4.5"/>
<circle cx="437.51" cy="431.353" r="4.5"/>
<circle cx="439.9" cy="813.5" r="4.5"/>
<circle cx="442.29" cy="429.83" r="4.5"/>
<circle cx="444.68" cy="813.5" r="4.5"/>
<circle cx="447.07" cy="436.669" r="4.5"/>
<circle cx="449.46" cy="813.5" r="4.5"/>
<circle cx="451.85" cy="435.352" r="4.5"/>
<circle cx="454.24" cy="813.5" r="4.5"/>
<circle cx="456.63" cy="453.047" r="4.5"/>
<circle cx="459.02" cy="813.5" r="4.5"/>
<circle cx="461.41" cy="452.343" r="4.5"/>
<circle cx="463.8" cy="813.5" r="4.5"/>
<circle cx="466.19" cy="472.538" r="4.5"/>
<circle cx="468.58" cy="813.5" r="4.5"/>
<circle cx="470.97" cy="473.051" r="4.5"/>
<circle cx="473.36" cy="813.5" r="4.5"/>
<circle cx="475.75" cy="502.752" r="4.5"/>
<circle cx="478.14" cy="813.5" r="4.5"/>
<circle cx="480.53" cy="499.042" r="4.5"/>
<circle cx="482.92" cy="813.5" r="4.5"/>
<circle cx="485.31" cy="524.524" r="4.5"/>
<circle cx="487.7" cy="813.5" r="4.5"/>
<circle cx="490.09" cy="524.375" r="4.5"/>
<circle cx="492.48" cy="813.5" r="4.5"/>
<circle cx="494.87" cy="555.317" r="4.5"/>
<circle cx="497.26" cy="813.5" r="4.5"/>
<circle cx="499.65" cy="546.118" r="4.5"/>
<circle cx="502.04" cy="813.5" r="4.5"/>
<circle cx="504.43" cy="576.444" r="4.5"/>
<circle cx="506.82" cy="813.5" r="4.5"/>
<circle cx="509.21" cy="570.995" r="4.5"/>
<circle cx="511.6" cy="813.5" r="4.5"/>
<circle cx="513.99" cy="600.046" r="4.5"/>
<circle cx="516.38" cy="813.5" r="4.5"/>
<circle cx="518.77" cy="583.117" r="4.5"/>
<circle cx="521.16" cy="813.5" r="4.5"/>
<circle cx="523.55" cy="617.413" r="4.5"/>
<circle cx="525.94" cy="813.5" r="4.5"/>
<circle cx="528.33" cy="595.604" r="4.5"/>
<circle cx="530.72" cy="813.5" r="4.5"/>
<circle cx="533.11" cy="636.271" r="4.5"/>
<circle cx="535.5" cy="813.5" r="4.5"/>
<circle cx="537.89" cy="608.375" r="4.5"/>
<circle cx="540.28" cy="813.5" r="4.5"/>
<circle cx="542.67" cy="642.642" r="4.5"/>
<circle cx="545.06" cy="813.5" r="4.5"/>
<circle cx="547.45" cy="618.891" r="4.5"/>
<circle cx="549.84" cy="813.5" r="4.5"/>
<circle cx="552.23" cy="650.421" r="4.5"/>
<circle cx="554.62" cy="813.5" r="4.5"/>
<circle cx="557.01" cy="624.555" r="4.5"/>
<circle cx="559.4" cy="813.5" r="4.5"/>
<circle cx="561.79" cy="662.224" r="4.5"/>
<circle cx="564.18" cy="813.5" r="4.5"/>
<circle cx="566.57" cy="637.389" r="4.5"/>
<circle cx="568.96" cy="813.5" r="4.5"/>
<circle cx="571.35" cy="672.918" r="4.5"/>
<circle cx="573.74" cy="813.5" r="4.5"/>
<circle cx="576.13" cy="642.572" r="4.5"/>
<circle cx="578.52" cy="813.5" r="4.5"/>
<circle cx="580.91" cy="682.564" r="4.5"/>
<circle cx="583.3" cy="813.5" r="4.5"/>
<circle cx="585.69" cy="653.112" r="4.5"/>
<circle cx="588.08" cy="813.5" r="4.5"/>
<circle cx="590.47" cy="691.676" r="4.5"/>
<circle cx="592.86" cy="813.5" r="4.5"/>
<circle cx="595.25" cy="665.735" r="4.5"/>
<circle cx="597.64" cy="813.5" r="4.5"/>
<circle cx="600.03" cy="699.89" r="4.5"/>
<circle cx="602.42" cy="813.5" r="4.5"/>
<circle cx="604.81" cy="674.992" r="4.5"/>
<circle cx="607.2" cy="813.5" r="4.5"/>
<circle cx="609.59" cy="713.08" r="4.5"/>
<circle cx="611.98" cy="813.5" r="4.5"/>
<circle cx="614.37" cy="684.311" r="4.5"/>
<circle cx="616.76" cy="813.5" r="4.5"/>
<circle cx="619.15" cy="721.828" r="4.5"/>
<circle cx="621.54" cy="813.5" r="4.5"/>
<circle cx="623.93" cy="695.055" r="4.5"/>
<circle cx="626.32" cy="813.5" r="4.5"/>
<circle cx="628.71" cy="728.125" r="4.5"/>
<circle cx="631.1" cy="813.5" r="4.5"/>
<circle cx="633.49" cy="707.458" r="4.5"/>
<circle cx="635.88" cy="813.5" r="4.5"/>
<circle cx="638.27" cy="738.653" r="4.5"/>
<circle cx="640.66" cy="813.5" r="4.5"/>
<circle cx="643.05" cy="711.913" r="4.5"/>
<circle cx="645.44" cy="813.5" r="4.5"/>
<circle cx="647.83" cy="745.173" r="4.5"/>
<circle cx="650.22" cy="813.5" r="4.5"/>
<circle cx="652.61" cy="724.217" r="4.5"/>
<circle cx="655" cy="813.5" r="4.5"/>
<circle cx="657.39" cy="750.982" r="4.5"/>
<circle cx="659.78" cy="813.5" r="4.5"/>
<circle cx="662.17" cy="729.239" r="4.5"/>
<circle cx="664.56" cy="813.5" r="4.5"/>
<circle cx="666.95" cy="759.076" r="4.5"/>
<circle cx="669.34" cy="813.5" r="4.5"/>
<circle cx="671.73" cy="736.479" r="4.5"/>
<circle cx="674.12" cy="813.5" r="4.5"/>
<circle cx="676.51" cy="762.868" r="4.5"/>
<circle cx="678.9" cy="813.5" r="4.5"/>
<circle cx="681.29" cy="746.076" r="4.5"/>
<circle cx="683.68" cy="813.5" r="4.5"/>
<circle cx="686.07" cy="769.339" r="4.5"/>
<circle cx="688.46" cy="813.5" r="4.5"/>
<circle cx="690.85" cy="748.494" r="4.5"/>
<circle cx="693.24" cy="813.5" r="4.5"/>
<circle cx="695.63" cy="773.893" r="4.5"/>
<circle cx="698.02" cy="813.5" r="4.5"/>
<circle cx="700.41" cy="755.039" r="4.5"/>
<circle cx="702.8" cy="813.5" r="4.5"/>
<circle cx="705.19" cy="776.704" r="4.5"/>
<circle cx="707.58" cy="813.5" r="4.5"/>
<circle cx="709.97" cy="761.551" r="4.5"/>
<circle cx="712.36" cy="813.5" r="4.5"/>
<circle cx="714.75" cy="781.614" r="4.5"/>
<circle cx="717.14" cy="813.5" r="4.5"/>
<circle cx="719.53" cy="762.019" r="4.5"/>
<circle cx="721.92" cy="813.5" r="4.5"/>
<circle cx="724.31" cy="783.849" r="4.5"/>
<circle cx="726.7" cy="813.5" r="4.5"/>
<circle cx="729.09" cy="770.047" r="4.5"/>
<circle cx="731.48" cy="813.5" r="4.5"/>
<circle cx="733.87" cy="787.393" r="4.5"/>
<circle cx="736.26" cy="813.5" r="4.5"/>
<circle cx="738.65" cy="769.624" r="4.5"/>
<circle cx="741.04" cy="813.5" r="4.5"/>
<circle cx="743.43" cy="790.217" r="4.5"/>
<circle cx="745.82" cy="813.5" r="4.5"/>
<circle cx="748.21" cy="776.07" r="4.5"/>
<circle cx="750.6" cy="813.5" r="4.5"/>
<circle cx="752.99" cy="790.399" r="4.5"/>
<circle cx="755.38" cy="813.5" r="4.5"/>
<circle cx="757.77" cy="778.169" r="4.5"/>
<circle cx="760.16" cy="813.5" r="4.5"/>
<circle cx="762.55" cy="793.653" r="4.5"/>
<circle cx="764.94" cy="813.5" r="4.5"/>
<circle cx="767.33" cy="779.155" r="4.5"/>
<circle cx="769.72" cy="813.5" r="4.5"/>
<circle cx="772.11" cy="794.762" r="4.5"/>
<circle cx="774.5" cy="813.5" r="4.5"/>
<circle cx="776.89" cy="781.771" r="4.5"/>
<circle cx="779.28" cy="813.5" r="4.5"/>
<circle cx="781.67" cy="796.319" r="4.5"/>
<circle cx="784.06" cy="813.5" r="4.5"/>
<circle cx="786.45" cy="784.185" r="4.5"/>
<circle cx="788.84" cy="813.5" r="4.5"/>
<circle cx="791.23" cy="798.021" r="4.5"/>
<circle cx="793.62" cy="813.5" r="4.5"/>
<circle cx="796.01" cy="785.249" r="4.5"/>
<circle cx="798.4" cy="813.5" r="4.5"/>
<circle cx="800.79" cy="798.472" r="4.5"/>
<circle cx="803.18" cy="813.5" r="4.5"/>
<circle cx="805.57" cy="788.871" r="4.5"/>
<circle cx="807.96" cy="813.5" r="4.5"/>
<circle cx="810.35" cy="799.345" r="4.5"/>
<circle cx="812.74" cy="813.5" r="4.5"/>
<circle cx="815.13" cy="788.378" r="4.5"/>
<circle cx="817.52" cy="813.5" r="4.5"/>
<circle cx="819.91" cy="801.134" r="4.5"/>
<circle cx="822.3" cy="813.5" r="4.5"/>
<circle cx="824.69" cy="791.045" r="4.5"/>
<circle cx="827.08" cy="813.5" r="4.5"/>
<circle cx="829.47" cy="801.8" r="4.5"/>
<circle cx="831.86" cy="813.5" r="4.5"/>
<circle cx="834.25" cy="792.361" r="4.5"/>
<circle cx="836.64" cy="813.5" r="4.5"/>
<circle cx="839.03" cy="802.885" r="4.5"/>
<circle cx="841.42" cy="813.5" r="4.5"/>
<circle cx="843.81" cy="794.001" r="4.5"/>
<circle cx="846.2" cy="813.5" r="4.5"/>
<circle cx="848.59" cy="803.692" r="4.5"/>
<circle cx="850.98" cy="813.5" r="4.5"/>
<circle cx="853.37" cy="794.381" r="4.5"/>
<circle cx="855.76" cy="813.5" r="4.5"/>
<circle cx="858.15" cy="804.5" r="4.5"/>
<circle cx="860.54" cy="813.5" r="4.5"/>
<circle cx="862.93" cy="797.18" r="4.5"/>
<circle cx="865.32" cy="813.5" r="4.5"/>
<circle cx="867.71" cy="805.121" r="4.5"/>
<circle cx="870.1" cy="813.5" r="4.5"/>
<circle cx="872.49" cy="797.486" r="4.5"/>
<circle cx="874.88" cy="813.5" r="4.5"/>
<circle cx="877.27" cy="806.35" r="4.5"/>
<circle cx="879.66" cy="813.5" r="4.5"/>
<circle cx="882.05" cy="799.225" r="4.5"/>
<circle cx="884.44" cy="813.5" r="4.5"/>
<circle cx="886.83" cy="806.801" r="4.5"/>
<circle cx="889.22" cy="813.5" r="4.5"/>
<circle cx="891.61" cy="799.706" r="4.5"/>
<circle cx="894" cy="813.5" r="4.5"/>
<circle cx="896.39" cy="807.555" r="4.5"/>
<circle cx="898.78" cy="813.5" r="4.5"/>
<circle cx="901.17" cy="801.618" r="4.5"/>
<circle cx="903.56" cy="813.5" r="4.5"/>
<circle cx="905.95" cy="807.799" r="4.5"/>
<circle cx="908.34" cy="813.5" r="4.5"/>
<circle cx="910.73" cy="801.776" r="4.5"/>
<circle cx="913.12" cy="813.5" r="4.5"/>
<circle cx="915.51" cy="808.536" r="4.5"/>
<circle cx="917.9" cy="813.5" r="4.5"/>
<circle cx="920.29" cy="803.249" r="4.5"/>
<circle cx="922.68" cy="813.5" r="4.5"/>
<circle cx="925.07" cy="809.182" r="4.5"/>
<circle cx="927.46" cy="813.5" r="4.5"/>
<circle cx="929.85" cy="803.655" r="4.5"/>
<circle cx="932.24" cy="813.5" r="4.5"/>
<circle cx="934.63" cy="809.455" r="4.5"/>
<circle cx="937.02" cy="813.5" r="4.5"/>
<circle cx="939.41" cy="805.162" r="4.5"/>
<circle cx="941.8" cy="813.5" r="4.5"/>
<circle cx="944.19" cy="809.646" r="4.5"/>
<circle cx="946.58" cy="813.5" r="4.5"/>
<circle cx="948.97" cy="805.121" r="4.5"/>
<circle cx="951.36" cy="813.5" r="4.5"/>
<circle cx="953.75" cy="810.457" r="4.5"/>
<circle cx="956.14" cy="813.5" r="4.5"/>
<circle cx="958.53" cy="806.557" r="4.5"/>
<circle cx="960.92" cy="813.5" r="4.5"/>
<circle cx="963.31" cy="810.523" r="4.5"/>
<circle cx="965.7" cy="813.5" r="4.5"/>
<circle cx="968.09" cy="806.963" r="4.5"/>
<circle cx="970.48" cy="813.5" r="4.5"/>
<circle cx="972.87" cy="811.086" r="4.5"/>
<circle cx="975.26" cy="813.5" r="4.5"/>
<circle cx="977.65" cy="807.559" r="4.5"/>
<circle cx="980.04" cy="813.5" r="4.5"/>
<circle cx="982.43" cy="811.177" r="4.5"/>
<circle cx="984.82" cy="813.5" r="4.5"/>
<circle cx="987.21" cy="807.919" r="4.5"/>
<circle cx="989.6" cy="813.5" r="4.5"/>
<circle cx="991.99" cy="811.48" r="4.5"/>
<circle cx="994.38" cy="813.5" r="4.5"/>
<circle cx="996.77" cy="808.83" r="4.5"/>
<circle cx="999.16" cy="813.5" r="4.5"/>
<circle cx="1001.55" cy="811.687" r="4.5"/>
<circle cx="1003.94" cy="813.5" r="4.5"/>
<circle cx="1006.33" cy="808.838" r="4.5"/>
<circle cx="1008.72" cy="813.5" r="4.5"/>
<circle cx="1011.11" cy="811.894" r="4.5"/>
<circle cx="1013.5" cy="813.5" r="4.5"/>
<circle cx="1015.89" cy="809.906" r="4.5"/>
<circle cx="1018.28" cy="813.5" r="4.5"/>
<circle cx="1020.67" cy="812.014" r="4.5"/>
<circle cx="1023.06" cy="813.5" r="4.5"/>
<circle cx="1025.45" cy="809.857" r="4.5"/>
<circle cx="1027.84" cy="813.5" r="4.5"/>
<circle cx="1030.23" cy="812.312" r="4.5"/>
<circle cx="1032.62" cy="813.5" r="4.5"/>
<circle cx="1035.01" cy="810.42" r="4.5"/>
<circle cx="1037.4" cy="813.5" r="4.5"/>
<circle cx="1039.79" cy="812.328" r="4.5"/>
<circle cx="1042.18" cy="813.5" r="4.5"/>
<circle cx="1044.57" cy="810.47" r="4.5"/>
<circle cx="1046.96" cy="813.5" r="4.5"/>
<circle cx="1049.35" cy="812.581" r="4.5"/>
<circle cx="1051.74" cy="813.5" r="4.5"/>
<circle cx="1054.13" cy="811.045" r="4.5"/>
<circle cx="1056.52" cy="813.5" r="4.5"/>
<circle cx="1058.91" cy="812.544" r="4.5"/>
<circle cx="1061.3" cy="813.5" r="4.5"/>
<circle cx="1063.69" cy="811.144" r="4.5"/>
<circle cx="1066.08" cy="813.5" r="4.5"/>
<circle cx="1068.47" cy="812.66" r="4.5"/>
<circle cx="1070.86" cy="813.5" r="4.5"/>
<circle cx="1073.25" cy="811.641" r="4.5"/>
<circle cx="1075.64" cy="813.5" r="4.5"/>
<circle cx="1078.03" cy="812.751" r="4.5"/>
<circle cx="1080.42" cy="813.5" r="4.5"/>
<circle cx="1082.81" cy="811.467" r="4.5"/>
<circle cx="1085.2" cy="813.5" r="4.5"/>
<circle cx="1087.59" cy="812.887" r="4.5"/>
<circle cx="1089.98" cy="813.5" r="4.5"/>
<circle cx="1092.37" cy="811.79" r="4.5"/>
<circle cx="1094.76" cy="813.5" r="4.5"/>
<circle cx="1097.15" cy="812.817" r="4.5"/>
<circle cx="1099.54" cy="813.5" r="4.5"/>
<circle cx="1101.93" cy="811.943" r="4.5"/>
<circle cx="1104.32" cy="813.5" r="4.5"/>
<circle cx="1106.71" cy="812.962" r="4.5"/>
<circle cx="1109.1" cy="813.5" r="4.5"/>
<circle cx="1111.49" cy="812.072" r="4.5"/>
<circle cx="1113.88" cy="813.5" r="4.5"/>
<circle cx="1116.27" cy="813.082" r="4.5"/>
<circle cx="1118.66" cy="813.5" r="4.5"/>
<circle cx="1121.05" cy="811.972" r="4.5"/>
<circle cx="1123.44" cy="813.5" r="4.5"/>
<circle cx="1125.83" cy="813.032" r="4.5"/>
<circle cx="1128.22" cy="813.5" r="4.5"/>
<circle cx="1130.61" cy="812.304" r="4.5"/>
<circle cx="1133" cy="813.5" r="4.5"/>
<circle cx="1135.39" cy="813.016" r="4.5"/>
<circle cx="1137.78" cy="813.5" r="4.5"/>
<circle cx="1140.17" cy="812.262" r="4.5"/>
<circle cx="1142.56" cy="813.5" r="4.5"/>
<circle cx="1144.95" cy="813.173" r="4.5"/>
<circle cx="1147.34" cy="813.5" r="4.5"/>
<circle cx="1149.73" cy="812.54" r="4.5"/>
<circle cx="1152.12" cy="813.5" r="4.5"/>
<circle cx="1154.51" cy="813.136" r="4.5"/>
<circle cx="1156.9" cy="813.5" r="4.5"/>
<circle cx="1159.29" cy="812.473" r="4.5"/>
<circle cx="1161.68" cy="813.5" r="4.5"/>
<circle cx="1164.07" cy="813.127" r="4.5"/>
<circle cx="1166.46" cy="813.5" r="4.5"/>
<circle cx="1168.85" cy="812.568" r="4.5"/>
<circle cx="1171.24" cy="813.5" r="4.5"/>
<circle cx="1173.63" cy="813.181" r="4.5"/>
<circle cx="1176.02" cy="813.5" r="4.5"/>
<circle cx="1178.41" cy="812.568" r="4.5"/>
<circle cx="1180.8" cy="813.5" r="4.5"/>
<circle cx="1183.19" cy="813.177" r="4.5"/>
<circle cx="1185.58" cy="813.5" r="4.5"/>
<circle cx="1187.97" cy="812.775" r="4.5"/>
<circle cx="1190.36" cy="813.5" r="4.5"/>
<circle cx="1192.75" cy="813.198" r="4.5"/>
<circle cx="1195.14" cy="813.5" r="4.5"/>
<circle cx="1197.53" cy="812.66" r="4.5"/>
<circle cx="1199.92" cy="813.5" r="4.5"/>
<circle cx="1202.31" cy="813.252" r="4.5"/>
<circle cx="1204.7" cy="813.5" r="4.5"/>
<circle cx="1207.09" cy="812.751" r="4.5"/>
<circle cx="1209.48" cy="813.5" r="4.5"/>
<circle cx="1211.87" cy="813.231" r="4.5"/>
<circle cx="1214.26" cy="813.5" r="4.5"/>
<circle cx="1216.65" cy="812.842" r="4.5"/>
<circle cx="1219.04" cy="813.5" r="4.5"/>
<circle cx="1221.43" cy="813.272" r="4.5"/>
<circle cx="1223.82" cy="813.5" r="4.5"/>
<circle cx="1226.21" cy="812.871" r="4.5"/>
<circle cx="1228.6" cy="813.5" r="4.5"/>
<circle cx="1230.99" cy="813.289" r="4.5"/>
<circle cx="1233.38" cy="813.5" r="4.5"/>
<circle cx="1235.77" cy="812.804" r="4.5"/>
<circle cx="1238.16" cy="813.5" r="4.5"/>
<circle cx="1240.55" cy="813.314" r="4.5"/>
<circle cx="1242.94" cy="813.5" r="4.5"/>
<circle cx="1245.33" cy="812.978" r="4.5"/>
<circle cx="1247.72" cy="813.5" r="4.5"/>
<circle cx="1250.11" cy="813.322" r="4.5"/>
<circle cx="1252.5" cy="813.5" r="4.5"/>
</g>
<g fill="#000">
<circle cx="298.89" cy="813.5" r="4.5"/>
<circle cx="301.28" cy="813.5" r="4.5"/>
<circle cx="303.67" cy="813.5" r="4.5"/>
<circle cx="306.06" cy="813.5" r="4.5"/>
<circle cx="308.45" cy="813.5" r="4.5"/>
<circle cx="310.84" cy="813.5" r="4.5"/>
<circle cx="313.23" cy="813.5" r="4.5"/>
<circle cx="315.62" cy="813.5" r="4.5"/>
<circle cx="318.01" cy="813.5" r="4.5"/>
<circle cx="320.4" cy="813.5" r="4.5"/>
<circle cx="322.79" cy="813.492" r="4.5"/>
<circle cx="325.18" cy="813.5" r="4.5"/>
<circle cx="327.57" cy="813.471" r="4.5"/>
<circle cx="329.96" cy="813.5" r="4.5"/>
<circle cx="332.35" cy="813.396" r="4.5"/>
<circle cx="334.74" cy="813.5" r="4.5"/>
<circle cx="337.13" cy="813.094" r="4.5"/>
<circle cx="339.52" cy="813.5" r="4.5"/>
<circle cx="341.91" cy="812.531" r="4.5"/>
<circle cx="344.3" cy="813.5" r="4.5"/>
<circle cx="346.69" cy="811.198" r="4.5"/>
<circle cx="349.08" cy="813.5" r="4.5"/>
<circle cx="351.47" cy="807.986" r="4.5"/>
<circle cx="353.86" cy="813.5" r="4.5"/>
<circle cx="356.25" cy="802.686" r="4.5"/>
<circle cx="358.64" cy="813.5" r="4.5"/>
<circle cx="361.03" cy="793.38" r="4.5"/>
<circle cx="363.42" cy="813.5" r="4.5"/>
<circle cx="365.81" cy="780.305" r="4.5"/>
<circle cx="368.2" cy="813.5" r="4.5"/>
<circle cx="370.59" cy="759.427" r="4.5"/>
<circle cx="372.98" cy="813.5" r="4.5"/>
<circle cx="375.37" cy="733.345" r="4.5"/>
<circle cx="377.76" cy="813.5" r="4.5"/>
<circle cx="380.15" cy="701.857" r="4.5"/>
<circle cx="382.54" cy="813.5" r="4.5"/>
<circle cx="384.93" cy="659.417" r="4.5"/>
<circle cx="387.32" cy="813.5" r="4.5"/>
<circle cx="389.71" cy="621.723" r="4.5"/>
<circle cx="392.1" cy="813.5" r="4.5"/>
<circle cx="394.49" cy="569.766" r="4.5"/>
<circle cx="396.88" cy="813.5" r="4.5"/>
<circle cx="399.27" cy="522.33" r="4.5"/>
<circle cx="401.66" cy="813.5" r="4.5"/>
<circle cx="404.05" cy="471.358" r="4.5"/>
<circle cx="406.44" cy="813.5" r="4.5"/>
<circle cx="408.83" cy="421.488" r="4.5"/>
<circle cx="411.22" cy="813.5" r="4.5"/>
<circle cx="413.61" cy="388.421" r="4.5"/>
<circle cx="416" cy="813.5" r="4.5"/>
<circle cx="418.39" cy="348.682" r="4.5"/>
<circle cx="420.78" cy="813.5" r="4.5"/>
<circle cx="423.17" cy="321.8" r="4.5"/>
<circle cx="425.56" cy="813.5" r="4.5"/>
<circle cx="427.95" cy="304.777" r="4.5"/>
<circle cx="430.34" cy="813.5" r="4.5"/>
<circle cx="432.73" cy="287.136" r="4.5"/>
<circle cx="435.12" cy="813.5" r="4.5"/>
<circle cx="437.51" cy="281.502" r="4.5"/>
<circle cx="439.9" cy="813.5" r="4.5"/>
<circle cx="442.29" cy="271.649" r="4.5"/>
<circle cx="444.68" cy="813.5" r="4.5"/>
<circle cx="447.07" cy="279.022" r="4.5"/>
<circle cx="449.46" cy="813.5" r="4.5"/>
<circle cx="451.85" cy="282.657" r="4.5"/>
<circle cx="454.24" cy="813.5" r="4.5"/>
<circle cx="456.63" cy="299.035" r="4.5"/>
<circle cx="459.02" cy="813.5" r="4.5"/>
<circle cx="461.41" cy="300.554" r="4.5"/>
<circle cx="463.8" cy="813.5" r="4.5"/>
<circle cx="466.19" cy="323.506" r="4.5"/>
<circle cx="468.58" cy="813.5" r="4.5"/>
<circle cx="470.97" cy="333.877" r="4.5"/>
<circle cx="473.36" cy="813.5" r="4.5"/>
<circle cx="475.75" cy="361.963" r="4.5"/>
<circle cx="478.14" cy="813.5" r="4.5"/>
<circle cx="480.53" cy="361.996" r="4.5"/>
<circle cx="482.92" cy="813.5" r="4.5"/>
<circle cx="485.31" cy="406.021" r="4.5"/>
<circle cx="487.7" cy="813.5" r="4.5"/>
<circle cx="490.09" cy="396.61" r="4.5"/>
<circle cx="492.48" cy="813.5" r="4.5"/>
<circle cx="494.87" cy="439.062" r="4.5"/>
<circle cx="497.26" cy="813.5" r="4.5"/>
<circle cx="499.65" cy="435.464" r="4.5"/>
<circle cx="502.04" cy="813.5" r="4.5"/>
<circle cx="504.43" cy="467.694" r="4.5"/>
<circle cx="506.82" cy="813.5" r="4.5"/>
<circle cx="509.21" cy="462.792" r="4.5"/>
<circle cx="511.6" cy="813.5" r="4.5"/>
<circle cx="513.99" cy="498.914" r="4.5"/>
<circle cx="516.38" cy="813.5" r="4.5"/>
<circle cx="518.77" cy="477.92" r="4.5"/>
<circle cx="521.16" cy="813.5" r="4.5"/>
<circle cx="523.55" cy="532.241" r="4.5"/>
<circle cx="525.94" cy="813.5" r="4.5"/>
<circle cx="528.33" cy="493.528" r="4.5"/>
<circle cx="530.72" cy="813.5" r="4.5"/>
<circle cx="533.11" cy="546.602" r="4.5"/>
<circle cx="535.5" cy="813.5" r="4.5"/>
<circle cx="537.89" cy="510.949" r="4.5"/>
<circle cx="540.28" cy="813.5" r="4.5"/>
<circle cx="542.67" cy="566.512" r="4.5"/>
<circle cx="545.06" cy="813.5" r="4.5"/>
<circle cx="547.45" cy="535.131" r="4.5"/>
<circle cx="549.84" cy="813.5" r="4.5"/>
<circle cx="552.23" cy="574.75" r="4.5"/>
<circle cx="554.62" cy="813.5" r="4.5"/>
<circle cx="557.01" cy="542.744" r="4.5"/>
<circle cx="559.4" cy="813.5" r="4.5"/>
<circle cx="561.79" cy="594.117" r="4.5"/>
<circle cx="564.18" cy="813.5" r="4.5"/>
<circle cx="566.57" cy="556.224" r="4.5"/>
<circle cx="568.96" cy="813.5" r="4.5"/>
<circle cx="571.35" cy="612.47" r="4.5"/>
<circle cx="573.74" cy="813.5" r="4.5"/>
<circle cx="576.13" cy="568.598" r="4.5"/>
<circle cx="578.52" cy="813.5" r="4.5"/>
<circle cx="580.91" cy="618.56" r="4.5"/>
<circle cx="583.3" cy="813.5" r="4.5"/>
<circle cx="585.69" cy="583.569" r="4.5"/>
<circle cx="588.08" cy="813.5" r="4.5"/>
<circle cx="590.47" cy="635.695" r="4.5"/>
<circle cx="592.86" cy="813.5" r="4.5"/>
<circle cx="595.25" cy="594.01" r="4.5"/>
<circle cx="597.64" cy="813.5" r="4.5"/>
<circle cx="600.03" cy="649.374" r="4.5"/>
<circle cx="602.42" cy="813.5" r="4.5"/>
<circle cx="604.81" cy="610.135" r="4.5"/>
<circle cx="607.2" cy="813.5" r="4.5"/>
<circle cx="609.59" cy="660.229" r="4.5"/>
<circle cx="611.98" cy="813.5" r="4.5"/>
<circle cx="614.37" cy="624.811" r="4.5"/>
<circle cx="616.76" cy="813.5" r="4.5"/>
<circle cx="619.15" cy="675.029" r="4.5"/>
<circle cx="621.54" cy="813.5" r="4.5"/>
<circle cx="623.93" cy="636.594" r="4.5"/>
<circle cx="626.32" cy="813.5" r="4.5"/>
<circle cx="628.71" cy="688.559" r="4.5"/>
<circle cx="631.1" cy="813.5" r="4.5"/>
<circle cx="633.49" cy="651.999" r="4.5"/>
<circle cx="635.88" cy="813.5" r="4.5"/>
<circle cx="638.27" cy="699.691" r="4.5"/>
<circle cx="640.66" cy="813.5" r="4.5"/>
<circle cx="643.05" cy="664.303" r="4.5"/>
<circle cx="645.44" cy="813.5" r="4.5"/>
<circle cx="647.83" cy="709.665" r="4.5"/>
<circle cx="650.22" cy="813.5" r="4.5"/>
<circle cx="652.61" cy="679.256" r="4.5"/>
<circle cx="655" cy="813.5" r="4.5"/>
<circle cx="657.39" cy="721.683" r="4.5"/>
<circle cx="659.78" cy="813.5" r="4.5"/>
<circle cx="662.17" cy="688.116" r="4.5"/>
<circle cx="664.56" cy="813.5" r="4.5"/>
<circle cx="666.95" cy="732.099" r="4.5"/>
<circle cx="669.34" cy="813.5" r="4.5"/>
<circle cx="671.73" cy="700.834" r="4.5"/>
<circle cx="674.12" cy="813.5" r="4.5"/>
<circle cx="676.51" cy="739.228" r="4.5"/>
<circle cx="678.9" cy="813.5" r="4.5"/>
<circle cx="681.29" cy="712.231" r="4.5"/>
<circle cx="683.68" cy="813.5" r="4.5"/>
<circle cx="686.07" cy="746.945" r="4.5"/>
<circle cx="688.46" cy="813.5" r="4.5"/>
<circle cx="690.85" cy="719.356" r="4.5"/>
<circle cx="693.24" cy="813.5" r="4.5"/>
<circle cx="695.63" cy="754.228" r="4.5"/>
<circle cx="698.02" cy="813.5" r="4.5"/>
<circle cx="700.41" cy="726.655" r="4.5"/>
<circle cx="702.8" cy="813.5" r="4.5"/>
<circle cx="705.19" cy="760.347" r="4.5"/>
<circle cx="707.58" cy="813.5" r="4.5"/>
<circle cx="709.97" cy="737.601" r="4.5"/>
<circle cx="712.36" cy="813.5" r="4.5"/>
<circle cx="714.75" cy="765.033" r="4.5"/>
<circle cx="717.14" cy="813.5" r="4.5"/>
<circle cx="719.53" cy="739.427" r="4.5"/>
<circle cx="721.92" cy="813.5" r="4.5"/>
<circle cx="724.31" cy="768.891" r="4.5"/>
<circle cx="726.7" cy="813.5" r="4.5"/>
<circle cx="729.09" cy="748.473" r="4.5"/>
<circle cx="731.48" cy="813.5" r="4.5"/>
<circle cx="733.87" cy="773.305" r="4.5"/>
<circle cx="736.26" cy="813.5" r="4.5"/>
<circle cx="738.65" cy="750.626" r="4.5"/>
<circle cx="741.04" cy="813.5" r="4.5"/>
<circle cx="743.43" cy="776.17" r="4.5"/>
<circle cx="745.82" cy="813.5" r="4.5"/>
<circle cx="748.21" cy="756.819" r="4.5"/>
<circle cx="750.6" cy="813.5" r="4.5"/>
<circle cx="752.99" cy="778.372" r="4.5"/>
<circle cx="755.38" cy="813.5" r="4.5"/>
<circle cx="757.77" cy="759.655" r="4.5"/>
<circle cx="760.16" cy="813.5" r="4.5"/>
<circle cx="762.55" cy="782.264" r="4.5"/>
<circle cx="764.94" cy="813.5" r="4.5"/>
<circle cx="767.33" cy="762.52" r="4.5"/>
<circle cx="769.72" cy="813.5" r="4.5"/>
<circle cx="772.11" cy="783.659" r="4.5"/>
<circle cx="774.5" cy="813.5" r="4.5"/>
<circle cx="776.89" cy="765.128" r="4.5"/>
<circle cx="779.28" cy="813.5" r="4.5"/>
<circle cx="781.67" cy="785.994" r="4.5"/>
<circle cx="784.06" cy="813.5" r="4.5"/>
<circle cx="786.45" cy="768.983" r="4.5"/>
<circle cx="788.84" cy="813.5" r="4.5"/>
<circle cx="791.23" cy="787.468" r="4.5"/>
<circle cx="793.62" cy="813.5" r="4.5"/>
<circle cx="796.01" cy="770.08" r="4.5"/>
<circle cx="798.4" cy="813.5" r="4.5"/>
<circle cx="800.79" cy="789.418" r="4.5"/>
<circle cx="803.18" cy="813.5" r="4.5"/>
<circle cx="805.57" cy="774.576" r="4.5"/>
<circle cx="807.96" cy="813.5" r="4.5"/>
<circle cx="810.35" cy="792.469" r="4.5"/>
<circle cx="812.74" cy="813.5" r="4.5"/>
<circle cx="815.13" cy="774.543" r="4.5"/>
<circle cx="817.52" cy="813.5" r="4.5"/>
<circle cx="819.91" cy="793.396" r="4.5"/>
<circle cx="822.3" cy="813.5" r="4.5"/>
<circle cx="824.69" cy="779.647" r="4.5"/>
<circle cx="827.08" cy="813.5" r="4.5"/>
<circle cx="829.47" cy="794.191" r="4.5"/>
<circle cx="831.86" cy="813.5" r="4.5"/>
<circle cx="834.25" cy="780.111" r="4.5"/>
<circle cx="836.64" cy="813.5" r="4.5"/>
<circle cx="839.03" cy="797.101" r="4.5"/>
<circle cx="841.42" cy="813.5" r="4.5"/>
<circle cx="843.81" cy="782.723" r="4.5"/>
<circle cx="846.2" cy="813.5" r="4.5"/>
<circle cx="848.59" cy="797.412" r="4.5"/>
<circle cx="850.98" cy="813.5" r="4.5"/>
<circle cx="853.37" cy="785.178" r="4.5"/>
<circle cx="855.76" cy="813.5" r="4.5"/>
<circle cx="858.15" cy="799.138" r="4.5"/>
<circle cx="860.54" cy="813.5" r="4.5"/>
<circle cx="862.93" cy="787.579" r="4.5"/>
<circle cx="865.32" cy="813.5" r="4.5"/>
<circle cx="867.71" cy="800.931" r="4.5"/>
<circle cx="870.1" cy="813.5" r="4.5"/>
<circle cx="872.49" cy="788.341" r="4.5"/>
<circle cx="874.88" cy="813.5" r="4.5"/>
<circle cx="877.27" cy="801.494" r="4.5"/>
<circle cx="879.66" cy="813.5" r="4.5"/>
<circle cx="882.05" cy="791.753" r="4.5"/>
<circle cx="884.44" cy="813.5" r="4.5"/>
<circle cx="886.83" cy="802.599" r="4.5"/>
<circle cx="889.22" cy="813.5" r="4.5"/>
<circle cx="891.61" cy="791.392" r="4.5"/>
<circle cx="894" cy="813.5" r="4.5"/>
<circle cx="896.39" cy="804.019" r="4.5"/>
<circle cx="898.78" cy="813.5" r="4.5"/>
<circle cx="901.17" cy="794.593" r="4.5"/>
<circle cx="903.56" cy="813.5" r="4.5"/>
<circle cx="905.95" cy="804.293" r="4.5"/>
<circle cx="908.34" cy="813.5" r="4.5"/>
<circle cx="910.73" cy="795.603" r="4.5"/>
<circle cx="913.12" cy="813.5" r="4.5"/>
<circle cx="915.51" cy="805.671" r="4.5"/>
<circle cx="917.9" cy="813.5" r="4.5"/>
<circle cx="920.29" cy="797.333" r="4.5"/>
<circle cx="922.68" cy="813.5" r="4.5"/>
<circle cx="925.07" cy="806.172" r="4.5"/>
<circle cx="927.46" cy="813.5" r="4.5"/>
<circle cx="929.85" cy="798.273" r="4.5"/>
<circle cx="932.24" cy="813.5" r="4.5"/>
<circle cx="934.63" cy="806.665" r="4.5"/>
<circle cx="937.02" cy="813.5" r="4.5"/>
<circle cx="939.41" cy="800.248" r="4.5"/>
<circle cx="941.8" cy="813.5" r="4.5"/>
<circle cx="944.19" cy="807.265" r="4.5"/>
<circle cx="946.58" cy="813.5" r="4.5"/>
<circle cx="948.97" cy="800.157" r="4.5"/>
<circle cx="951.36" cy="813.5" r="4.5"/>
<circle cx="953.75" cy="808.151" r="4.5"/>
<circle cx="956.14" cy="813.5" r="4.5"/>
<circle cx="958.53" cy="802.297" r="4.5"/>
<circle cx="960.92" cy="813.5" r="4.5"/>
<circle cx="963.31" cy="808.101" r="4.5"/>
<circle cx="965.7" cy="813.5" r="4.5"/>
<circle cx="968.09" cy="802.355" r="4.5"/>
<circle cx="970.48" cy="813.5" r="4.5"/>
<circle cx="972.87" cy="808.76" r="4.5"/>
<circle cx="975.26" cy="813.5" r="4.5"/>
<circle cx="977.65" cy="803.523" r="4.5"/>
<circle cx="980.04" cy="813.5" r="4.5"/>
<circle cx="982.43" cy="809.319" r="4.5"/>
<circle cx="984.82" cy="813.5" r="4.5"/>
<circle cx="987.21" cy="804.09" r="4.5"/>
<circle cx="989.6" cy="813.5" r="4.5"/>
<circle cx="991.99" cy="809.72" r="4.5"/>
<circle cx="994.38" cy="813.5" r="4.5"/>
<circle cx="996.77" cy="805.266" r="4.5"/>
<circle cx="999.16" cy="813.5" r="4.5"/>
<circle cx="1001.55" cy="810.002" r="4.5"/>
<circle cx="1003.94" cy="813.5" r="4.5"/>
<circle cx="1006.33" cy="804.976" r="4.5"/>
<circle cx="1008.72" cy="813.5" r="4.5"/>
<circle cx="1011.11" cy="810.602" r="4.5"/>
<circle cx="1013.5" cy="813.5" r="4.5"/>
<circle cx="1015.89" cy="806.876" r="4.5"/>
<circle cx="1018.28" cy="813.5" r="4.5"/>
<circle cx="1020.67" cy="810.412" r="4.5"/>
<circle cx="1023.06" cy="813.5" r="4.5"/>
<circle cx="1025.45" cy="807.025" r="4.5"/>
<circle cx="1027.84" cy="813.5" r="4.5"/>
<circle cx="1030.23" cy="810.892" r="4.5"/>
<circle cx="1032.62" cy="813.5" r="4.5"/>
<circle cx="1035.01" cy="807.53" r="4.5"/>
<circle cx="1037.4" cy="813.5" r="4.5"/>
<circle cx="1039.79" cy="811.293" r="4.5"/>
<circle cx="1042.18" cy="813.5" r="4.5"/>
<circle cx="1044.57" cy="807.588" r="4.5"/>
<circle cx="1046.96" cy="813.5" r="4.5"/>
<circle cx="1049.35" cy="811.327" r="4.5"/>
<circle cx="1051.74" cy="813.5" r="4.5"/>
<circle cx="1054.13" cy="808.756" r="4.5"/>
<circle cx="1056.52" cy="813.5" r="4.5"/>
<circle cx="1058.91" cy="811.26" r="4.5"/>
<circle cx="1061.3" cy="813.5" r="4.5"/>
<circle cx="1063.69" cy="808.83" r="4.5"/>
<circle cx="1066.08" cy="813.5" r="4.5"/>
<circle cx="1068.47" cy="811.815" r="4.5"/>
<circle cx="1070.86" cy="813.5" r="4.5"/>
<circle cx="1073.25" cy="809.327" r="4.5"/>
<circle cx="1075.64" cy="813.5" r="4.5"/>
<circle cx="1078.03" cy="812.051" r="4.5"/>
<circle cx="1080.42" cy="813.5" r="4.5"/>
<circle cx="1082.81" cy="809.53" r="4.5"/>
<circle cx="1085.2" cy="813.5" r="4.5"/>
<circle cx="1087.59" cy="812.15" r="4.5"/>
<circle cx="1089.98" cy="813.5" r="4.5"/>
<circle cx="1092.37" cy="809.989" r="4.5"/>
<circle cx="1094.76" cy="813.5" r="4.5"/>
<circle cx="1097.15" cy="812.179" r="4.5"/>
<circle cx="1099.54" cy="813.5" r="4.5"/>
<circle cx="1101.93" cy="809.791" r="4.5"/>
<circle cx="1104.32" cy="813.5" r="4.5"/>
<circle cx="1106.71" cy="812.482" r="4.5"/>
<circle cx="1109.1" cy="813.5" r="4.5"/>
<circle cx="1111.49" cy="810.623" r="4.5"/>
<circle cx="1113.88" cy="813.5" r="4.5"/>
<circle cx="1116.27" cy="812.527" r="4.5"/>
<circle cx="1118.66" cy="813.5" r="4.5"/>
<circle cx="1121.05" cy="810.66" r="4.5"/>
<circle cx="1123.44" cy="813.5" r="4.5"/>
<circle cx="1125.83" cy="812.722" r="4.5"/>
<circle cx="1128.22" cy="813.5" r="4.5"/>
<circle cx="1130.61" cy="811.016" r="4.5"/>
<circle cx="1133" cy="813.5" r="4.5"/>
<circle cx="1135.39" cy="812.771" r="4.5"/>
<circle cx="1137.78" cy="813.5" r="4.5"/>
<circle cx="1140.17" cy="811.169" r="4.5"/>
<circle cx="1142.56" cy="813.5" r="4.5"/>
<circle cx="1144.95" cy="812.726" r="4.5"/>
<circle cx="1147.34" cy="813.5" r="4.5"/>
<circle cx="1149.73" cy="811.753" r="4.5"/>
<circle cx="1152.12" cy="813.5" r="4.5"/>
<circle cx="1154.51" cy="812.726" r="4.5"/>
<circle cx="1156.9" cy="813.5" r="4.5"/>
<circle cx="1159.29" cy="811.55" r="4.5"/>
<circle cx="1161.68" cy="813.5" r="4.5"/>
<circle cx="1164.07" cy="812.916" r="4.5"/>
<circle cx="1166.46" cy="813.5" r="4.5"/>
<circle cx="1168.85" cy="811.836" r="4.5"/>
<circle cx="1171.24" cy="813.5" r="4.5"/>
<circle cx="1173.63" cy="812.912" r="4.5"/>
<circle cx="1176.02" cy="813.5" r="4.5"/>
<circle cx="1178.41" cy="811.989" r="4.5"/>
<circle cx="1180.8" cy="813.5" r="4.5"/>
<circle cx="1183.19" cy="813.007" r="4.5"/>
<circle cx="1185.58" cy="813.5" r="4.5"/>
<circle cx="1187.97" cy="812.076" r="4.5"/>
<circle cx="1190.36" cy="813.5" r="4.5"/>
<circle cx="1192.75" cy="813.065" r="4.5"/>
<circle cx="1195.14" cy="813.5" r="4.5"/>
<circle cx="1197.53" cy="811.877" r="4.5"/>
<circle cx="1199.92" cy="813.5" r="4.5"/>
<circle cx="1202.31" cy="813.148" r="4.5"/>
<circle cx="1204.7" cy="813.5" r="4.5"/>
<circle cx="1207.09" cy="812.341" r="4.5"/>
<circle cx="1209.48" cy="813.5" r="4.5"/>
<circle cx="1211.87" cy="813.061" r="4.5"/>
<circle cx="1214.26" cy="813.5" r="4.5"/>
<circle cx="1216.65" cy="812.469" r="4.5"/>
<circle cx="1219.04" cy="813.5" r="4.5"/>
<circle cx="1221.43" cy="813.181" r="4.5"/>
<circle cx="1223.82" cy="813.5" r="4.5"/>
<circle cx="1226.21" cy="812.577" r="4.5"/>
<circle cx="1228.6" cy="813.5" r="4.5"/>
<circle cx="1230.99" cy="813.252" r="4.5"/>
<circle cx="1233.38" cy="813.5" r="4.5"/>
<circle cx="1235.77" cy="812.511" r="4.5"/>
<circle cx="1238.16" cy="813.5" r="4.5"/>
<circle cx="1240.55" cy="813.202" r="4.5"/>
<circle cx="1242.94" cy="813.5" r="4.5"/>
<circle cx="1245.33" cy="812.647" r="4.5"/>
<circle cx="1247.72" cy="813.5" r="4.5"/>
<circle cx="1250.11" cy="813.177" r="4.5"/>
<circle cx="1252.5" cy="813.5" r="4.5"/>
</g>
<text x="296.5" y="839.45" class="B C G">0</text>
<text x="535.5" y="839.45" class="B C G">100</text>
<text x="774.5" y="839.45" class="B C G">200</text>
<text x="1013.5" y="839.45" class="B C G">300</text>
<text x="1252.5" y="839.45" class="B C G">400</text>
<text x="279" y="819.45" class="B C H">0</text>
<text x="279" y="612.45" class="B C H">50,000</text>
<text x="279" y="405.45" class="B C H">100,000</text>
<text x="279" y="198.45" class="B C H">150,000</text>
<text x="774.5" y="880.279" class="B C G K">symbolic theorem length</text>
<text x="-503" y="181.45" transform="rotate(270)" class="B C G K">number of most general theorems</text>
</svg>
